<svg width="100" height="100" viewBox="0 0 100 100" fill="none" xmlns="http://www.w3.org/2000/svg">
<rect x="4" y="4" width="92" height="92" rx="20" fill="#40404B"/>
<path d="M41.2984 65.3334C44.2603 65.3334 46.7609 62.9427 49.9528 58.3133C50.933 56.875 51.8776 55.4128 52.7856 53.9279C52.8828 53.7746 54.6167 50.9558 55.0984 50.1853C55.7584 49.1168 56.45 48.0681 57.1722 47.0407C57.8124 46.1437 58.3478 45.4946 58.7707 45.0959C58.9726 44.9056 59.0033 44.8889 58.703 44.8889C59.5451 44.8889 60.1341 45.4282 61.6406 47.6349C64.0595 51.1782 65.5634 52.5556 68.6493 52.5556C71.7325 52.5556 73.2365 51.1782 75.6566 47.6349C77.1656 45.4282 77.7534 44.8889 78.5968 44.8889C78.4332 44.8889 78.6798 45.0806 79.1603 45.7617C79.688 46.5079 80.2732 47.5544 81.0565 49.1184C81.3095 49.6244 82.8428 52.7805 83.3258 53.7337C87.2294 61.4579 90.6781 65.3334 96.0001 65.3334V60.2223C93.2733 60.2223 90.8097 57.4533 87.7367 51.3775C87.2767 50.469 85.7498 47.3269 85.4776 46.7813C84.587 45.0027 83.897 43.7683 83.184 42.7589C81.8551 40.8806 80.4419 39.7778 78.5942 39.7778C75.5109 39.7778 74.007 41.1553 71.5869 44.6986C70.0791 46.9053 69.4913 47.4445 68.648 47.4445C67.8072 47.4445 67.2169 46.9053 65.7116 44.6986C63.2915 41.1553 61.7863 39.7778 58.7018 39.7778C56.679 39.7778 55.1802 41.1898 53.1626 44.0149C52.3803 45.1269 51.6317 46.2621 50.9175 47.4189C50.4217 48.2086 48.6776 51.0427 48.5907 51.1833C47.7263 52.5966 46.8273 53.9885 45.8946 55.3578C43.6776 58.5727 41.9526 60.2223 41.2959 60.2223H21.406L16.4329 65.3334H41.2984Z" fill="#CED9F5"/>
<path d="M18.7532 48.8961L18.9474 48.4361C23.2893 38.1155 25.7261 34.6668 29.5556 34.6668C33.3851 34.6668 35.8218 38.1155 40.1637 48.4361L40.3579 48.8961C45.4779 61.0657 48.4641 65.3334 55.1111 65.3334H85.7778L80.6667 60.2223H55.1111C51.5934 60.2223 49.2729 56.9065 45.0691 46.9143L44.8748 46.4543C39.6321 33.9908 36.4977 29.5557 29.5556 29.5557C22.6134 29.5557 19.479 33.9921 14.235 46.453L14.0421 46.9143C9.83817 56.9065 7.51772 60.2223 4 60.2223V65.3334C10.647 65.3334 13.6344 61.0644 18.7532 48.8961V48.8961Z" fill="white"/>
</svg>
