<svg width="100" height="100" viewBox="0 0 100 100" fill="none" xmlns="http://www.w3.org/2000/svg">
<path d="M2.02944 68.3529L9.6765 57.7647C11.3758 55.4118 9.6765 39.5294 9.6765 30.7059C9.6765 23.6471 15.951 20.3137 19.0882 19.5294C26.9313 18.3529 44.9706 16 54.3823 16C63.7941 16 67.3235 23.0588 67.9117 26.5882L70.8529 54.8235C71.2451 59.3333 70.2647 69.1765 63.2059 72.4706C54.3823 76.5882 27.9117 76.5882 25.5588 76.5882C22.3529 76.5882 18.5 74.8235 16.147 72.4706C14.9706 71.2941 13.5294 71.2941 12.6176 71.2941C11.6178 71.2941 8.38238 72.2353 3.20591 73.6471C-1.97056 75.0588 0.264731 70.7059 2.02944 68.3529Z" fill="#00BBD3"/>
<path d="M38.8634 24.2352H57.6869H68.8634C78.7905 24.2352 82.0619 30.7059 82.3928 35.9999C82.785 42.2744 83.334 57.5293 82.3928 68.3528C81.4516 79.1763 75.9222 82.8626 70.6281 83.0587C65.334 83.2548 51.5693 83.5293 38.8634 83.0587C26.1575 82.5881 22.3928 74.2354 22.3928 70.7059V51.294C22.1967 45.8038 22.6281 33.7646 25.9222 29.5293C29.2163 25.294 35.9222 24.2352 38.8634 24.2352Z" fill="#03A9F4"/>
<path fill-rule="evenodd" clip-rule="evenodd" d="M67.225 24.2352C67.5767 25.0999 67.7987 25.9094 67.9118 26.5882L70.853 54.8235C71.2452 59.3333 70.2648 69.1765 63.2059 72.4706C54.3824 76.5883 27.9118 76.5883 25.5589 76.5883C25.2448 76.5883 24.9245 76.5713 24.6001 76.5385C23.0131 74.3661 22.3928 72.1386 22.3928 70.7059V51.294C22.1967 45.8038 22.6281 33.7646 25.9222 29.5293C29.2163 25.294 35.9222 24.2352 38.8634 24.2352H57.6869H67.225Z" fill="#3E51B5"/>
<path fill-rule="evenodd" clip-rule="evenodd" d="M55.95 37.4808C54.4008 36.9597 53.4152 36.9906 51.5945 37.4192C49.6115 37.8861 48.1597 38.4149 46.8001 39.3973C45.4267 40.3896 44.0063 41.9485 42.2928 44.6932C40.7323 47.3194 39.035 50.4514 37.974 53.5484C36.8914 56.7086 36.5969 59.4749 37.3857 61.5601C37.6361 62.2218 37.9428 62.5572 38.214 62.7481C38.4978 62.9478 38.881 63.0855 39.4154 63.1281C40.5615 63.2195 42.0104 62.8507 43.5214 62.3179C46.3739 61.3121 49.8016 59.3736 52.1133 56.8406C52.7264 56.1689 54.0861 54.3772 55.2747 52.4252C55.6053 51.8822 55.9122 51.3438 56.18 50.8292C55.4392 51.047 54.6302 51.2903 53.8078 51.5413C50.7753 52.4666 47.6746 53.46 47.2472 53.611C46.2052 53.9791 45.0647 53.4249 44.7 52.3732C44.3353 51.3216 44.8844 50.1706 45.9264 49.8025C46.4486 49.6181 49.6318 48.6002 52.6507 47.679C54.1679 47.216 55.6722 46.7687 56.8053 46.4561C57.366 46.3014 57.8668 46.171 58.2418 46.0887C58.4172 46.0503 58.6297 46.0077 58.8277 45.9864C58.9041 45.9782 59.1129 45.9566 59.3579 45.9839C59.4628 45.9956 59.7639 46.0337 60.0981 46.2119C60.484 46.4176 61.1143 46.9458 61.1693 47.8896C61.2357 49.0287 60.8317 50.2551 60.4053 51.2614C59.9489 52.3386 59.3273 53.4764 58.681 54.5378C57.3988 56.6434 55.8883 58.6601 55.0541 59.5742C52.1839 62.7191 48.1324 64.9662 44.8401 66.1271C43.2787 66.6776 41.1439 67.3134 39.1006 67.1505C38.0403 67.066 36.9274 66.7619 35.9268 66.0576C34.9137 65.3445 34.1479 64.3136 33.6506 62.9994C32.3548 59.5741 33.0127 55.682 34.1954 52.2299C35.3972 48.7218 37.2725 45.2949 38.8755 42.5987C38.8828 42.5864 38.8902 42.5742 38.8978 42.5621C40.7703 39.5593 42.5216 37.5262 44.4727 36.1165C46.4405 34.6947 48.4684 34.0119 50.6863 33.4898C52.9906 32.9473 54.7652 32.8291 57.2142 33.6529C57.9665 33.9059 58.5496 34.3799 58.8642 34.6358C58.895 34.6609 58.9241 34.6846 58.9517 34.707C59.3027 34.9926 59.3925 35.0657 59.4752 35.1074C60.4626 35.6057 60.8629 36.8175 60.3692 37.8141C59.8754 38.8107 58.6746 39.2147 57.6871 38.7164C57.3651 38.5539 57.0932 38.362 56.8866 38.2046C56.7362 38.0901 56.5751 37.9577 56.4521 37.8567C56.4162 37.8272 56.3835 37.8003 56.3553 37.7774C56.0574 37.5351 55.9613 37.4866 55.9505 37.4812C55.9493 37.4806 55.9492 37.4805 55.95 37.4808Z" fill="white"/>
<path fill-rule="evenodd" clip-rule="evenodd" d="M50.5517 32.9172C52.9276 32.3578 54.8194 32.2266 57.4019 33.0953C58.2562 33.3827 58.9073 33.9124 59.2251 34.171L59.3231 34.2507C59.5018 34.3961 59.6045 34.4797 59.6736 34.533C59.7182 34.5674 59.7371 34.5799 59.7422 34.5832C61.0195 35.229 61.5319 36.7924 60.8964 38.0752C60.259 39.3617 58.7041 39.8883 57.4223 39.2415C57.0547 39.056 56.7505 38.8403 56.5303 38.6725C56.3713 38.5514 56.2035 38.4136 56.0822 38.314L56.0789 38.3113C56.0426 38.2815 56.0111 38.2556 55.9842 38.2337C55.8437 38.1194 55.7581 38.0568 55.7119 38.025C55.7082 38.0225 55.7047 38.0201 55.7016 38.018C54.9989 37.7863 54.444 37.6854 53.8708 37.6821C53.2727 37.6787 52.6243 37.7812 51.7294 37.9918C49.7813 38.4504 48.4146 38.9565 47.1447 39.8741C45.8565 40.8049 44.4849 42.2938 42.7953 44.9992C41.2415 47.6146 39.5708 50.7026 38.5306 53.739C37.4625 56.8568 37.2205 59.4605 37.9361 61.3519C38.1505 61.9188 38.3903 62.1527 38.5527 62.267C38.7311 62.3926 39.0066 62.5054 39.4623 62.5417C40.4747 62.6224 41.8214 62.2936 43.326 61.7631C46.1131 60.7804 49.449 58.8875 51.679 56.444C52.2597 55.8077 53.5974 54.0489 54.7724 52.1192C54.8361 52.0146 54.8988 51.9103 54.9605 51.8064C54.6382 51.9035 54.31 52.0031 53.9796 52.1039C50.9451 53.0298 47.8566 54.0196 47.4433 54.1656C46.0899 54.6437 44.6147 53.922 44.1444 52.566C43.6749 51.2123 44.3798 49.725 45.7307 49.2479C46.2668 49.0585 49.4622 48.0369 52.4791 47.1164C53.9977 46.653 55.508 46.2038 56.649 45.889C57.2119 45.7337 57.725 45.5999 58.116 45.5141C58.296 45.4746 58.534 45.4264 58.7649 45.4015C58.8526 45.3921 59.1129 45.3647 59.4232 45.3993C59.5571 45.4142 59.9443 45.4632 60.3749 45.6928C60.8671 45.9552 61.6855 46.6346 61.7566 47.8553C61.8313 49.1366 61.3803 50.4682 60.9471 51.4908C60.4754 52.604 59.8382 53.7687 59.1835 54.8437C57.8878 56.9716 56.3552 59.0212 55.4887 59.9707C52.5367 63.2053 48.3934 65.498 45.0358 66.6818C43.4664 67.2352 41.2302 67.9104 39.054 67.7369C37.9156 67.6462 36.6947 67.3174 35.5884 66.5386C34.466 65.7486 33.6335 64.616 33.1006 63.2075C31.7314 59.5884 32.4419 55.5336 33.639 52.0392C34.8609 48.4727 36.7613 45.004 38.37 42.2981C38.3794 42.2822 38.389 42.2665 38.3988 42.2508C40.2936 39.2122 42.0929 37.1103 44.1283 35.6397C46.1857 34.1531 48.2987 33.4475 50.5517 32.9172ZM56.1377 36.9232C56.1734 36.9353 56.2072 36.9504 56.2389 36.9682C56.3116 37.0077 56.4481 37.0945 56.7266 37.321C56.7559 37.3448 56.7895 37.3725 56.8248 37.4015C56.9493 37.5037 57.1029 37.6297 57.2432 37.7367C57.4362 37.8837 57.6758 38.0517 57.9523 38.1912C58.6455 38.541 59.492 38.2597 59.8422 37.553C60.1938 36.8433 59.9065 35.9839 59.2103 35.6325C59.1179 35.5859 59.0393 35.5295 58.9547 35.4642C58.872 35.4004 58.757 35.3068 58.5898 35.1707L58.4931 35.0921C58.1778 34.8356 57.6677 34.426 57.0268 34.2104C54.7113 33.4315 53.0539 33.5367 50.8212 34.0623C48.6384 34.5762 46.6955 35.2362 44.8173 36.5933C42.9507 37.942 41.2472 39.9063 39.3971 42.8733L39.3813 42.8993C37.7841 45.5858 35.9338 48.971 34.752 52.4205C33.5838 55.8304 32.9784 59.5598 34.201 62.7912C34.6625 64.0112 35.3616 64.9403 36.2656 65.5766C37.1604 66.2064 38.1652 66.4859 39.1475 66.5641C41.0579 66.7164 43.0912 66.12 44.6446 65.5723C47.8717 64.4345 51.8314 62.2329 54.6197 59.1776C55.4216 58.299 56.9101 56.3151 58.1787 54.2318C58.8166 53.1842 59.4226 52.0731 59.8638 51.0319C60.2833 50.0419 60.6403 48.9208 60.5822 47.9238C60.5433 47.2569 60.1012 46.88 59.8215 46.7309C59.5838 46.6042 59.3687 46.5769 59.2929 46.5685C59.1132 46.5485 58.9559 46.5642 58.8908 46.5712C58.7257 46.589 58.5386 46.6259 58.368 46.6633C58.0088 46.7421 57.5204 46.869 56.9619 47.0231C55.8366 47.3336 54.3384 47.779 52.8225 48.2416C49.8016 49.1634 46.6306 50.1777 46.1225 50.3572C45.3892 50.6162 44.9959 51.4308 45.2559 52.1805C45.5151 52.9278 46.3207 53.3144 47.0514 53.0563C47.4928 52.9004 50.6058 51.9033 53.6362 50.9786C54.46 50.7273 55.271 50.4833 56.0142 50.2648C56.2405 50.1983 56.4846 50.2734 56.6344 50.4555C56.7842 50.6376 56.8108 50.8916 56.7019 51.1007C56.427 51.6291 56.1134 52.1791 55.7772 52.7311C54.575 54.7054 53.1933 56.5299 52.5479 57.2371C50.1544 59.8598 46.635 61.8438 43.7172 62.8726C42.1997 63.4077 40.6485 63.8165 39.3688 63.7145C38.7557 63.6656 38.2646 63.503 37.8756 63.2291C37.4956 62.9617 37.1219 62.5248 36.8357 61.7682C35.9735 59.4893 36.3205 56.5603 37.4176 53.3577C38.4987 50.2022 40.2209 47.0286 41.7873 44.3927L41.7939 44.3816C43.5297 41.6011 44.9981 39.9736 46.4557 38.9205C47.905 37.8733 49.442 37.3217 51.4599 36.8466C52.3857 36.6287 53.1405 36.5014 53.8776 36.5056C54.6233 36.5099 55.3203 36.6483 56.1377 36.9232ZM56.4825 37.7311C56.4359 37.8328 56.3689 37.9034 56.3019 37.9523C56.3776 37.8959 56.4404 37.8209 56.4825 37.7311Z" fill="white"/>
<path d="M94.1699 67.275L85.8823 59.5964V54.7099V50.5216L94.1699 42.843C96.9324 40.6092 99.0043 40.7488 99.6949 43.541C99.9251 49.1255 100.247 60.7133 99.6949 65.1809C99.1424 69.6484 95.7813 68.4385 94.1699 67.275Z" fill="#03A9F4"/>
</svg>
