<svg width="100" height="100" viewBox="0 0 100 100" fill="none" xmlns="http://www.w3.org/2000/svg">
<g clip-path="url(#clip0)">
<path fill-rule="evenodd" clip-rule="evenodd" d="M6.85345 33.3234C-2.28448 42.4613 -2.28448 57.2751 6.85345 66.4122L33.3233 92.8828C42.4612 102.02 57.275 102.02 66.4121 92.8828L92.8828 66.4122C102.02 57.2742 102.02 42.4604 92.8828 33.3234L66.4121 6.85353C57.2741 -2.28353 42.4603 -2.28353 33.3233 6.85353L6.85345 33.3234ZM61.4483 61.4492C67.8448 55.0527 67.8448 44.6828 61.4483 38.2872C55.0526 31.8906 44.6828 31.8906 38.2871 38.2872C31.8905 44.6837 31.8905 55.0527 38.2871 61.4492C44.6836 67.8449 55.0526 67.8449 61.4491 61.4492H61.4483Z" fill="#2962FF"/>
</g>
<defs>
<clipPath id="clip0">
<rect width="100" height="100" fill="white"/>
</clipPath>
</defs>
</svg>
