<svg width="100" height="100" viewBox="0 0 100 100" fill="none" xmlns="http://www.w3.org/2000/svg">
<g clip-path="url(#clip0)">
<path d="M69.7512 37.8837H95.5815C98.0218 37.8837 100 39.8619 100 42.3023V65.8302C100 74.799 92.7294 82.0697 83.7605 82.0697H83.6838C74.7149 82.071 67.4432 74.8013 67.4419 65.8325C67.4419 65.8317 67.4419 65.8309 67.4419 65.8301V40.193C67.4419 38.9176 68.4758 37.8837 69.7512 37.8837Z" fill="#5059C9"/>
<path d="M87.2093 33.2325C92.989 33.2325 97.6744 28.5471 97.6744 22.7674C97.6744 16.9876 92.989 12.3022 87.2093 12.3022C81.4295 12.3022 76.7441 16.9876 76.7441 22.7674C76.7441 28.5471 81.4295 33.2325 87.2093 33.2325Z" fill="#5059C9"/>
<path d="M54.6512 33.2326C62.9997 33.2326 69.7675 26.4648 69.7675 18.1163C69.7675 9.7678 62.9997 3 54.6512 3C46.3027 3 39.5349 9.7678 39.5349 18.1163C39.5349 26.4648 46.3027 33.2326 54.6512 33.2326Z" fill="#7B83EB"/>
<path d="M74.8072 37.8837H32.1699C29.7587 37.9433 27.8512 39.9444 27.9071 42.3558V69.1907C27.5704 83.661 39.0187 95.6691 53.4886 96.0232C67.9585 95.6691 79.4067 83.661 79.07 69.1907V42.3558C79.1258 39.9444 77.2184 37.9433 74.8072 37.8837Z" fill="#7B83EB"/>
<path opacity="0.1" d="M55.814 37.8837V75.4883C55.8024 77.2128 54.7574 78.762 53.1628 79.4185C52.6551 79.6333 52.1094 79.744 51.5582 79.7441H29.9535C29.6512 78.9767 29.3721 78.2093 29.1395 77.4186C28.3255 74.75 27.9101 71.9759 27.907 69.186V42.3488C27.8511 39.9413 29.7554 37.9433 32.1628 37.8837H55.814Z" fill="black"/>
<path opacity="0.2" d="M53.4884 37.8837V77.8139C53.4883 78.3652 53.3776 78.9108 53.1628 79.4185C52.5062 81.0131 50.9571 82.0582 49.2326 82.0697H31.0465C30.6512 81.3023 30.2791 80.5348 29.9535 79.7441C29.6279 78.9535 29.3721 78.2093 29.1395 77.4186C28.3255 74.7501 27.9101 71.9759 27.907 69.186V42.3488C27.8511 39.9413 29.7554 37.9433 32.1628 37.8837H53.4884Z" fill="black"/>
<path opacity="0.2" d="M53.4884 37.8837V73.1628C53.4707 75.5058 51.5756 77.4009 49.2326 77.4186H29.1395C28.3255 74.7501 27.9101 71.976 27.907 69.186V42.3488C27.8511 39.9413 29.7554 37.9433 32.1628 37.8837H53.4884Z" fill="black"/>
<path opacity="0.2" d="M51.1628 37.8837V73.1628C51.145 75.5058 49.25 77.4009 46.907 77.4186H29.1395C28.3255 74.7501 27.9101 71.976 27.907 69.186V42.3488C27.8511 39.9413 29.7554 37.9433 32.1628 37.8837H51.1628Z" fill="black"/>
<path opacity="0.1" d="M55.8141 25.8605V33.1861C55.4187 33.2094 55.0467 33.2326 54.6513 33.2326C54.2559 33.2326 53.8839 33.2094 53.4885 33.1861C52.7035 33.134 51.925 33.0095 51.1629 32.814C46.4536 31.6988 42.563 28.3961 40.6978 23.9303C40.3769 23.1804 40.1277 22.4017 39.9536 21.6047H51.5583C53.905 21.6136 55.8052 23.5138 55.8141 25.8605Z" fill="black"/>
<path opacity="0.2" d="M53.4886 28.1861V33.1861C52.7036 33.134 51.925 33.0094 51.163 32.814C46.4536 31.6987 42.5629 28.396 40.6978 23.9303H49.2327C51.5794 23.9392 53.4796 25.8394 53.4886 28.1861Z" fill="black"/>
<path opacity="0.2" d="M53.4886 28.1861V33.1861C52.7036 33.134 51.925 33.0094 51.163 32.814C46.4536 31.6987 42.5629 28.396 40.6978 23.9303H49.2327C51.5794 23.9392 53.4796 25.8394 53.4886 28.1861Z" fill="black"/>
<path opacity="0.2" d="M51.1629 28.186V32.8139C46.4535 31.6986 42.5629 28.3959 40.6978 23.9302H46.9071C49.2538 23.9391 51.1539 25.8393 51.1629 28.186Z" fill="black"/>
<path d="M4.26277 23.9302H46.9C49.2543 23.9302 51.1627 25.8387 51.1627 28.1929V70.8301C51.1627 73.1844 49.2542 75.0929 46.9 75.0929H4.26277C1.90849 75.0929 0 73.1844 0 70.8301V28.1929C0 25.8387 1.90853 23.9302 4.26277 23.9302Z" fill="url(#paint0_linear)"/>
<path d="M36.8 40.1581H28.2767V63.3675H22.8465V40.1581H14.3628V35.6558H36.8V40.1581Z" fill="white"/>
</g>
<defs>
<linearGradient id="paint0_linear" x1="8.88801" y1="20.5993" x2="42.2748" y2="78.4238" gradientUnits="userSpaceOnUse">
<stop stop-color="#5A62C3"/>
<stop offset="0.5" stop-color="#4D55BD"/>
<stop offset="1" stop-color="#3940AB"/>
</linearGradient>
<clipPath id="clip0">
<rect width="100" height="100" fill="white"/>
</clipPath>
</defs>
</svg>
