<svg width="100" height="100" viewBox="0 0 100 100" fill="none" xmlns="http://www.w3.org/2000/svg">
<path d="M57.092 31.9714L65.4325 60.717C65.842 62.1768 66.2745 63.7544 66.7285 65.4484C67.1883 67.1438 67.6035 68.7041 67.9799 70.1294H68.0747C68.2831 68.7041 68.6308 67.1725 69.1193 65.5216C69.6135 63.878 70.0618 62.3794 70.4713 61.0202L74.49 47.842C74.7931 46.8938 75.0633 46.036 75.3046 45.2716C75.5403 44.5087 75.7874 43.8076 76.0388 43.1625C76.2974 42.5216 76.5388 41.911 76.7802 41.332C77.0158 40.7544 77.286 40.1811 77.5949 39.6035V39.503L71.5891 39.9067V31.9714H91.3779V38.638C89.9857 38.638 88.7687 39.0935 87.7184 40.0073C86.6638 40.9225 85.7601 42.0116 84.9972 43.263C84.2285 44.5202 83.6049 45.7774 83.1107 47.0288C82.6179 48.286 82.2529 49.2515 82.0173 49.9311L70.1638 84.3737H59.1236L51.9512 62.1438C51.7486 61.5992 51.4914 60.8248 51.1882 59.8248C50.8851 58.8262 50.5704 57.7372 50.2443 56.5705C49.9253 55.3966 49.5819 54.184 49.2285 52.9326C48.875 51.6754 48.5446 50.4915 48.2357 49.3694H48.1351C47.9325 50.8291 47.6006 52.4671 47.1408 54.2803C46.6868 56.0935 46.2098 57.8665 45.7156 59.5949C45.227 61.3234 44.7673 62.8837 44.3463 64.276C43.9196 65.6682 43.6049 66.6495 43.4038 67.2285L37.6566 84.3737H27.3291L14.7127 48.253C14.2357 46.9283 13.865 45.8622 13.5905 45.0475C13.3204 44.2343 13.0905 43.526 12.9052 42.9311C12.7141 42.3421 12.5747 41.809 12.4727 41.332C12.3722 40.855 12.2486 40.3162 12.1135 39.7041L8.04457 39.9067V31.9714H33.0259V38.638C31.5661 38.7386 30.5403 39.1768 29.944 39.957C29.3492 40.7372 29.0575 41.7415 29.0575 42.9599C29.0245 43.5375 29.0633 44.1495 29.1811 44.7889C29.3046 45.4354 29.4627 46.0978 29.6696 46.776L33.1768 59.4943C33.5877 61.0202 33.9799 62.6251 34.3722 64.3033C34.7601 65.9814 35.0747 67.6883 35.3161 69.4168H35.4167C35.5848 68.6696 35.7529 67.9067 35.9282 67.1265C36.0963 66.3464 36.2816 65.5044 36.4828 64.6064C36.6911 63.7084 36.9268 62.7214 37.1954 61.6553C37.4713 60.5892 37.7903 59.4096 38.1667 58.1251L45.7946 31.9714H57.092V31.9714Z" fill="#262424"/>
<path d="M99.9225 75.9555C99.9225 80.6753 96.0949 84.5029 91.3751 84.5029C86.6552 84.5029 82.8334 80.6753 82.8334 75.9555C82.8334 71.2357 86.6552 67.4081 91.3751 67.4081C96.0949 67.4081 99.9225 71.2357 99.9225 75.9555Z" fill="#5BC4EE"/>
</svg>
