<svg width="100" height="100" viewBox="0 0 100 100" fill="none" xmlns="http://www.w3.org/2000/svg">
<path d="M99.8194 58.9251L94.2163 41.7064L83.1319 7.56263C83.0047 7.1813 82.7608 6.84965 82.4347 6.61465C82.1085 6.37964 81.7167 6.25318 81.3148 6.25318C80.9128 6.25318 80.521 6.37964 80.1948 6.61465C79.8687 6.84965 79.6248 7.1813 79.4976 7.56263L68.4132 41.6876H31.5819L20.5007 7.56263C20.3743 7.18091 20.1309 6.84872 19.805 6.61328C19.479 6.37783 19.0872 6.2511 18.6851 6.2511C18.283 6.2511 17.8911 6.37783 17.5652 6.61328C17.2392 6.84872 16.9958 7.18091 16.8694 7.56263L5.80069 41.6876L0.197562 58.9251C-0.0516204 59.6905 -0.0521945 60.515 0.195922 61.2807C0.444038 62.0464 0.928114 62.7139 1.57881 63.1876L50.0007 98.3751L98.4132 63.1876C99.067 62.7162 99.5549 62.0499 99.8069 61.2842C100.059 60.5186 100.062 59.6928 99.8163 58.9251" fill="#FC6D26"/>
<path d="M50.0007 98.3471L68.4164 41.6846H31.5945L50.0007 98.3471Z" fill="#E24329"/>
<path d="M50.0008 98.3471L31.5821 41.6877H5.81018L50.0008 98.3471Z" fill="#FC6D26"/>
<path d="M5.78783 41.7034L0.187829 58.9221C-0.060626 59.687 -0.0608238 60.5109 0.187264 61.2759C0.435351 62.041 0.919015 62.708 1.56908 63.1815L50.0003 98.3752L5.78783 41.7034Z" fill="#FCA326"/>
<path d="M5.79688 41.7031H31.6031L20.4969 7.57813C20.3697 7.1968 20.1257 6.86515 19.7996 6.63014C19.4735 6.39513 19.0817 6.26868 18.6797 6.26868C18.2777 6.26868 17.8859 6.39513 17.5598 6.63014C17.2336 6.86515 16.9897 7.1968 16.8625 7.57813L5.8 41.7031H5.79688Z" fill="#E24329"/>
<path d="M50 98.3471L68.4156 41.6846H94.2281L50 98.3471Z" fill="#FC6D26"/>
<path d="M94.2094 41.7034L99.8125 58.9221C100.061 59.687 100.061 60.5109 99.8131 61.2759C99.565 62.041 99.0813 62.708 98.4313 63.1815L50 98.3471L94.1969 41.7034H94.2094Z" fill="#FCA326"/>
<path d="M94.2188 41.7033H68.4188L79.5063 7.57826C79.6327 7.19654 79.8761 6.86435 80.2021 6.6289C80.528 6.39345 80.9199 6.26672 81.322 6.26672C81.724 6.26672 82.1159 6.39345 82.4418 6.6289C82.7678 6.86435 83.0112 7.19654 83.1376 7.57826L94.2219 41.7033H94.2188Z" fill="#E24329"/>
</svg>
