<svg width="100" height="100" viewBox="0 0 100 100" fill="none" xmlns="http://www.w3.org/2000/svg">
<path d="M50.159 4.00026C44.0913 3.97969 38.0795 5.1596 32.4698 7.47204C26.86 9.78448 21.7632 13.1838 17.4729 17.4741C13.1825 21.7645 9.78331 26.8612 7.47109 32.4707C5.15887 38.0802 3.97929 44.0917 4.00028 50.159C4.08126 75.6131 25.2295 96 50.6854 96H95.3615C95.4454 96 95.5284 95.9835 95.6059 95.9515C95.6834 95.9194 95.7538 95.8724 95.8131 95.8131C95.8724 95.7538 95.9194 95.6834 95.9515 95.6059C95.9836 95.5284 96 95.4454 96 95.3615V50.6853C96 25.2343 75.6148 4.08747 50.159 4.00649V4.00026Z" fill="#FB7555" stroke="#C43E20" stroke-width="2"/>
<path d="M32.8261 36.5833H67.3268C68.0841 36.5821 68.824 36.3567 69.4534 35.9356C70.0827 35.5144 70.5732 34.9164 70.8631 34.2168C71.1529 33.5172 71.2291 32.7475 71.082 32.0047C70.9349 31.2619 70.5711 30.5793 70.0365 30.043C69.3181 29.3238 68.3434 28.9194 67.3268 28.9187H32.8261C31.8108 28.9187 30.8328 29.3236 30.1164 30.0399C29.7607 30.3958 29.4786 30.8182 29.2862 31.2831C29.0938 31.748 28.9949 32.2463 28.9951 32.7494C28.9947 33.2527 29.0935 33.7512 29.2859 34.2163C29.4782 34.6815 29.7603 35.1041 30.1161 35.4602C30.4719 35.8162 30.8943 36.0987 31.3593 36.2914C31.8243 36.4841 32.3228 36.5833 32.8261 36.5833ZM67.3268 63.417H32.8261C31.8108 63.417 30.8328 63.8219 30.1164 64.5382C29.7604 64.894 29.478 65.3164 29.2854 65.7813C29.0927 66.2462 28.9935 66.7445 28.9935 67.2478C28.9935 67.751 29.0927 68.2493 29.2854 68.7143C29.478 69.1792 29.7604 69.6016 30.1164 69.9573C30.8328 70.6767 31.8108 71.0816 32.8261 71.0816H67.3268C68.3426 71.0808 69.3165 70.6769 70.0348 69.9587C70.7531 69.2405 71.157 68.2666 71.1578 67.2509C71.1582 66.7476 71.0594 66.2491 70.8671 65.784C70.6747 65.3189 70.3926 64.8962 70.0368 64.5401C69.681 64.1841 69.2586 63.9016 68.7936 63.7089C68.3286 63.5162 67.8301 63.417 67.3268 63.417ZM78.826 46.1663H21.3269C20.5684 46.1654 19.8266 46.3896 19.1956 46.8107C18.5646 47.2318 18.0729 47.8306 17.7827 48.5315C17.4925 49.2323 17.4168 50.0035 17.5654 50.7473C17.714 51.4911 18.08 52.1741 18.6172 52.7097C19.3336 53.4291 20.3085 53.8309 21.3269 53.8309H78.826C79.8445 53.8309 80.8193 53.4291 81.5357 52.7097C81.892 52.3541 82.1746 51.9317 82.3676 51.4668C82.5605 51.0019 82.6599 50.5035 82.6601 50.0002C82.6601 48.9849 82.2552 48.0069 81.5388 47.2906C81.1829 46.935 80.7604 46.6529 80.2955 46.4605C79.8306 46.2681 79.3323 46.1692 78.8291 46.1694L78.826 46.1663Z" fill="white"/>
</svg>
