<svg width="16" viewBox="0 0 28 32" fill="white" xmlns="http://www.w3.org/2000/svg">
<path d="M27 1.99977H19.5L18.9125 0.831017C18.788 0.581151 18.5963 0.370969 18.3589 0.224116C18.1216 0.0772632 17.8479 -0.000433388 17.5688 -0.000233183H10.425C10.1465 -0.00130384 9.87331 0.0761031 9.63675 0.223119C9.4002 0.370135 9.20985 0.580813 9.0875 0.831017L8.5 1.99977H1C0.734784 1.99977 0.48043 2.10512 0.292893 2.29266C0.105357 2.4802 0 2.73455 0 2.99977L0 4.99977C0 5.26498 0.105357 5.51934 0.292893 5.70687C0.48043 5.89441 0.734784 5.99977 1 5.99977H27C27.2652 5.99977 27.5196 5.89441 27.7071 5.70687C27.8946 5.51934 28 5.26498 28 4.99977V2.99977C28 2.73455 27.8946 2.4802 27.7071 2.29266C27.5196 2.10512 27.2652 1.99977 27 1.99977V1.99977ZM3.325 29.1873C3.3727 29.9489 3.70885 30.6637 4.26504 31.1862C4.82122 31.7088 5.55562 31.9997 6.31875 31.9998H21.6812C22.4444 31.9997 23.1788 31.7088 23.735 31.1862C24.2911 30.6637 24.6273 29.9489 24.675 29.1873L26 7.99977H2L3.325 29.1873Z"/>
<defs>
<clipPath id="clip0">
<rect width="28" height="32" fill="white"/>
</clipPath>
</defs>
</svg>
