<svg width="100" height="100" viewBox="0 0 100 100" fill="none" xmlns="http://www.w3.org/2000/svg">
<g clip-path="url(#clip0)">
<path d="M60.4652 54.1627L53.4885 3H52.9675C27.5983 3.07406 7.05087 23.6215 6.97681 48.9906V49.5116L60.4652 54.1627Z" fill="#ED6C47"/>
<path d="M54.0092 3H53.4883V49.5116L76.7441 58.814L99.9999 49.5116V48.9907C99.9258 23.6215 79.3784 3.07406 54.0092 3Z" fill="#FF8F6B"/>
<path d="M100 49.5116V50.0232C99.9273 75.3981 79.375 95.9504 54.0001 96.0232H52.9768C27.6019 95.9504 7.04962 75.3981 6.97681 50.0232V49.5116H100Z" fill="#D35230"/>
<path opacity="0.1" d="M55.8141 25.8605V75.4884C55.8025 77.2128 54.7575 78.762 53.1629 79.4186C52.6552 79.6333 52.1095 79.744 51.5582 79.7441H17.9536C17.3024 79 16.6746 78.2093 16.0931 77.4186C10.1682 69.5148 6.96915 59.9012 6.97686 50.0232V49C6.96327 40.0903 9.56719 31.3728 14.4652 23.9302C14.9769 23.1395 15.5117 22.3488 16.0931 21.6046H51.5582C53.9013 21.6224 55.7964 23.5174 55.8141 25.8605Z" fill="black"/>
<path opacity="0.2" d="M53.4883 28.1861V77.814C53.4882 78.3653 53.3775 78.911 53.1627 79.4187C52.5061 81.0132 50.9569 82.0583 49.2325 82.0698H20.0697C19.3339 81.3228 18.6279 80.547 17.9534 79.7442C17.3022 79.0001 16.6743 78.2094 16.0929 77.4187C10.168 69.5149 6.96891 59.9013 6.97662 50.0233V49.0001C6.96302 40.0904 9.56694 31.3729 14.465 23.9303H49.2325C51.5755 23.948 53.4706 25.8431 53.4883 28.1861Z" fill="black"/>
<path opacity="0.2" d="M53.4885 28.186V73.1627C53.4708 75.5057 51.5757 77.4008 49.2327 77.4185H16.0931C10.1682 69.5147 6.96915 59.9012 6.97686 50.0232V48.9999C6.96327 40.0902 9.56719 31.3728 14.4652 23.9302H49.2326C51.5757 23.9478 53.4708 25.8429 53.4885 28.186Z" fill="black"/>
<path opacity="0.2" d="M51.1629 28.186V73.1627C51.1452 75.5057 49.2502 77.4008 46.9071 77.4185H16.0931C10.1682 69.5147 6.96915 59.9012 6.97686 50.0232V48.9999C6.96327 40.0902 9.56719 31.3728 14.4652 23.9302H46.9071C49.2502 23.9478 51.1452 25.8429 51.1629 28.186Z" fill="black"/>
<path d="M4.26277 23.9303H46.9C49.2543 23.9303 51.1628 25.8388 51.1628 28.1931V70.8303C51.1628 73.1846 49.2543 75.0931 46.9 75.0931H4.26277C1.90854 75.0931 0 73.1846 0 70.8303V28.1931C0 25.8388 1.90854 23.9303 4.26277 23.9303Z" fill="url(#paint0_linear)"/>
<path d="M26.0465 35.3C28.822 35.1127 31.5737 35.919 33.8093 37.5745C35.674 39.2392 36.6703 41.6683 36.5116 44.1628C36.5421 45.8969 36.08 47.6041 35.1791 49.0861C34.267 50.5426 32.9529 51.704 31.3953 52.4303C29.6147 53.2584 27.668 53.6673 25.7046 53.6256H20.3116V63.6489H14.7883V35.3H26.0465ZM20.307 49.2954H25.0605C26.5675 49.4061 28.0627 48.9601 29.2628 48.0419C30.2555 47.0897 30.7757 45.7469 30.6838 44.3745C30.6838 41.2505 28.8682 39.6884 25.2373 39.6884H20.307V49.2954H20.307Z" fill="white"/>
</g>
<defs>
<linearGradient id="paint0_linear" x1="8.88802" y1="20.5994" x2="42.2748" y2="78.424" gradientUnits="userSpaceOnUse">
<stop stop-color="#CA4C28"/>
<stop offset="0.5" stop-color="#C5401E"/>
<stop offset="1" stop-color="#B62F14"/>
</linearGradient>
<clipPath id="clip0">
<rect width="100" height="100" fill="white"/>
</clipPath>
</defs>
</svg>
