<svg width="100" height="100" viewBox="0 0 100 100" fill="none" xmlns="http://www.w3.org/2000/svg">
<path d="M17 0H71L95 25V87.5C95 90.8152 93.7357 93.9946 91.4853 96.3388C89.2348 98.683 86.1826 100 83 100H17C13.8174 100 10.7652 98.683 8.51472 96.3388C6.26428 93.9946 5 90.8152 5 87.5V12.5C5 9.18479 6.26428 6.00537 8.51472 3.66117C10.7652 1.31696 13.8174 0 17 0V0Z" fill="#7248B9"/>
<path d="M95 25H83C79.8174 25 76.7652 23.683 74.5147 21.3388C72.2643 18.9946 71 15.8152 71 12.5V0L95 25Z" fill="#56368A"/>
<path d="M27.6098 82C24.9756 82 23 80 23 77.3333C23 74.6667 24.9756 72.6667 27.6098 72.6667C30.2439 72.6667 32.2195 74.6667 32.2195 77.3333C31.8902 79.6667 29.9146 82 27.6098 82ZM27.6098 63.6667C24.9756 63.6667 23 61.6667 23 59C23 56.3333 24.9756 54.3333 27.6098 54.3333C30.2439 54.3333 32.2195 56.3333 32.2195 59C32.2195 61.6667 29.9146 63.6667 27.6098 63.6667ZM27.6098 45.3333C24.9756 45.3333 23 43.3333 23 40.6667C23 38 24.9756 36 27.6098 36C30.2439 36 32.2195 38 32.2195 40.6667C31.8902 43.3333 29.9146 45.3333 27.6098 45.3333ZM77 81H39.4634V73.3333H77V81V81ZM77 63H39.4634V55.3333H77V63V63ZM77 44.6667H39.4634V37H77V44.6667V44.6667Z" fill="white"/>
</svg>
