<svg width="100" height="100" viewBox="0 0 100 100" fill="none" xmlns="http://www.w3.org/2000/svg">
<path d="M78.4405 4H48.3879V49.31H96V21.5375C96 11.8775 88.1702 4 78.4405 4Z" fill="#287EFF"/>
<path d="M96 49.3098H48.3879V95.9998H78.4405C88.1126 95.9998 96 88.1223 96 78.4623V49.3098V49.3098Z" fill="#0258ED"/>
<path d="M48.388 4H21.5595C11.8874 4 4 11.8775 4 21.5375V78.4625C4 88.1225 11.8874 96 21.5595 96H48.388V4Z" fill="#0246CC"/>
<path d="M34.6858 59.3725H22.0199C20.0625 59.3725 18.5081 57.82 18.5081 55.865V43.215C18.5081 41.26 20.0625 39.7075 22.0199 39.7075H34.6858C36.6432 39.7075 38.1977 41.26 38.1977 43.215V55.865C38.1977 57.82 36.5857 59.3725 34.6858 59.3725Z" fill="white"/>
<path d="M62.9538 17.8H75.6196C77.5771 17.8 79.1315 19.3525 79.1315 21.3075V33.9575C79.1315 35.9125 77.5771 37.465 75.6196 37.465H62.9538C60.9963 37.465 59.4419 35.9125 59.4419 33.9575V21.3075C59.4419 19.3525 61.0539 17.8 62.9538 17.8Z" fill="white"/>
<path d="M62.9538 62.765H75.6196C77.5771 62.765 79.1315 64.3175 79.1315 66.2725V78.9225C79.1315 80.8775 77.5771 82.43 75.6196 82.43H62.9538C60.9963 82.43 59.4419 80.8775 59.4419 78.9225V66.2725C59.4419 64.3175 61.0539 62.765 62.9538 62.765Z" fill="white"/>
<path d="M67.0502 24.1772L29.03 51.6387L31.7627 55.4126L69.783 27.9512L67.0502 24.1772Z" fill="white"/>
<path d="M31.749 43.4906L28.8862 47.1672L65.744 75.7949L68.6068 72.1183L31.749 43.4906Z" fill="white"/>
</svg>
