<svg width="100" height="100" viewBox="0 0 100 100" fill="none" xmlns="http://www.w3.org/2000/svg">
<path d="M96.8505 47.2016L54.14 4.17106L50 0L17.8492 32.3917L3.14946 47.2016C2.41342 47.9441 2 48.9506 2 49.9999C2 51.0493 2.41342 52.0558 3.14946 52.7982L32.5228 82.3917L50 99.9999L82.1508 67.6082L82.6486 67.1066L96.8505 52.7982C97.5866 52.0558 98 51.0493 98 49.9999C98 48.9506 97.5866 47.9441 96.8505 47.2016ZM50 64.7834L35.3265 49.9999L50 35.2164L64.6735 49.9999L50 64.7834Z" fill="#2684FF"/>
<path d="M50.0005 35.2165C45.3854 30.5664 42.7841 24.2654 42.7645 17.6895C42.7448 11.1136 45.3085 4.79696 49.8957 0.118896L17.7842 32.4578L35.2614 50.066L50.0005 35.2165Z" fill="url(#paint0_linear)"/>
<path d="M64.7133 49.9606L50.0005 64.7837C52.2965 67.0955 54.1179 69.8405 55.3606 72.8618C56.6032 75.8831 57.2428 79.1215 57.2428 82.3919C57.2428 85.6623 56.6032 88.9007 55.3606 91.922C54.1179 94.9433 52.2965 97.6883 50.0005 100L82.1906 67.5688L64.7133 49.9606Z" fill="url(#paint1_linear)"/>
<defs>
<linearGradient id="paint0_linear" x1="47.3802" y1="20.2614" x2="26.7367" y2="40.7514" gradientUnits="userSpaceOnUse">
<stop offset="0.18" stop-color="#0052CC"/>
<stop offset="1" stop-color="#2684FF"/>
</linearGradient>
<linearGradient id="paint1_linear" x1="1298.33" y1="3066.34" x2="2009.15" y2="2609.08" gradientUnits="userSpaceOnUse">
<stop offset="0.18" stop-color="#0052CC"/>
<stop offset="1" stop-color="#2684FF"/>
</linearGradient>
</defs>
</svg>
