<svg width="100" height="100" viewBox="0 0 100 100" fill="none" xmlns="http://www.w3.org/2000/svg">
<path fill-rule="evenodd" clip-rule="evenodd" d="M37.7313 4C32.6457 4.00375 28.5298 8.12265 28.5336 13.1981C28.5298 18.2736 32.6495 22.3925 37.7351 22.3962H46.9366V13.2019C46.9404 8.1264 42.8207 4.0075 37.7313 4C37.7351 4 37.7351 4 37.7313 4V4ZM37.7313 28.5333H13.2015C8.11588 28.5371 3.99625 32.656 4.00001 37.7315C3.99249 42.8069 8.11212 46.9258 13.1978 46.9333H37.7313C42.817 46.9296 46.9366 42.8107 46.9328 37.7352C46.9366 32.656 42.817 28.5371 37.7313 28.5333V28.5333Z" fill="#36C5F0"/>
<path fill-rule="evenodd" clip-rule="evenodd" d="M96.0003 37.7315C96.0041 32.656 91.8844 28.5371 86.7988 28.5333C81.7131 28.5371 77.5935 32.656 77.5973 37.7315V46.9333H86.7988C91.8844 46.9296 96.0041 42.8107 96.0003 37.7315ZM71.4667 37.7315V13.1981C71.4704 8.1264 67.3546 4.0075 62.2689 4C57.1833 4.00375 53.0636 8.12265 53.0674 13.1981V37.7315C53.0599 42.8069 57.1795 46.9258 62.2651 46.9333C67.3508 46.9296 71.4704 42.8107 71.4667 37.7315Z" fill="#2EB67D"/>
<path fill-rule="evenodd" clip-rule="evenodd" d="M62.2651 95.9999C67.3508 95.9962 71.4704 91.8773 71.4666 86.8018C71.4704 81.7264 67.3508 77.6075 62.2651 77.6037H53.0636V86.8018C53.0599 91.8735 57.1795 95.9924 62.2651 95.9999ZM62.2651 71.4629H86.7987C91.8843 71.4591 96.004 67.3402 96.0002 62.2647C96.0077 57.1893 91.8881 53.0704 86.8025 53.0629H62.2689C57.1832 53.0666 53.0636 57.1855 53.0674 62.261C53.0636 67.3402 57.1795 71.4591 62.2651 71.4629V71.4629Z" fill="#ECB22E"/>
<path fill-rule="evenodd" clip-rule="evenodd" d="M4.00025 62.2648C3.99649 67.3403 8.11612 71.4592 13.2018 71.4629C18.2874 71.4592 22.407 67.3403 22.4033 62.2648V53.0667H13.2018C8.11612 53.0704 3.99649 57.1893 4.00025 62.2648ZM28.5339 62.2648V86.7982C28.5263 91.8737 32.646 95.9926 37.7316 96.0001C42.8173 95.9963 46.9369 91.8774 46.9331 86.8019V62.2723C46.9406 57.1968 42.821 53.0779 37.7354 53.0704C32.646 53.0704 28.5301 57.1893 28.5339 62.2648C28.5339 62.2685 28.5339 62.2648 28.5339 62.2648Z" fill="#E01E5A"/>
</svg>
