<svg width="100" height="100" viewBox="0 0 100 100" fill="none" xmlns="http://www.w3.org/2000/svg">
<g clip-path="url(#clip0)">
<path fill-rule="evenodd" clip-rule="evenodd" d="M88.965 55.9547L50.4244 77.4174L11.1145 55.9547C9.65285 55.1085 7.72966 55.7239 6.96039 57.1855C6.11419 58.6472 6.72961 60.5704 8.19123 61.3396L48.9627 83.6486C49.8859 84.1871 51.0398 84.1871 51.9629 83.6486L91.9651 61.3396C93.4268 60.4934 93.9653 58.6472 93.119 57.1855C92.2728 55.647 90.4266 55.1085 88.965 55.9547ZM15.884 41.7231L50.4244 22.1836L88.888 44.4156C90.3497 45.2618 92.2728 44.7233 93.119 43.2617C93.9653 41.8001 93.4268 39.8769 91.9651 39.0307L51.9629 15.9525C51.0398 15.414 49.8859 15.414 48.8858 15.9525L8.1143 39.0307C6.03726 40.1846 6.03726 43.1848 8.1143 44.4156L48.8858 67.4938C50.3474 68.34 52.2706 67.8015 53.1168 66.3399C53.963 64.8783 53.4245 62.9551 51.9629 62.1089L15.884 41.7231ZM0.0369251 57.8779V42.4924C-0.270784 38.9538 1.34469 35.3382 4.88335 33.3381L45.6549 10.2598C48.655 8.56744 52.2706 8.56744 55.1939 10.3368L95.1961 33.415C98.504 35.3382 100.273 38.9538 99.9656 42.4924V57.8779C100.273 61.4935 98.427 65.186 95.0422 67.0323L55.04 89.3412C52.1168 90.9567 48.655 90.9567 45.7318 89.3412L4.96028 67.0323C1.57547 65.186 -0.193857 61.5704 0.0369251 57.8779Z" fill="#3EB0FD"/>
</g>
<defs>
<clipPath id="clip0">
<rect width="100" height="100" fill="white"/>
</clipPath>
</defs>
</svg>
