<svg width="100" height="100" viewBox="0 0 100 100" fill="none" xmlns="http://www.w3.org/2000/svg">
<g clip-path="url(#clip0)">
<path d="M99.9998 51.1484C99.9998 47.7495 99.7187 44.3323 99.1189 40.9885H51.0026V60.2426H78.5565C77.4131 66.4524 73.7392 71.9457 68.3597 75.4364V87.9296H84.7983C94.4516 79.2211 99.9998 66.3606 99.9998 51.1484Z" fill="#4285F4"/>
<path d="M51.003 99.9999C64.7612 99.9999 76.3638 95.5722 84.8174 87.9294L68.3788 75.4363C63.8052 78.4861 57.9008 80.2131 51.0217 80.2131C37.7134 80.2131 26.4294 71.4128 22.3807 59.5811H5.41724V72.46C14.077 89.3441 31.7153 99.9999 51.003 99.9999V99.9999Z" fill="#34A853"/>
<path d="M22.362 59.5813C20.2251 53.3714 20.2251 46.6472 22.362 40.4374V27.5585H5.41727C-1.81796 41.6867 -1.81796 58.3319 5.41727 72.4602L22.362 59.5813V59.5813Z" fill="#FBBC04"/>
<path d="M51.0029 19.7868C58.2757 19.6766 65.3047 22.3589 70.5718 27.2827L85.136 13.0075C75.9139 4.51952 63.674 -0.147026 51.0029 -4.85269e-05C31.7152 -4.85269e-05 14.077 10.6558 5.41724 27.5583L22.3619 40.4372C26.3919 28.5871 37.6946 19.7868 51.0029 19.7868V19.7868Z" fill="#EA4335"/>
</g>
<defs>
<clipPath id="clip0">
<rect width="100" height="100" fill="white"/>
</clipPath>
</defs>
</svg>
