<svg width="100" height="100" viewBox="0 0 100 100" fill="none" xmlns="http://www.w3.org/2000/svg">
<path d="M96 50C96 24.5949 75.4051 4 50 4C24.5949 4 4 24.5949 4 50C4 75.4051 24.5949 96 50 96C75.4051 96 96 75.4051 96 50Z" fill="black"/>
<path fill-rule="evenodd" clip-rule="evenodd" d="M52.6125 39.6989L56.4289 32.0094L56.4127 32.0105C57.1485 30.5032 57.5115 28.7896 57.3897 26.997C57.0183 21.5272 52.2751 17.3947 46.7955 17.7668C41.3159 18.139 37.175 22.8748 37.5466 28.3447C37.6722 30.1962 38.299 31.8944 39.2855 33.3164L43.8576 40.0423C44.7341 41.6739 46.5105 42.7301 48.4815 42.5962C50.3533 42.4692 51.906 41.3023 52.6125 39.6989Z" fill="#24FF00"/>
<path fill-rule="evenodd" clip-rule="evenodd" d="M60.1886 50.432L69.6768 51.8395L69.6692 51.8206C71.5378 52.0837 73.4977 51.876 75.3734 51.1226C81.0986 48.8227 83.8721 42.3089 81.5683 36.5734C79.2644 30.8382 72.7555 28.053 67.0302 30.3528C65.0619 31.1436 63.4423 32.4324 62.2582 34.0165L56.446 41.4679C56.3785 41.5495 56.3134 41.6331 56.2507 41.7183L56.225 41.7513L56.2273 41.7504C55.1618 43.224 54.8531 45.1974 55.5819 47.0117C56.3781 48.9938 58.2 50.2563 60.1886 50.432Z" fill="#24FF00"/>
<path fill-rule="evenodd" clip-rule="evenodd" d="M52.1771 60.2602L53.1929 68.8279L53.2057 68.8182C53.4193 70.508 54.0642 72.1656 55.1644 73.6211C58.5246 78.0669 64.8591 78.9422 69.3129 75.5759C73.7668 72.2096 74.6532 65.8767 71.2928 61.4309C70.1326 59.8958 68.6178 58.7864 66.9483 58.1304L59.3937 54.9866C57.7435 54.0993 55.6562 54.1942 54.0613 55.3995C52.5121 56.5707 51.8442 58.4749 52.1771 60.2602Z" fill="#24FF00"/>
<path fill-rule="evenodd" clip-rule="evenodd" d="M39.6568 55.3946L31.2136 59.8014L31.2287 59.8109C29.5702 60.6923 28.1136 62.0062 27.044 63.7103C23.779 68.9123 25.3567 75.7808 30.5678 79.0517C35.7791 82.3225 42.6504 80.7569 45.9155 75.555C47.0306 73.7782 47.5808 71.807 47.6144 69.8513L47.8978 60.7904C48.1731 58.7378 47.2584 56.6163 45.3874 55.4418C43.5795 54.3073 41.3636 54.361 39.6568 55.3946Z" fill="#24FF00"/>
<path fill-rule="evenodd" clip-rule="evenodd" d="M40.8652 44.0588L35.7581 39.0584L35.7549 39.0714C34.7508 38.1016 33.4873 37.3737 32.037 37.0089C27.6091 35.8956 23.1155 38.5887 22.0002 43.0245C20.8849 47.4601 23.5701 51.9584 27.9978 53.0717C29.4482 53.4365 30.9059 53.3928 32.2494 53.0132L32.2492 53.0139L38.9151 51.0763C40.4198 50.7924 41.699 49.6618 42.0975 48.0768C42.4786 46.5613 41.9538 45.0309 40.8652 44.0588Z" fill="#24FF00"/>
</svg>
