<svg width="100" height="100" viewBox="0 0 100 100" fill="none" xmlns="http://www.w3.org/2000/svg">
<path d="M75.3502 4H24.6498C13.2452 4 4 13.2452 4 24.6498V75.3502C4 86.7548 13.2452 96 24.6498 96H75.3502C86.7548 96 96 86.7548 96 75.3502V24.6498C96 13.2452 86.7548 4 75.3502 4Z" fill="#FFD02F"/>
<path d="M31.4532 37.2298L22 21H29.5813L47.3645 33.411L37.8177 21H45.399L63.2759 30.356L53.6355 21H61.7783L79 27.9693L61.1231 80H53.6355L63.2759 31.5971L45.399 80H37.8177L47.3645 35.1294L29.5813 80H22L31.4532 37.2298Z" fill="#050038"/>
</svg>
