<svg width="100" height="100" viewBox="0 0 100 100" fill="none" xmlns="http://www.w3.org/2000/svg">
<path fill-rule="evenodd" clip-rule="evenodd" d="M0 76.9447C0 70.5273 5.20207 65.3248 11.6184 65.3248H68.43C74.8468 65.3248 80.0485 70.5258 80.0485 76.9447C80.0485 83.3622 74.8464 88.5647 68.43 88.5647H11.6184C5.20164 88.5647 0 83.3637 0 76.9447V76.9447ZM11.6199 82.5395C14.71 82.5395 17.2147 80.0348 17.2147 76.9447C17.2147 73.8547 14.71 71.35 11.6199 71.35C8.5299 71.35 6.02515 73.8547 6.02515 76.9447C6.02515 80.0348 8.5299 82.5395 11.6199 82.5395ZM68.4285 82.5395C71.5186 82.5395 74.0233 80.0348 74.0233 76.9447C74.0233 73.8547 71.5186 71.35 68.4285 71.35C65.3385 71.35 62.8338 73.8547 62.8338 76.9447C62.8338 80.0348 65.3385 82.5395 68.4285 82.5395Z" fill="#EA4335"/>
<path fill-rule="evenodd" clip-rule="evenodd" d="M13.0688 36.7233C16.841 31.5316 24.1073 30.3803 29.298 34.1519L75.2599 67.5449C80.4512 71.3167 81.6025 78.5817 77.8292 83.7748C74.0572 88.9668 66.7909 90.118 61.6 86.3465L15.6381 52.9532C10.447 49.1817 9.29574 41.9164 13.0688 36.7233V36.7233ZM19.1809 48.0797C21.6807 49.8959 25.1796 49.3418 26.9957 46.842C28.8119 44.3422 28.2578 40.8433 25.758 39.0271C23.2582 37.2109 19.7593 37.765 17.9431 40.2648C16.127 42.7646 16.6811 46.2635 19.1809 48.0797V48.0797ZM65.14 81.471C67.64 83.2872 71.1387 82.7331 72.9548 80.2333C74.771 77.7335 74.2169 74.2348 71.7171 72.4186C69.2173 70.6025 65.7186 71.1566 63.9025 73.6564C62.0863 76.1562 62.6404 79.6549 65.1402 81.471H65.14Z" fill="#FBBC04"/>
<path fill-rule="evenodd" clip-rule="evenodd" d="M47.2831 11.8652C53.3863 9.8821 59.9417 13.222 61.9244 19.3242L79.4804 73.3554C81.4633 79.458 78.1243 86.0125 72.0195 87.9959C65.916 89.979 59.3607 86.6391 57.378 80.5369L39.822 26.5057C37.8393 20.4031 41.1783 13.8488 47.2831 11.8652V11.8652ZM45.5528 24.6454C46.5075 27.584 49.6639 29.1923 52.6026 28.2375C55.5414 27.2825 57.1495 24.1262 56.1947 21.1877C55.2399 18.2489 52.0836 16.6408 49.1448 17.5956C46.2061 18.5504 44.598 21.7067 45.5528 24.6454V24.6454ZM63.1075 78.6734C64.0624 81.6122 67.2188 83.2203 70.1573 82.2655C73.0961 81.3107 74.7041 78.1544 73.7494 75.2159C72.7946 72.2771 69.6383 70.669 66.6997 71.6238C63.761 72.5786 62.1529 75.7349 63.1077 78.6734H63.1075Z" fill="#34A853"/>
<path fill-rule="evenodd" clip-rule="evenodd" d="M90.7068 12.2442C96.775 14.3336 100 20.946 97.9112 27.0127L79.4152 80.7292C77.3259 86.7963 70.7148 90.0215 64.6455 87.9316C58.5777 85.8422 55.3523 79.2298 57.4411 73.1631L75.9373 19.4466C78.0266 13.3795 84.6377 10.1543 90.707 12.2444L90.7068 12.2442ZM81.6339 21.4095C80.6279 24.3311 82.1807 27.5152 85.1023 28.5212C88.0238 29.5272 91.2079 27.9742 92.2137 25.0524C93.2197 22.1311 91.6669 18.9472 88.7454 17.9412C85.8238 16.9352 82.6397 18.488 81.6339 21.4095ZM63.1388 75.1232C62.1328 78.0448 63.6856 81.2288 66.6071 82.2346C69.5287 83.2406 72.7128 81.6878 73.7186 78.7663C74.7246 75.8447 73.1718 72.6606 70.2502 71.6549C67.3287 70.6489 64.1446 72.2016 63.1388 75.1232Z" fill="#4285F4"/>
</svg>
