<svg width="100" height="100" viewBox="0 0 100 100" fill="none" xmlns="http://www.w3.org/2000/svg">
<path d="M87.0758 32.1616C87.0758 31.5406 86.4566 30.9195 85.5917 30.6775L75.1712 26.8352C73.433 26.0878 71.445 26.9616 71.445 28.2037V71.8789C71.445 72.5001 72.0664 73.2475 72.6857 73.4896L83.3603 77.3318C84.9704 77.9529 87.0865 77.0792 87.0865 75.7213V32.1616H87.0758ZM67.5907 16.8979C67.5907 16.2769 66.9715 15.6558 66.1066 15.4136L55.6859 11.5715C53.949 10.8241 51.9595 11.6977 51.9595 12.9398V39.4989C51.9595 40.1198 52.5807 40.8672 53.2016 41.1094L63.8752 44.9517C65.4874 45.5727 67.6014 44.6991 67.6014 43.341V16.8979H67.5907ZM67.5907 64.6683C67.5907 64.0471 66.9715 63.4262 66.1066 63.184L55.6859 59.3416C53.949 58.5943 51.9595 59.4681 51.9595 60.7102V87.2691C51.9595 87.8902 52.5807 88.6376 53.2016 88.8798L63.8752 92.7219C65.4874 93.3433 67.6014 92.4693 67.6014 91.1114V64.6683H67.5907ZM48.1067 70.0054C48.1067 69.3842 47.4857 68.763 46.6224 68.5211L36.201 64.6787C34.4641 63.9314 32.4746 64.8052 32.4746 66.0473V94.3426C32.4746 94.964 33.0956 95.7114 33.7168 95.9527L44.3908 99.7963C46.0014 100.418 48.1172 99.5422 48.1172 98.1863V70.0054H48.1067ZM48.1067 5.60273C48.1067 4.98177 47.4857 4.36059 46.6224 4.11845L36.201 0.276303C34.4641 -0.47107 32.4746 0.402504 32.4746 1.64464V29.9406C32.4746 30.5616 33.0956 31.3089 33.7168 31.5511L44.3908 35.3935C46.0014 36.0144 48.1172 35.1408 48.1172 33.7828V5.60273H48.1067ZM28.6323 6.71866C28.6323 6.09748 28.0111 5.47653 27.148 5.23438L16.7266 1.39202C14.9897 0.64465 13 1.51843 13 2.76057V93.3433C13 93.9647 13.6212 94.7121 14.2424 94.9533L24.9163 98.7948C26.527 99.4162 28.6427 98.5429 28.6427 97.1848V6.71866H28.6323Z" fill="#12343A"/>
</svg>
