<svg width="100" height="100" viewBox="0 0 100 100" fill="none" xmlns="http://www.w3.org/2000/svg">
<path d="M4.57528 57.7437L42.2563 95.4247C32.8479 93.8165 24.1704 89.3282 17.4211 82.5789C10.6718 75.8296 6.18347 67.1521 4.57528 57.7437ZM4 47.5036L52.4964 96C55.3728 95.8562 58.1917 95.4247 60.8955 94.7631L5.23686 39.1045C4.56667 41.8601 4.15263 44.6718 4 47.5036H4ZM7.65305 31.8559L68.1441 92.347C70.3302 91.3977 72.4587 90.3047 74.4722 89.0391L10.9609 25.5278C9.69531 27.5413 8.60227 29.6698 7.65305 31.8559ZM15.0742 19.9763C19.2105 15.18 24.2916 11.2885 30 8.54492C35.7085 5.80138 41.9214 4.26483 48.2506 4.03131C54.5798 3.7978 60.8891 4.87233 66.7842 7.18775C72.6793 9.50317 78.0334 13.0097 82.5118 17.4882C86.9903 21.9666 90.4968 27.3207 92.8122 33.2158C95.1277 39.1109 96.2022 45.4202 95.9687 51.7494C95.7352 58.0786 94.1986 64.2915 91.4551 70C88.7115 75.7084 84.82 80.7895 80.0237 84.9258L15.0742 19.9763Z" fill="#5E6AD2"/>
</svg>
