<svg width="100" height="100" viewBox="0 0 100 100" fill="none" xmlns="http://www.w3.org/2000/svg">
<path d="M99.8748 61.6542C100.226 64.1233 99.8299 66.641 98.7384 68.8834C97.6469 71.1258 95.9095 72.9904 93.7498 74.2375L56.2498 95.9042C54.3496 97.0013 52.194 97.5789 49.9998 97.5789C47.8056 97.5789 45.65 97.0013 43.7498 95.9042L6.2498 74.2375C4.09006 72.9904 2.35275 71.1258 1.26125 68.8834C0.169747 66.641 -0.226034 64.1233 0.124798 61.6542L5.6248 31.6542C6.04458 28.7225 7.49165 26.0351 9.70813 24.0709C10.3373 23.5166 11.0214 23.028 11.7498 22.6125L43.2081 4.40421C45.2502 3.09495 47.6281 2.40597 50.0538 2.42077C52.4795 2.43556 54.8489 3.15347 56.8748 4.48754L88.2498 22.6125C88.6665 22.8209 89.0415 23.0292 89.4165 23.3209C90.7563 24.3096 91.8852 25.5561 92.7366 26.9871C93.5881 28.4182 94.1451 30.0049 94.3748 31.6542L99.8748 61.6542ZM60.1248 16.7792L27.9581 23.4042C26.1665 23.7375 25.8331 26.0709 27.3748 26.9875L50.7081 40.4459C51.6665 40.9875 52.7915 40.7375 53.3331 39.6542L59.9165 24.6542L62.1248 19.5709C62.7915 18.1125 61.6665 16.4459 60.0415 16.7792H60.1248Z" fill="#F3568F"/>
</svg>
