<svg width="100" height="100" viewBox="0 0 100 100" fill="none" xmlns="http://www.w3.org/2000/svg">
<path d="M33.5 98C42.608 98 50 90.832 50 82V66.0001H33.5C24.392 66.0001 17 73.168 17 82C17 90.832 24.392 98 33.5 98Z" fill="#0ACF83"/>
<path d="M17 50.0002C17 41.1682 24.392 34.0002 33.5 34.0002H50V66.0001H33.5C24.392 66.0001 17 58.8322 17 50.0002Z" fill="#A259FF"/>
<path d="M17.0007 18C17.0007 9.168 24.3927 2 33.5007 2H50.0007V34H33.5007C24.3927 34 17.0007 26.832 17.0007 18Z" fill="#F24E1E"/>
<path d="M50 2H66.5C75.608 2 83 9.16799 83 18C83 26.832 75.608 34 66.5 34H50V2Z" fill="#FF7262"/>
<path d="M83 50.0002C83 58.8322 75.608 66.0001 66.5 66.0001C57.392 66.0001 50 58.8322 50 50.0002C50 41.1682 57.392 34.0002 66.5 34.0002C75.608 34.0002 83 41.1682 83 50.0002Z" fill="#1ABCFE"/>
</svg>
