<svg width="100" height="100" viewBox="0 0 100 100" fill="none" xmlns="http://www.w3.org/2000/svg">
<path d="M6.40867 73.7064C5.4365 75.2861 4.34468 77.1191 3.41739 78.5796C2.58738 79.9772 3.03296 81.7796 4.41947 82.6332L23.8628 94.5555C24.5453 94.9753 25.3685 95.1045 26.1474 94.914C26.9264 94.7234 27.5959 94.2291 28.0057 93.5421C28.7835 92.2455 29.7855 90.5615 30.8774 88.7583C38.5799 76.0908 46.3273 77.6407 60.2966 84.2874L79.5755 93.4228C80.3056 93.7691 81.1454 93.8061 81.9033 93.5253C82.6613 93.2446 83.2729 92.67 83.5987 91.9326L92.8568 71.0686C93.5108 69.5784 92.8453 67.8409 91.3611 67.164C87.293 65.2565 79.2015 61.4562 71.9178 57.9541C45.7141 45.2717 23.444 46.0914 6.40867 73.7064Z" fill="url(#paint0_linear)"/>
<path d="M93.5916 26.3575C94.5637 24.7778 95.6556 22.9448 96.5829 21.4843C97.4129 20.0867 96.9673 18.2843 95.5808 17.4307L76.1374 5.50846C75.4494 5.04668 74.5997 4.89037 73.7915 5.07686C72.9833 5.26335 72.2892 5.7759 71.8749 6.49205C71.0971 7.7886 70.095 9.47262 69.0032 11.2759C61.3007 23.9433 53.5532 22.3934 39.5839 15.7467L20.365 6.65598C19.6348 6.30969 18.795 6.27271 18.0371 6.55348C17.2791 6.83424 16.6675 7.40882 16.3417 8.14627L7.08365 29.0103C6.42956 30.5004 7.09511 32.2379 8.57929 32.9148C12.6474 34.8224 20.7389 38.6226 28.0226 42.1248C54.2861 54.7922 76.5562 53.9427 93.5916 26.3575Z" fill="url(#paint1_linear)"/>
<defs>
<linearGradient id="paint0_linear" x1="92.3333" y1="100.71" x2="70.6908" y2="50.881" gradientUnits="userSpaceOnUse">
<stop offset="0.18" stop-color="#0052CC"/>
<stop offset="1" stop-color="#2684FF"/>
</linearGradient>
<linearGradient id="paint1_linear" x1="7.66695" y1="-0.661319" x2="29.344" y2="49.1923" gradientUnits="userSpaceOnUse">
<stop offset="0.18" stop-color="#0052CC"/>
<stop offset="1" stop-color="#2684FF"/>
</linearGradient>
</defs>
</svg>
