<svg width="100" height="100" viewBox="0 0 100 100" fill="none" xmlns="http://www.w3.org/2000/svg">
<path d="M85.2989 4H14.7011C12.6633 4.00338 10.7096 4.81176 9.26664 6.24858C7.82372 7.6854 7.00886 9.63392 7 11.6686V88.334C7.00954 90.3682 7.8247 92.3161 9.26755 93.7523C10.7104 95.1886 12.6637 95.9966 14.7011 96H85.2989C87.3363 95.9966 89.2896 95.1886 90.7325 93.7523C92.1753 92.3161 92.9905 90.3682 93 88.334V84.7534C92.871 80.1553 92.742 70.5728 92.742 66.2272C92.742 63.8006 90.9464 61.7553 88.6347 61.7553C86.0677 61.7553 84.3985 63.288 83.1136 64.5657C79.2644 68.0175 73.4904 68.6563 68.4853 67.7599C66.1737 67.2498 63.9911 66.611 62.1928 65.4621C56.6743 62.268 53.0805 56.2608 53.0805 49.8725C53.0805 43.4841 56.6743 37.6058 62.1928 34.2829C64.1201 33.134 66.3001 32.4951 68.4827 31.9851C73.3589 31.0887 79.2669 31.7275 83.1162 35.1793C84.5274 36.457 86.1967 37.9871 88.6373 37.9871C90.9464 37.9871 92.742 35.9443 92.742 33.5178C92.742 29.301 92.871 19.5896 93 14.989V11.666C92.9898 9.63223 92.1743 7.68503 90.7315 6.24932C89.2888 4.81362 87.3358 4.00595 85.2989 4.00258V4Z" fill="#F46A54"/>
</svg>
