<svg width="101" height="100" viewBox="0 0 101 100" fill="none" xmlns="http://www.w3.org/2000/svg">
<path d="M69.3684 96H11.2632C7.2567 95.9883 4.01173 92.7433 4 88.7368V11.2632C4.01173 7.25669 7.2567 4.01172 11.2632 4H88.7368C92.7433 4.01172 95.9883 7.25669 96 11.2632V69.3684L82.5 82.5L69.3684 96Z" fill="#F5BA14"/>
<path d="M69.3684 96V76.6316C69.3673 72.6213 72.6173 69.3695 76.6276 69.3684C76.6289 69.3684 76.6302 69.3684 76.6316 69.3684H96L69.3684 96Z" fill="#FADC87"/>
<path d="M50.0002 18.5264C37.9677 18.5249 28.2122 28.278 28.2107 40.3106C28.2097 48.0957 32.363 55.2898 39.1055 59.1819V76.6316H43.9476V81.4737H57.2634V76.6316H62.1055V58.4314C72.1112 51.7465 74.8032 38.2162 68.1183 28.2106C64.0754 22.1592 57.2779 18.5259 50.0002 18.5264ZM57.2634 71.7895H43.9476V66.9474H57.2634V71.7895V71.7895ZM57.2634 55.6229V62.1053H43.9476V56.1435C35.2022 52.8027 30.8209 43.0049 34.1617 34.2595C37.5025 25.5142 47.3003 21.1329 56.0457 24.4737C64.7911 27.8145 69.1724 37.6123 65.8315 46.3577C64.2745 50.4338 61.2055 53.7524 57.2634 55.6229Z" fill="white"/>
</svg>
