<svg width="100" height="100" viewBox="0 0 100 100" fill="none" xmlns="http://www.w3.org/2000/svg">
<path d="M98.2194 67.9597C97.6849 65.6329 96.5895 63.6034 98.0028 61.3228C100.233 57.7225 99.7853 52.2303 99.2145 51.9419C97.9891 51.3219 84.9969 57.7067 82.1613 57.189C75.1564 55.9095 76.4428 55.0827 67.0137 52.9764C63.245 52.1339 63.7686 52.6319 62.9369 52.0089C62.5885 51.7854 62.2292 51.5807 61.8592 51.3957C67.3582 50.3829 71.6269 49.2274 74.8464 48.2333V47.6703H39.4005V50.5482L17.3149 50.378C16.7903 50.5797 16.2696 50.7933 15.7539 51.0167C12.1495 52.5807 8.78732 54.6585 5.77355 57.188C1.27453 60.6811 0.239099 64.1782 0.0412646 66.0847C-0.0414125 66.8839 0.0225639 67.4036 0.0412646 67.5266L0.0461859 67.5551C0.0461859 67.5551 6.26863 69.6329 6.26863 70.7569C6.26863 70.8022 6.25977 70.8484 6.24303 70.8937H47.4674V67.9597H98.2194Z" fill="url(#paint0_linear)"/>
<path d="M98.2194 67.9597H47.4675V70.8947H6.24305C5.83852 71.9872 0.820801 73.2126 0.820801 73.2126C4.33064 77.6457 15.2214 81.7805 17.9724 81.7805C20.7369 81.8926 23.5052 81.6832 26.2214 81.1565C26.4005 81.1338 26.5823 81.1496 26.7549 81.2028C26.6476 81.2943 26.5934 81.3484 26.5934 81.3484C26.5934 81.3484 29.1801 87.3189 34.7755 88.5059C37.557 89.2067 40.4566 89.3091 43.2814 88.8071C44.3116 88.8209 45.3394 88.7048 46.3405 88.4616C46.4467 86.9397 46.1773 85.415 45.556 84.0217C49.5088 84.2411 53.4734 84.0738 57.3936 83.5207C72.3612 81.2795 79.745 77.7303 82.1614 77.2589C84.5777 76.7864 98.374 83.3081 99.2145 81.7825C100.056 80.2559 96.182 76.9154 97.9871 72.4065C98.6495 70.7539 98.5285 69.3071 98.2194 67.9597V67.9597Z" fill="url(#paint1_linear)"/>
<path d="M6.17612 39.6191C6.23517 39.5285 6.26765 39.439 6.26765 39.3504H60.9133V36.4232H98.183C98.4242 37.4262 98.5738 38.4833 98.3799 39.6388C98.2993 40.1135 98.1677 40.5782 97.9871 41.0246C96.181 45.5335 100.056 48.874 99.2145 50.3996C98.374 51.9262 84.5777 45.4045 82.1614 45.876C80.9901 46.1053 78.6515 47.0571 74.8464 48.2323V47.6703H39.4005V50.5482L17.3759 50.3533C13.9104 49.8907 4.11411 45.9921 0.820801 41.8307C0.820801 41.8307 5.46253 40.6978 6.17612 39.6191V39.6191Z" fill="url(#paint2_linear)"/>
<path d="M37.9851 11C39.2676 11 58.058 14.9941 59.6859 17.5935C60.3948 18.9437 61.541 20.0132 62.9369 20.627C63.7686 21.25 63.245 20.752 67.0147 21.5945C76.4428 23.7008 75.1564 24.5276 82.1613 25.8071C84.997 26.3248 97.9891 19.94 99.2145 20.561C99.3621 20.6348 99.5009 21.0551 99.5875 21.6988C99.6958 22.499 99.7243 23.6457 99.5875 24.9045C99.4084 26.565 98.9438 28.4213 98.0029 29.9409C96.621 32.1713 97.6377 34.1614 98.183 36.4232H60.9133V39.3504H6.26763C6.26861 38.252 0.0461723 36.1742 0.0461723 36.1742C0.0461723 36.1742 -0.896741 30.9872 5.77353 25.8071C12.4438 20.628 17.4359 18.1683 23.0452 17.8809L30.5363 17.5935C30.5363 17.5935 35.4192 11 37.9851 11Z" fill="url(#paint3_linear)"/>
<path d="M12.6919 62.752C12.6919 60.1664 14.7706 58.0857 17.3513 58.0857C19.933 58.0857 22.0118 60.1664 22.0118 62.752C22.0118 63.364 21.8912 63.9699 21.6571 64.5353C21.4229 65.1007 21.0796 65.6144 20.6469 66.0471C20.2142 66.4798 19.7005 66.823 19.1351 67.0572C18.5697 67.2914 17.9638 67.4119 17.3518 67.4119C16.7399 67.4119 16.1339 67.2914 15.5686 67.0572C15.0032 66.823 14.4895 66.4798 14.0568 66.0471C13.624 65.6144 13.2808 65.1007 13.0466 64.5353C12.8124 63.9699 12.6919 63.364 12.6919 62.752V62.752Z" fill="white"/>
<path d="M12.6919 31.1418C12.6919 28.5562 14.7706 26.4755 17.3513 26.4755C19.933 26.4755 22.0118 28.5562 22.0118 31.1418C22.0118 31.7538 21.8912 32.3597 21.6571 32.9251C21.4229 33.4905 21.0796 34.0042 20.6469 34.4369C20.2142 34.8696 19.7005 35.2129 19.1351 35.447C18.5697 35.6812 17.9638 35.8018 17.3518 35.8018C16.7399 35.8018 16.1339 35.6812 15.5686 35.447C15.0032 35.2129 14.4895 34.8696 14.0568 34.4369C13.624 34.0042 13.2808 33.4905 13.0466 32.9251C12.8124 32.3597 12.6919 31.7538 12.6919 31.1418V31.1418Z" fill="white"/>
<path d="M38.6624 25.6152L45.2539 25.9725L48.8228 26.1939C53.1722 26.5768 57.496 27.2008 61.7765 28.062C68.5417 29.5211 75.1097 31.7784 81.3425 34.7865L84.1476 36.0345C84.4183 36.1457 84.7234 36.1369 84.9872 36.0089C85.1176 35.9463 85.2333 35.8567 85.3267 35.7461C85.42 35.6355 85.4888 35.5063 85.5285 35.3672C85.6374 35.0814 85.6368 34.7654 85.5269 34.48C85.417 34.1946 85.2055 33.9599 84.933 33.8209L82.1259 32.5709C75.762 29.5034 69.0562 27.2025 62.1496 25.7166C57.7893 24.8396 53.3848 24.2048 48.9547 23.817L38.7598 23.2353L36.4842 23.1201C36.2847 23.1295 36.0909 23.1894 35.9209 23.294C35.7508 23.3987 35.6101 23.5447 35.5118 23.7185C35.311 24.0709 35.3041 24.502 35.4941 24.8603C35.5088 24.8918 35.5393 24.9587 35.5826 25.0571C35.6574 25.2264 35.7411 25.4223 35.8316 25.6408C36.1073 26.3085 36.361 26.985 36.5925 27.6693C36.9597 28.7346 37.2508 29.8246 37.4635 30.9311C37.5309 31.2954 37.5838 31.6621 37.622 32.0306C37.6446 33.7088 37.435 35.3822 36.999 37.003C36.8238 37.7845 36.6181 38.6063 36.3897 39.4567C36.1156 40.4743 35.8222 41.4867 35.5098 42.4932L35.1122 43.7353C35.0089 44.0226 35.0152 44.338 35.13 44.6209C35.2448 44.9039 35.4599 45.1345 35.7342 45.2687C35.8694 45.3209 36.0141 45.3441 36.1588 45.3367C36.3035 45.3293 36.4451 45.2916 36.5743 45.226C36.7035 45.1604 36.8174 45.0683 36.9087 44.9558C37 44.8433 37.0667 44.7128 37.1043 44.5729L37.5196 43.2737C37.8287 42.2766 38.1378 41.2176 38.4271 40.1428C38.6643 39.2589 38.8779 38.4026 39.062 37.5837C39.5718 35.687 39.7992 33.7254 39.7362 31.7628C39.6935 31.3396 39.6309 30.9029 39.5482 30.4528C39.3137 29.2222 38.991 28.0101 38.5826 26.8258C38.4422 26.4104 38.2942 25.9976 38.1387 25.5876L38.6624 25.6152Z" fill="#974DFF"/>
<path d="M38.6761 39.3199C38.8158 38.7635 38.9444 38.2205 39.0619 37.691C39.5727 35.7688 39.7991 33.7825 39.7361 31.7943C39.6934 31.3665 39.6308 30.9246 39.5481 30.4686C39.3139 29.2225 38.991 27.9951 38.5826 26.7953C38.4389 26.3642 38.2902 25.9449 38.1387 25.5414L45.2548 25.9302L48.8237 26.1556C53.1733 26.543 57.4977 27.1746 61.7765 28.0473C68.5471 29.5266 75.116 31.813 81.3424 34.8573L84.1475 36.1211C84.4192 36.2333 84.7263 36.2235 84.99 36.0945C85.1207 36.0309 85.2363 35.9401 85.3291 35.8282C85.4219 35.7164 85.4899 35.5861 85.5284 35.4459C85.7548 34.8475 85.4989 34.1753 84.933 33.879L82.1259 32.6132C75.7688 29.5081 69.062 27.1771 62.1495 25.6703C57.7912 24.7825 53.3857 24.1398 48.9546 23.7461L36.6485 23.0483L36.4841 23.0404C36.0767 23.065 35.7085 23.2953 35.5078 23.6516C35.3079 24.0079 35.303 24.442 35.494 24.8032C35.5244 24.8694 35.5539 24.936 35.5826 25.003L35.8316 25.5936C36.0914 26.2294 36.3503 26.9223 36.5924 27.6477C36.9602 28.7275 37.2513 29.832 37.4635 30.9528C37.5333 31.3406 37.5865 31.7117 37.6219 32.066C37.6446 33.7648 37.4349 35.4597 36.9989 37.1024C36.8414 37.8111 36.6613 38.5542 36.4605 39.3199H38.6761Z" fill="#F1A5FF"/>
<path d="M29.9872 26.0069L30.0896 26.1821L30.3789 26.7047C30.6983 27.3025 30.9935 27.9129 31.2638 28.5344C31.7254 29.5679 32.0817 30.6447 32.3277 31.75C32.4449 32.2844 32.5069 32.8297 32.5138 33.3769C32.4774 34.8988 32.1928 36.4045 31.6712 37.8346C31.4971 38.343 31.3013 38.8438 31.0846 39.3356L30.8947 39.748L30.8307 39.8769C30.702 40.1225 30.6688 40.4071 30.7375 40.6757C30.8062 40.9443 30.972 41.178 31.2027 41.3317C31.4301 41.4695 31.7047 41.5039 31.9586 41.4262C32.0844 41.3879 32.2006 41.3237 32.2998 41.2375C32.399 41.1514 32.479 41.0453 32.5344 40.9262C32.6004 40.7982 32.7096 40.5728 32.8455 40.2628C33.0699 39.7559 33.2943 39.1919 33.5029 38.5846C34.1084 36.9131 34.4349 35.1534 34.4695 33.376C34.4626 32.6702 34.3848 31.9665 34.2352 31.2765C33.9587 30.0197 33.5551 28.7942 33.0305 27.6191C32.7366 26.9419 32.4151 26.2769 32.0669 25.626C31.9238 25.3563 31.7742 25.0901 31.6181 24.8277C31.5544 24.713 31.4671 24.6131 31.3619 24.5347C31.2567 24.4563 31.136 24.4012 31.0079 24.373C30.749 24.3149 30.4783 24.371 30.2628 24.5256C30.043 24.6956 29.8935 24.9405 29.8427 25.2137C29.7919 25.4869 29.8433 25.7692 29.9872 26.0069V26.0069Z" fill="#974DFF"/>
<path d="M38.6623 57.3632L45.2548 57.7205L48.8227 57.943C53.1719 58.3252 57.4964 58.9485 61.7765 59.8101C68.5412 61.2697 75.1101 63.5266 81.3424 66.5345L84.1475 67.7825C84.4182 67.8938 84.7233 67.8849 84.9871 67.7569C85.1176 67.6943 85.2333 67.6047 85.3266 67.4941C85.4199 67.3835 85.4887 67.2544 85.5284 67.1152C85.6373 66.8294 85.6367 66.5134 85.5268 66.228C85.4169 65.9426 85.2054 65.7079 84.933 65.569L82.1259 64.319C75.7619 61.2514 69.0561 58.9506 62.1495 57.4646C57.7893 56.5877 53.3847 55.9528 48.9546 55.565L38.7597 54.9833L36.4841 54.8682C36.0786 54.8878 35.7125 55.1132 35.5117 55.4666C35.3109 55.819 35.304 56.2501 35.494 56.6083C35.5088 56.6398 35.5393 56.7067 35.5826 56.8052C35.6574 56.9745 35.741 57.1703 35.8316 57.3888C36.1072 58.0566 36.3609 58.7331 36.5924 59.4174C36.9597 60.4826 37.2508 61.5726 37.4635 62.6792C37.5309 63.0434 37.5837 63.4102 37.6219 63.7786C37.6446 65.4569 37.4349 67.1302 36.9989 68.751C36.8237 69.5325 36.619 70.3544 36.3897 71.2048C36.1155 72.2224 35.8222 73.2347 35.5097 74.2412L35.1121 75.4833C35.0085 75.7708 35.0147 76.0864 35.1295 76.3696C35.2443 76.6527 35.4596 76.8836 35.7341 77.0178C35.8693 77.0698 36.0139 77.0928 36.1585 77.0853C36.3032 77.0779 36.4446 77.0401 36.5737 76.9745C36.8345 76.8416 37.0274 76.6044 37.1042 76.3219L37.5196 75.0227C37.8415 73.9845 38.1441 72.9403 38.4271 71.8908C38.6652 71.0079 38.8788 70.1506 39.0619 69.3317C39.5717 67.4351 39.7991 65.4745 39.7361 63.5109C39.6935 63.0883 39.6308 62.652 39.5481 62.2018C39.3138 60.9712 38.9911 59.7591 38.5826 58.5749C38.4423 58.1594 38.2943 57.7466 38.1387 57.3367L38.6623 57.3632Z" fill="#373FFF"/>
<path d="M38.6751 70.8937C38.8149 70.3438 38.9438 69.8074 39.062 69.2844C39.5721 67.3879 39.7989 65.4264 39.7352 63.4636C39.6925 63.041 39.6302 62.6046 39.5482 62.1545C39.3129 60.9232 38.9901 59.7116 38.5826 58.5275C38.4379 58.1024 38.2893 57.688 38.1377 57.2884L45.2549 57.6732L48.8228 57.8947C53.1722 58.2775 57.496 58.9016 61.7765 59.7628C68.5416 61.2223 75.1095 63.4796 81.3425 66.4872L84.1476 67.7352C84.4183 67.8464 84.7234 67.8376 84.9872 67.7096C85.1173 67.6465 85.2327 67.5568 85.3259 67.4462C85.4192 67.3357 85.4882 67.2068 85.5285 67.0679C85.6373 66.782 85.6366 66.4659 85.5265 66.1805C85.4164 65.8951 85.2047 65.6604 84.932 65.5216L82.1249 64.2716C75.7612 61.2035 69.0554 58.9026 62.1486 57.4173C57.7883 56.5403 53.3838 55.9055 48.9537 55.5177L38.7588 54.936L36.4832 54.8209C36.0777 54.8405 35.7116 55.0659 35.5108 55.4193C35.31 55.7716 35.3031 56.2027 35.4931 56.561C35.5078 56.5925 35.5383 56.6594 35.5816 56.7579C35.6564 56.9272 35.7401 57.123 35.8307 57.3415C36.1063 58.0092 36.36 58.6858 36.5915 59.3701C36.9588 60.4353 37.2498 61.5253 37.4625 62.6319C37.5299 62.9961 37.5828 63.3629 37.621 63.7313C37.6436 65.4096 37.434 67.0829 36.998 68.7037C36.8405 69.4045 36.6594 70.1378 36.4596 70.8937H38.6751ZM33.2834 39.3209C33.3576 39.1207 33.4304 38.9153 33.5019 38.7047C34.1082 37.0079 34.435 35.2244 34.4694 33.4242C34.4624 32.7085 34.384 31.9953 34.2352 31.2953C33.9587 30.0215 33.5551 28.7788 33.0305 27.5856C32.7364 26.8998 32.4149 26.226 32.0669 25.5659C31.9242 25.292 31.7742 25.0219 31.6171 24.7559C31.4911 24.5216 31.2687 24.3533 31.0098 24.2953C30.7499 24.2362 30.4773 24.2933 30.2627 24.4498C29.807 24.81 29.6889 25.4518 29.9872 25.9508L30.0895 26.1279L30.3779 26.6585C30.6801 27.2303 30.9822 27.8563 31.2627 28.5138C31.7253 29.562 32.0826 30.6545 32.3277 31.7736C32.4447 32.3162 32.507 32.8692 32.5137 33.4242C32.4773 34.9662 32.1928 36.4923 31.6712 37.9439C31.5139 38.4094 31.3389 38.8687 31.1466 39.3209H33.2834Z" fill="#F1A5FF"/>
<path d="M29.9861 57.755L30.0885 57.9302L30.3778 58.4529C30.6976 59.0504 30.9928 59.6609 31.2627 60.2826C31.7253 61.316 32.0816 62.3928 32.3276 63.4981C32.4448 64.0326 32.5068 64.5779 32.5137 65.1251C32.4763 66.6472 32.1918 68.153 31.6712 69.5838C31.4841 70.1271 31.2843 70.632 31.0845 71.0838L30.8946 71.4962L30.8306 71.6261C30.7018 71.8716 30.6685 72.156 30.737 72.4247C30.8055 72.6933 30.971 72.927 31.2017 73.0808C31.429 73.2176 31.7046 73.2521 31.9586 73.1753C32.2125 73.0975 32.4221 72.9155 32.5343 72.6743C32.6003 72.5464 32.7086 72.321 32.8454 72.0119C33.0698 71.504 33.2932 70.9401 33.5019 70.3328C34.1072 68.6615 34.4339 66.9017 34.4684 65.1251C34.4625 64.4184 34.3838 63.7157 34.2351 63.0257C33.9577 61.7691 33.5541 60.5437 33.0304 59.3682C32.7361 58.6912 32.4146 58.0263 32.0668 57.3751C31.868 57.004 31.7115 56.7314 31.617 56.5769C31.5535 56.4622 31.4663 56.3624 31.3613 56.284C31.2562 56.2057 31.1357 56.1505 31.0078 56.1221C30.7489 56.0641 30.4773 56.1202 30.2627 56.2747C30.043 56.4446 29.8935 56.6893 29.8425 56.9622C29.7915 57.2351 29.8426 57.5173 29.9861 57.755V57.755Z" fill="#373FFF"/>
<path d="M33.2843 70.8938C33.3585 70.6969 33.4313 70.4945 33.5028 70.2865C34.1083 68.615 34.4348 66.8553 34.4694 65.0778C34.4632 64.3719 34.385 63.6685 34.2361 62.9784C33.9587 61.7218 33.5551 60.4965 33.0314 59.321C32.7243 58.6133 32.3956 57.942 32.0668 57.3279C31.9237 57.0582 31.7741 56.792 31.618 56.5296C31.5544 56.415 31.4673 56.3152 31.3622 56.2368C31.2572 56.1584 31.1367 56.1032 31.0087 56.0749C30.7499 56.0168 30.4782 56.0729 30.2637 56.2275C30.044 56.3973 29.8945 56.642 29.8435 56.915C29.7925 57.1879 29.8436 57.4701 29.9871 57.7078L30.0894 57.883C30.1761 58.0345 30.2735 58.2097 30.3788 58.4056C30.681 58.9696 30.9831 59.5867 31.2637 60.2353C31.7263 61.2688 32.0826 62.3456 32.3286 63.4509C32.4457 63.9853 32.5078 64.5306 32.5146 65.0778C32.4772 66.5995 32.1928 68.1054 31.6721 69.5355C31.5048 70.0237 31.3267 70.4794 31.1475 70.8938H33.2843Z" fill="#F1A5FF"/>
<path d="M12.6919 31.2953C12.6919 29.1881 14.3878 27.4922 16.495 27.4922C18.6023 27.4922 20.2982 29.1881 20.2982 31.2953C20.2982 33.4026 18.6023 35.0985 16.495 35.0985C14.3878 35.0985 12.6919 33.4026 12.6919 31.2953Z" fill="black"/>
<path d="M13.3671 32.3888C13.3671 31.7303 13.8966 31.2008 14.5551 31.2008C15.2135 31.2008 15.743 31.7303 15.743 32.3888C15.743 33.0473 15.2135 33.5768 14.5551 33.5768C13.8966 33.5768 13.3671 33.0473 13.3671 32.3888Z" fill="white"/>
<path d="M12.6919 62.7647C12.6919 60.6574 14.3878 58.9615 16.495 58.9615C18.6023 58.9615 20.2982 60.6574 20.2982 62.7647C20.2982 64.872 18.6023 66.5678 16.495 66.5678C14.3878 66.5678 12.6919 64.872 12.6919 62.7647Z" fill="black"/>
<path d="M13.3671 63.998C13.3671 63.3396 13.8966 62.8101 14.5551 62.8101C15.2135 62.8101 15.743 63.3396 15.743 63.998C15.743 64.6565 15.2135 65.186 14.5551 65.186C13.8966 65.186 13.3671 64.6565 13.3671 63.998Z" fill="white"/>
<defs>
<linearGradient id="paint0_linear" x1="49.8398" y1="47.6703" x2="49.8398" y2="70.8937" gradientUnits="userSpaceOnUse">
<stop stop-color="#6F3CFF"/>
<stop offset="1" stop-color="#3633FF"/>
</linearGradient>
<linearGradient id="paint1_linear" x1="0.820801" y1="78.5399" x2="99.3359" y2="78.5399" gradientUnits="userSpaceOnUse">
<stop stop-color="#F1A5FF"/>
<stop offset="1" stop-color="#FF686C"/>
</linearGradient>
<linearGradient id="paint2_linear" x1="0.820801" y1="43.5275" x2="99.3359" y2="43.5275" gradientUnits="userSpaceOnUse">
<stop stop-color="#F1A5FF"/>
<stop offset="1" stop-color="#FF686C"/>
</linearGradient>
<linearGradient id="paint3_linear" x1="49.84" y1="11" x2="49.84" y2="39.3504" gradientUnits="userSpaceOnUse">
<stop stop-color="#E559FF"/>
<stop offset="1" stop-color="#924DFF"/>
</linearGradient>
</defs>
</svg>
