<svg width="100" height="100" viewBox="0 0 100 100" fill="none" xmlns="http://www.w3.org/2000/svg">
<path d="M56.406 50.397C56.406 66.0798 43.7789 78.7931 28.2035 78.7931C12.628 78.7931 0 66.0769 0 50.397C0 34.7171 12.6271 22 28.2035 22C43.7799 22 56.406 34.7143 56.406 50.397ZM87.3451 50.397C87.3451 65.159 81.0316 77.1306 73.2434 77.1306C65.4552 77.1306 59.1416 65.159 59.1416 50.397C59.1416 35.6351 65.4542 23.6634 73.2424 23.6634C81.0306 23.6634 87.3442 35.6313 87.3442 50.397H87.3451ZM100 50.397C100 63.6201 97.7799 74.3461 95.0404 74.3461C92.3009 74.3461 90.0817 63.623 90.0817 50.397C90.0817 37.1711 92.3019 26.4479 95.0404 26.4479C97.7789 26.4479 100 37.1701 100 50.397" fill="black"/>
</svg>
