<svg width="100" height="100" viewBox="0 0 100 100" fill="none" xmlns="http://www.w3.org/2000/svg">
<g clip-path="url(#clip0)">
<path d="M95.7372 3H27.5187C25.1644 3 23.2559 4.90852 23.2559 7.2628V26.2558L62.7907 37.8837L100 26.2558V7.2628C100 4.90852 98.0915 3 95.7372 3Z" fill="#41A5EE"/>
<path d="M100 26.2559H23.2559V49.5117L62.7907 56.4884L100 49.5117V26.2559Z" fill="#2B7CD3"/>
<path d="M23.2559 49.5116V72.7674L60.4652 77.4186L100 72.7674V49.5116H23.2559Z" fill="#185ABD"/>
<path d="M27.5187 96.0233H95.7374C98.0917 96.0233 100 94.1148 100 91.7605V72.7675H23.2559V91.7605C23.2559 94.1148 25.1644 96.0233 27.5187 96.0233Z" fill="#103F91"/>
<path opacity="0.1" d="M51.5512 21.6046H23.2559V79.7441H51.5512C53.9023 79.7365 55.8063 77.8324 55.814 75.4813V25.8674C55.8063 23.5163 53.9023 21.6123 51.5512 21.6046Z" fill="black"/>
<path opacity="0.2" d="M49.2256 23.9302H23.2559V82.0697H49.2256C51.5767 82.0621 53.4807 80.158 53.4884 77.8069V28.193C53.4807 25.8419 51.5767 23.9378 49.2256 23.9302Z" fill="black"/>
<path opacity="0.2" d="M49.2256 23.9302H23.2559V77.4186H49.2256C51.5767 77.4109 53.4807 75.5068 53.4884 73.1557V28.193C53.4807 25.8419 51.5767 23.9378 49.2256 23.9302Z" fill="black"/>
<path opacity="0.2" d="M46.9 23.9302H23.2559V77.4186H46.9C49.2511 77.4109 51.1552 75.5068 51.1628 73.1557V28.193C51.1552 25.8419 49.2511 23.9378 46.9 23.9302Z" fill="black"/>
<path d="M4.2628 23.9302H46.9C49.2543 23.9302 51.1628 25.8387 51.1628 28.193V70.8302C51.1628 73.1845 49.2543 75.093 46.9 75.093H4.2628C1.90852 75.093 0 73.1845 0 70.8302V28.193C0 25.8387 1.90852 23.9302 4.2628 23.9302Z" fill="url(#paint0_linear)"/>
<path d="M17.4932 56.6233C17.5769 57.2814 17.6327 57.8535 17.6583 58.3442H17.7559C17.7931 57.8791 17.8706 57.3186 17.9885 56.6628C18.1063 56.007 18.2125 55.4527 18.3071 55L22.7908 35.6558H28.5885L33.2397 54.7093C33.5099 55.8941 33.7034 57.095 33.8188 58.3047H33.8955C33.9822 57.1327 34.1438 55.9676 34.3792 54.8163L38.0885 35.6465H43.3653L36.849 63.3675H30.6839L26.2653 45.0093C26.1374 44.4814 25.9909 43.7907 25.8304 42.9418C25.6699 42.093 25.5699 41.472 25.5304 41.0813H25.4536C25.4025 41.5325 25.3025 42.2023 25.1536 43.0906C25.0048 43.979 24.8854 44.6364 24.7955 45.0627L20.6419 63.3628H14.3722L7.82104 35.6557H13.1931L17.2327 55.0395C17.3234 55.4372 17.4095 55.9674 17.4932 56.6233Z" fill="white"/>
</g>
<defs>
<linearGradient id="paint0_linear" x1="8.88801" y1="20.5993" x2="42.2748" y2="78.4238" gradientUnits="userSpaceOnUse">
<stop stop-color="#2368C4"/>
<stop offset="0.5" stop-color="#1A5DBE"/>
<stop offset="1" stop-color="#1146AC"/>
</linearGradient>
<clipPath id="clip0">
<rect width="100" height="100" fill="white"/>
</clipPath>
</defs>
</svg>
