<svg width="100" height="100" viewBox="0 0 100 100" fill="none" xmlns="http://www.w3.org/2000/svg">
<path fill-rule="evenodd" clip-rule="evenodd" d="M4 51.1423C4 25.6605 24.5968 5 50 5C75.4032 5 96 25.6605 96 51.1423C96 71.5201 82.8376 88.811 64.5716 94.916C62.2408 95.3668 61.4105 93.9303 61.4105 92.7002C61.4105 92.1962 61.4164 91.3136 61.4242 90.134L61.4242 90.1317V90.1313V90.1306C61.44 87.7514 61.4638 84.1649 61.4638 80.0395C61.4638 75.7378 59.9937 72.926 58.3408 71.4972C68.5782 70.3511 79.3413 66.4467 79.3413 48.7278C79.3413 43.6926 77.5589 39.5742 74.611 36.3422C75.0909 35.1808 76.6677 30.4894 74.1616 24.1324C74.1616 24.1324 70.3073 22.8946 61.5248 28.862C57.8457 27.8381 53.9076 27.3262 50 27.3109C46.0848 27.3262 42.1543 27.8381 38.4829 28.862C29.6927 22.8946 25.8308 24.1324 25.8308 24.1324C23.34 30.4894 24.9091 35.1808 25.389 36.3422C22.4487 39.5742 20.6511 43.6926 20.6511 48.7278C20.6511 66.4008 31.3913 70.3587 41.6059 71.5277C40.2957 72.6815 39.0999 74.7216 38.6885 77.7014C36.0682 78.8781 29.4108 80.9182 25.3052 73.8658C25.3052 73.8658 22.8677 69.4418 18.2517 69.1133C18.2517 69.1133 13.7652 69.0521 17.9394 71.9174C17.9394 71.9174 20.9482 73.3386 23.0429 78.6718C23.0429 78.6718 25.7394 86.9009 38.5438 84.112C38.5527 86.3515 38.5718 88.5186 38.5863 90.1566L38.5863 90.1582C38.5967 91.336 38.6047 92.24 38.6047 92.7002C38.6047 93.9227 37.7592 95.3515 35.4589 94.9236C17.1777 88.8263 4 71.5277 4 51.1423ZM20.6287 71.3826C20.9563 71.5431 21.3219 71.4743 21.4209 71.2451C21.5352 71.0158 21.3447 70.7026 21.0096 70.5421C20.6744 70.3893 20.3164 70.4504 20.2174 70.6873C20.1108 70.9165 20.2936 71.2298 20.6287 71.3826ZM23.2866 73.331C23.0658 73.5373 22.6392 73.4379 22.3497 73.117C22.045 72.7961 21.9917 72.3682 22.2126 72.1619C22.4411 71.9556 22.8525 72.055 23.1572 72.3759C23.4542 72.6968 23.5152 73.1247 23.2866 73.331ZM24.0713 75.5925C24.3531 76.0051 24.8178 76.1885 25.0996 75.9898C25.389 75.7912 25.389 75.2945 25.1072 74.8819C24.8178 74.4693 24.3607 74.2936 24.0789 74.4922C23.7894 74.6909 23.7894 75.1799 24.0713 75.5925ZM27.5826 78.5572C27.3312 78.8399 26.7904 78.7635 26.4019 78.3815C25.9982 78.0071 25.8916 77.4799 26.1429 77.2048C26.4019 76.9221 26.9351 77.0061 27.3312 77.3805C27.7273 77.7473 27.8492 78.2821 27.5826 78.5572ZM29.86 80.4215C30.378 80.5743 30.8959 80.4062 31.0102 80.0471C31.1168 79.6804 30.7817 79.2601 30.2561 79.0997C29.7305 78.9392 29.2125 79.1073 29.1059 79.4741C28.9992 79.8408 29.342 80.2611 29.86 80.4215ZM34.7731 80.3222C34.7884 80.7042 34.3466 81.0175 33.7981 81.0251C33.2497 81.0404 32.8003 80.7271 32.8003 80.3527C32.8003 79.9707 33.2345 79.6574 33.7829 79.6498C34.3237 79.6422 34.7731 79.9478 34.7731 80.3222ZM37.4162 80.582C37.9647 80.475 38.3455 80.1006 38.277 79.7262C38.2084 79.3518 37.7209 79.1226 37.1725 79.2219C36.6393 79.3213 36.2508 79.7033 36.3194 80.0853C36.3879 80.4521 36.883 80.6813 37.4162 80.582Z" fill="#1A1414"/>
</svg>
