<svg width="100" height="100" viewBox="0 0 100 100" fill="none" xmlns="http://www.w3.org/2000/svg">
<path fill-rule="evenodd" clip-rule="evenodd" d="M20.5196 19.4802C23.4377 21.8555 24.5323 21.6743 30.012 21.308L81.6711 18.2001C82.7667 18.2001 81.8556 17.105 81.4902 16.923L72.9108 10.7088C71.2668 9.43005 69.0767 7.96563 64.8791 8.33196L14.8575 11.9874C13.0332 12.1686 12.6689 13.0825 13.3954 13.815L20.5196 19.4802ZM23.6211 31.5424V86.0011C23.6211 88.9279 25.0809 90.0229 28.3664 89.8418L85.1397 86.5504C88.4269 86.3693 88.7931 84.3562 88.7931 81.9786V27.8854C88.7931 25.5117 87.8817 24.2316 85.8695 24.4143L26.5408 27.8854C24.3513 28.0697 23.6209 29.1671 23.6209 31.5424H23.6211ZM79.6676 34.4637C80.0315 36.1101 79.6676 37.755 78.0212 37.9401L75.2859 38.4862V78.691C72.9108 79.97 70.7207 80.7012 68.8957 80.7012C65.9737 80.7012 65.2419 79.7867 63.0533 77.0471L45.1603 48.9034V76.1332L50.8224 77.4132C50.8224 77.4132 50.8224 80.7012 46.2542 80.7012L33.661 81.4331C33.2952 80.7012 33.661 78.8752 34.9384 78.5095L38.2247 77.5969V41.5938L33.6619 41.2275C33.2959 39.5811 34.2073 37.2072 36.7649 37.023L50.2746 36.1106L68.8957 64.6207V39.3999L64.148 38.854C63.7836 36.8413 65.2419 35.3798 67.0677 35.1986L79.6676 34.4637ZM10.6576 7.05339L62.688 3.21435C69.0775 2.66531 70.7214 3.03313 74.7373 5.95586L91.3461 17.6518C94.0866 19.663 95 20.2106 95 22.4031V86.5504C95 90.5706 93.5382 92.9482 88.4278 93.3119L28.0048 96.9677C24.1686 97.151 22.3428 96.6032 20.3337 94.0431L8.10281 78.1437C5.91141 75.2169 5 73.0274 5 70.4658V13.4474C5 10.1598 6.46217 7.41733 10.6576 7.05339V7.05339Z" fill="black"/>
</svg>
