<svg width="100" height="100" viewBox="0 0 100 100" fill="none" xmlns="http://www.w3.org/2000/svg">
<path fill-rule="evenodd" clip-rule="evenodd" d="M49.7894 4C24.4431 4 4 24.3446 4 50.9495C4 64.7442 11.3786 78.0718 21.755 86.0792C23.7531 87.6209 26.1328 87.4801 27.497 86.1576C28.6463 85.0435 28.5514 82.3612 26.4139 80.4817C18.1189 73.1872 12.3841 62.1438 12.3841 51.1133C12.3841 31.302 29.9745 14.633 49.7901 14.633C73.9096 14.633 86.8073 34.2201 86.8073 50.8222C86.8073 60.9665 81.8466 73.2145 72.8918 81.0272C72.9055 80.992 74.7519 77.361 74.7519 70.2893C74.7519 58.2518 67.1247 51.7307 58.2741 51.7307C51.8673 51.7307 48.0314 54.0213 45.4209 56.1567C45.4209 51.2535 45.5848 42.096 45.5848 42.096C45.5848 36.0522 43.4674 31.2143 36.0881 31.1087C31.8166 31.0483 28.647 33.0069 26.6705 37.4357C25.9582 39.0967 26.2205 40.9015 27.6285 41.7194C28.7936 42.3957 30.7098 41.8941 31.6578 40.6291C32.291 39.8385 32.6461 39.6696 33.1966 39.7292C34.1029 39.827 34.1374 41.2875 34.1734 42.2218C34.2007 42.9391 34.8979 53.358 34.5162 80.1324C34.5162 87.5174 40.3085 96 54.1773 96C60.1479 96 64.7327 94.3311 71.3933 90.5469C81.5311 84.7848 95.9986 72.0071 95.9986 50.3946C95.9986 23.3894 74.1288 4 49.7894 4ZM54.1392 85.6502C48.9765 85.7407 45.211 84.0812 44.9803 79.5689C44.8941 77.8756 44.9214 76.0723 45.004 74.9848C45.5036 68.3911 50.1143 63.6474 54.666 62.7368C60.3268 61.604 64.0981 64.1929 64.0981 71.6039C64.0973 76.612 62.7073 85.4999 54.1392 85.6502Z" fill="#DD5A2B"/>
</svg>
