<svg width="100" height="100" viewBox="0 0 100 100" fill="none" xmlns="http://www.w3.org/2000/svg">
<g clip-path="url(#clip0)">
<path d="M62.7907 47.1861L23.2559 40.2094V91.7605C23.2559 94.1148 25.1644 96.0233 27.5186 96.0233H95.7373C98.0915 96.0233 100 94.1148 100 91.7605V72.7675L62.7907 47.1861Z" fill="#185C37"/>
<path d="M62.7907 3H27.5186C25.1644 3 23.2559 4.90851 23.2559 7.26278V26.2558L62.7907 49.5116L83.721 56.4884L100 49.5116V26.2558L62.7907 3Z" fill="#21A366"/>
<path d="M23.2559 26.2559H62.7907V49.5117H23.2559V26.2559Z" fill="#107C41"/>
<path opacity="0.1" d="M51.5511 21.6046H23.2559V79.7441H51.5511C53.9022 79.7365 55.8062 77.8325 55.8139 75.4814V25.8674C55.8062 23.5163 53.9022 21.6123 51.5511 21.6046Z" fill="black"/>
<path opacity="0.2" d="M49.2256 23.9302H23.2559V82.0697H49.2256C51.5767 82.0621 53.4808 80.158 53.4884 77.8069V28.193C53.4808 25.8419 51.5767 23.9378 49.2256 23.9302Z" fill="black"/>
<path opacity="0.2" d="M49.2256 23.9302H23.2559V77.4185H49.2256C51.5767 77.4109 53.4808 75.5069 53.4884 73.1558V28.193C53.4808 25.8419 51.5767 23.9378 49.2256 23.9302Z" fill="black"/>
<path opacity="0.2" d="M46.9001 23.9302H23.2559V77.4185H46.9001C49.2511 77.4109 51.1552 75.5069 51.1628 73.1558V28.193C51.1552 25.8419 49.2511 23.9378 46.9001 23.9302Z" fill="black"/>
<path d="M4.26278 23.9302H46.9C49.2542 23.9302 51.1628 25.8387 51.1628 28.193V70.8301C51.1628 73.1844 49.2542 75.0929 46.9 75.0929H4.26278C1.90851 75.093 0 73.1845 0 70.8302V28.193C0 25.8387 1.90851 23.9302 4.26278 23.9302Z" fill="url(#paint0_linear)"/>
<path d="M13.2021 63.3674L22.1696 49.4721L13.9533 35.6534H20.5626L25.0463 44.4907C25.4603 45.3302 25.744 45.9534 25.8975 46.3651H25.9556C26.2502 45.6953 26.5603 45.0449 26.8859 44.4139L31.6789 35.6581H37.7463L29.3207 49.3953L37.9603 63.3674H31.5045L26.3254 53.6674C26.0815 53.2547 25.8744 52.8212 25.7068 52.3721H25.6301C25.4784 52.8121 25.2771 53.2334 25.0301 53.6279L19.6975 63.3674H13.2021Z" fill="white"/>
<path d="M95.7371 3H62.7905V26.2558H99.9998V7.26278C99.9998 4.90851 98.0913 3 95.7371 3Z" fill="#33C481"/>
<path d="M62.7905 49.5116H99.9998V72.7674H62.7905V49.5116Z" fill="#107C41"/>
</g>
<defs>
<linearGradient id="paint0_linear" x1="8.88801" y1="20.5993" x2="42.2748" y2="78.4238" gradientUnits="userSpaceOnUse">
<stop stop-color="#18884F"/>
<stop offset="0.5" stop-color="#117E43"/>
<stop offset="1" stop-color="#0B6631"/>
</linearGradient>
<clipPath id="clip0">
<rect width="100" height="100" fill="white"/>
</clipPath>
</defs>
</svg>
