<svg width="100" height="100" viewBox="0 0 100 100" fill="none" xmlns="http://www.w3.org/2000/svg">
<path d="M9.25933 80.5677L13.4889 87.9837C14.3739 89.5436 15.6307 90.7736 17.1246 91.6616L32.2402 65.1118H2C2 66.8428 2.43796 68.5678 3.31988 70.1308L9.25933 80.5677Z" fill="#1967D2"/>
<path d="M49.9956 33.8849L34.877 7.33813C33.3667 8.23003 32.1155 9.50096 31.2473 11.0251L3.31988 60.0988C2.45611 61.6295 2.00152 63.3571 2 65.1147H32.2372L49.9956 33.8849Z" fill="#34A853"/>
<path d="M82.8721 91.6617C84.3823 90.7717 85.6352 89.5042 86.5078 87.9837L88.2656 84.9177L96.6798 70.1368C97.5617 68.5768 97.9997 66.8488 97.9997 65.1208H67.7505L74.1879 77.9518L82.8751 91.6617H82.8721Z" fill="#EA4335"/>
<path d="M49.9956 33.8851L65.1142 7.33833C63.6176 6.44839 61.9057 5.98563 60.1646 6.00034H39.8265C38.0657 6.00034 36.3648 6.49834 34.877 7.33833L49.9956 33.8881V33.8851Z" fill="#188038"/>
<path d="M67.7538 65.1148H32.2371L17.1245 91.6616C18.6193 92.5507 20.329 93.0134 22.0681 92.9996H77.9229C79.6586 92.9881 81.3618 92.5271 82.8664 91.6616L67.7508 65.1118L67.7538 65.1148Z" fill="#4285F4"/>
<path d="M82.7047 35.556L68.744 11.0161C67.8756 9.49493 66.6269 8.22546 65.1203 7.33215L50.0017 33.879L67.7511 65.1147H97.9373C97.9373 63.3868 97.4993 61.6588 96.6174 60.0988L82.7047 35.559V35.556Z" fill="#FBBC04"/>
</svg>
