<svg width="100" height="100" viewBox="0 0 100 100" fill="none" xmlns="http://www.w3.org/2000/svg">
<path d="M83.137 0H16.235C10.5933 0 6 4.59327 6 10.2849V77.7861C6 83.4777 10.5933 88.071 16.235 88.071H72.8521L70.206 78.8345L76.5966 84.7758L82.6377 90.3676L93.372 99.8537V10.2849C93.372 4.59327 88.7787 0 83.137 0ZM63.8652 65.2045C63.8652 65.2045 62.0679 63.0576 60.5701 61.1604C67.1105 59.3131 69.6068 55.2191 69.6068 55.2191C67.5598 56.5671 65.6127 57.5157 63.8652 58.1648C61.3689 59.2133 58.9724 59.9122 56.6258 60.3117C51.8329 61.2103 47.4393 60.9607 43.6948 60.2617C40.849 59.7125 38.4025 58.9137 36.3555 58.1149C35.2072 57.6655 33.959 57.1163 32.7109 56.4174C32.5611 56.3175 32.4113 56.2676 32.2615 56.1677C32.1617 56.1178 32.1118 56.0679 32.0618 56.0179C31.1631 55.5187 30.6639 55.1692 30.6639 55.1692C30.6639 55.1692 33.0604 59.1633 39.4011 61.0606C37.9033 62.9578 36.056 65.2045 36.056 65.2045C25.0221 64.855 20.8283 57.6156 20.8283 57.6156C20.8283 41.5392 28.0177 28.5082 28.0177 28.5082C35.2072 23.1161 42.0472 23.2659 42.0472 23.2659L42.5465 23.865C33.5596 26.4612 29.4157 30.4055 29.4157 30.4055C29.4157 30.4055 30.5141 29.8063 32.3614 28.9576C37.7036 26.611 41.9473 25.962 43.6948 25.8122C43.9943 25.7623 44.244 25.7123 44.5435 25.7123C47.5891 25.3129 51.034 25.2131 54.6288 25.6125C59.3718 26.1617 64.4644 27.5596 69.6568 30.4055C69.6568 30.4055 65.7125 26.6609 57.225 24.0647L57.9239 23.2659C57.9239 23.2659 64.7639 23.1161 71.9534 28.5082C71.9534 28.5082 79.1429 41.5392 79.1429 57.6156C79.1429 57.6156 74.8991 64.855 63.8652 65.2045ZM40.6492 41.8886C37.8034 41.8886 35.5567 44.385 35.5567 47.4305C35.5567 50.4761 37.8533 52.9724 40.6492 52.9724C43.4951 52.9724 45.7418 50.4761 45.7418 47.4305C45.7917 44.385 43.4951 41.8886 40.6492 41.8886ZM58.8725 41.8886C56.0267 41.8886 53.78 44.385 53.78 47.4305C53.78 50.4761 56.0766 52.9724 58.8725 52.9724C61.7184 52.9724 63.9651 50.4761 63.9651 47.4305C63.9651 44.385 61.7184 41.8886 58.8725 41.8886Z" fill="#7289DA"/>
</svg>
