<svg width="100" height="100" viewBox="0 0 100 100" fill="none" xmlns="http://www.w3.org/2000/svg">
<path d="M75.3502 4H24.6498C13.2452 4 4 13.2452 4 24.6498V75.3502C4 86.7548 13.2452 96 24.6498 96H75.3502C86.7548 96 96 86.7548 96 75.3502V24.6498C96 13.2452 86.7548 4 75.3502 4Z" fill="#6772E5"/>
<path fill-rule="evenodd" clip-rule="evenodd" d="M46.3831 39.691C46.3831 37.4922 48.1995 36.5043 51.1313 36.5043C55.9895 36.6093 60.7569 37.8421 65.0571 40.1052V27.0716C60.6327 25.3366 55.9153 24.471 51.1631 24.5223C39.8185 24.5223 32.2341 30.4495 32.2341 40.4558C32.2341 55.9431 53.5213 53.4257 53.5213 60.1177C53.5213 62.6989 51.2587 63.5275 48.1676 63.5275C42.7221 63.2272 37.4206 61.6673 32.6803 58.9705V72.3228C37.5105 74.41 42.7145 75.4942 47.9764 75.5095C59.6079 75.5095 67.6383 69.7734 67.6383 59.576C67.734 42.9733 46.3831 45.9688 46.3831 39.691V39.691Z" fill="white"/>
</svg>
