<svg width="100" height="100" viewBox="0 0 100 100" fill="none" xmlns="http://www.w3.org/2000/svg">
<mask id="mask0" mask-type="alpha" maskUnits="userSpaceOnUse" x="4" y="4" width="92" height="92">
<rect x="4" y="4" width="92" height="92" rx="20" fill="#C4C4C4"/>
</mask>
<g mask="url(#mask0)">
<path d="M-9.97803 -2.80652H116.297V74.2521H-9.97803V-2.80652Z" fill="#F64942"/>
<path d="M22.3419 81.5341C15.9352 68.9761 22.1152 53.7721 38.8245 49.6861C87.3659 41.7581 80.0872 26.7228 94.9552 21.3634C122.617 11.3921 115.623 46.0981 110.059 55.8014C104.495 65.5041 117.672 83.9121 98.7852 85.2508C86.8965 86.0934 83.4312 79.3948 62.4772 88.0441C51.7012 92.4921 51.0705 91.5081 39.8839 87.9001L30.3045 83.0608L22.3425 81.5341H22.3419Z" fill="#F4CE45"/>
<path d="M47.6553 -9.82587C34.7513 -8.10453 -31.2913 5.79147 -36 7.9428L-24.5133 73.1315C-17.6187 72.4675 -4.82467 79.3308 -4.82467 69.6621C-4.82467 60.2815 -2.92067 56.2795 3.55133 45.0361C13.062 28.5168 34.112 28.7928 41.446 28.4341C58.7967 27.5861 77.7767 22.0328 87.4747 7.9488C120.708 -40.3159 89.1733 -21.2739 47.6547 -9.82653L47.6553 -9.82587Z" fill="#5B95BF"/>
<path d="M33.7207 65.8808C20.2667 65.9208 6.08273 70.0688 -6.87061 74.9342L-1.78594 130.013C33.4694 125.601 96.8367 115.055 100.778 108.372C105.347 100.624 98.9107 95.4562 112.186 88.3968C122.806 82.7495 134.565 60.4202 109.521 60.1688C95.6527 60.2822 92.1034 63.1562 81.2861 67.2148C63.4581 73.9042 44.0294 65.8502 33.7207 65.8808V65.8808Z" fill="#EF90A4"/>
<path fill-rule="evenodd" clip-rule="evenodd" d="M50.7154 16.0168C51.5287 16.0169 52.3243 16.2544 53.0047 16.7002C53.685 17.1459 54.2205 17.7805 54.5454 18.5261C54.5754 18.5942 54.6246 18.6521 54.687 18.6926C54.7494 18.7331 54.8223 18.7545 54.8967 18.7541C54.9501 18.7545 55.0029 18.743 55.0513 18.7205C55.0997 18.698 55.1425 18.6651 55.1767 18.6241C55.569 18.1554 56.059 17.7782 56.6125 17.519C57.166 17.2597 57.7695 17.1247 58.3807 17.1234C59.3831 17.1233 60.3521 17.4835 61.1111 18.1382C61.87 18.7929 62.3684 19.6986 62.5154 20.6901C62.5258 20.7526 62.5518 20.8114 62.591 20.8612C62.6301 20.911 62.6812 20.95 62.7395 20.9748C62.7978 20.9996 62.8614 21.0093 62.9244 21.003C62.9874 20.9967 63.0478 20.9746 63.1 20.9388C63.8058 20.4445 64.6464 20.1792 65.508 20.1788C66.0965 20.1798 66.678 20.3051 67.2147 20.5464C67.7513 20.7878 68.2309 21.1397 68.6221 21.5793C69.0133 22.0188 69.3073 22.536 69.4848 23.097C69.6623 23.658 69.7193 24.2502 69.652 24.8348C69.6464 24.8977 69.6565 24.9611 69.6816 25.0192C69.7067 25.0772 69.746 25.128 69.7957 25.167C69.8455 25.206 69.9043 25.2318 69.9666 25.2423C70.029 25.2527 70.0929 25.2474 70.1527 25.2268C70.6134 25.0592 71.0998 24.9735 71.59 24.9734C72.6587 24.9734 73.7267 25.3801 74.542 26.1961C75.1179 26.7723 75.5129 27.5043 75.6784 28.302C75.8438 29.0997 75.7726 29.9284 75.4734 30.6861C75.4515 30.7454 75.4448 30.8092 75.4539 30.8717C75.4631 30.9342 75.4877 30.9935 75.5257 31.044C75.5636 31.0945 75.6136 31.1347 75.6711 31.161C75.7285 31.1872 75.7917 31.1986 75.8547 31.1941C76.6481 31.1228 77.4454 31.2801 78.1523 31.6474C78.8592 32.0146 79.4463 32.5766 79.844 33.2668C80.2512 33.9723 80.4432 34.7815 80.3965 35.5947C80.3499 36.4079 80.0665 37.1898 79.5814 37.8441C79.5448 37.8957 79.5217 37.9557 79.5143 38.0186C79.5069 38.0815 79.5154 38.1452 79.539 38.2039C79.5626 38.2626 79.6006 38.3145 79.6495 38.3547C79.6983 38.3949 79.7565 38.4222 79.8187 38.4341C80.6122 38.5729 81.3487 38.938 81.9395 39.4856C82.5303 40.0332 82.9502 40.7399 83.1487 41.5206C83.3472 42.3013 83.3158 43.1227 83.0583 43.886C82.8008 44.6493 82.3282 45.3219 81.6974 45.8228C81.6485 45.8631 81.6105 45.915 81.587 45.9739C81.5635 46.0327 81.5551 46.0965 81.5628 46.1594C81.5704 46.2223 81.5938 46.2823 81.6307 46.3338C81.6676 46.3853 81.7169 46.4267 81.774 46.4541C82.5038 46.7932 83.1202 47.3357 83.549 48.0167C83.9779 48.6976 84.201 49.4879 84.1915 50.2925C84.182 51.0972 83.9403 51.882 83.4955 52.5526C83.0507 53.2232 82.4217 53.7511 81.684 54.0728C81.4307 54.1834 81.374 54.5274 81.5854 54.7048C82.2036 55.2214 82.6593 55.9058 82.8975 56.6755C83.1357 57.4452 83.1462 58.2673 82.9279 59.0429C82.7096 59.8184 82.2716 60.5143 81.6669 61.0467C81.0621 61.579 80.3163 61.9252 79.5194 62.0434C79.457 62.0541 79.3983 62.0803 79.3486 62.1196C79.299 62.1588 79.26 62.21 79.2352 62.2682C79.2105 62.3265 79.2008 62.39 79.207 62.453C79.2132 62.516 79.2351 62.5765 79.2707 62.6288C79.7363 63.2908 79.9995 64.0738 80.0285 64.8826C80.0575 65.6915 79.851 66.4913 79.4341 67.185C79.0172 67.8787 78.4078 68.4364 77.6799 68.7903C76.9521 69.1442 76.1371 69.2792 75.334 69.1788C75.2743 69.1799 75.2156 69.1952 75.1629 69.2233C75.1101 69.2515 75.0648 69.2917 75.0306 69.3407C74.9964 69.3898 74.9743 69.4462 74.9661 69.5054C74.9579 69.5646 74.9638 69.625 74.9834 69.6814C75.2605 70.438 75.3129 71.2585 75.1343 72.0441C74.9557 72.8297 74.5537 73.547 73.9768 74.1094C73.3999 74.6718 72.6727 75.0553 71.8828 75.2138C71.0928 75.3724 70.2739 75.2991 69.5247 75.0028C69.4827 74.9861 69.4379 74.9775 69.3927 74.9774C69.3408 74.9779 69.2894 74.9889 69.2419 75.0099C69.1944 75.031 69.1517 75.0615 69.1165 75.0997C69.0813 75.1379 69.0542 75.1829 69.0371 75.2319C69.0199 75.2809 69.013 75.333 69.0167 75.3848C69.068 75.9618 68.9988 76.5433 68.8134 77.0921C68.628 77.641 68.3305 78.1453 67.9399 78.5731C67.5492 79.0009 67.0738 79.3428 66.544 79.5771C66.0141 79.8114 65.4414 79.933 64.862 79.9341C63.9637 79.9338 63.0891 79.6455 62.3667 79.1114C62.3044 79.0653 62.2289 79.0405 62.1514 79.0408C62.0629 79.0404 61.9771 79.071 61.9088 79.1273C61.8405 79.1835 61.794 79.2619 61.7774 79.3488C61.6393 80.1426 61.2745 80.8796 60.727 81.4708C60.1795 82.062 59.4727 82.4823 58.6918 82.6808C57.9109 82.8794 57.0892 82.8479 56.3258 82.59C55.5624 82.3321 54.8899 81.8589 54.3894 81.2274C54.3549 81.1843 54.311 81.1496 54.2611 81.1259C54.2112 81.1022 54.1566 81.0902 54.1014 81.0908C54.0298 81.0898 53.9595 81.1093 53.8987 81.1471C53.838 81.185 53.7894 81.2394 53.7587 81.3041C53.4232 82.0265 52.8883 82.638 52.217 83.0666C51.5457 83.4952 50.7659 83.7231 49.9694 83.7234C49.1561 83.7233 48.3606 83.4858 47.6803 83.0401C47.0001 82.5943 46.4648 81.9597 46.14 81.2141C46.11 81.1459 46.0607 81.088 45.9981 81.0475C45.9356 81.007 45.8626 80.9856 45.788 80.9861C45.7347 80.9857 45.682 80.9971 45.6336 81.0195C45.5852 81.0418 45.5423 81.0746 45.508 81.1154C45.1159 81.5843 44.6259 81.9617 44.0724 82.2211C43.5189 82.4805 42.9153 82.6155 42.304 82.6168C41.3017 82.6168 40.3328 82.2566 39.5738 81.6019C38.8149 80.9472 38.3164 80.0416 38.1694 79.0501C38.159 78.9876 38.133 78.9288 38.0938 78.879C38.0546 78.8293 38.0035 78.7902 37.9453 78.7654C37.887 78.7406 37.8234 78.7309 37.7604 78.7372C37.6973 78.7435 37.6369 78.7656 37.5847 78.8014C36.879 79.2957 36.0383 79.561 35.1767 79.5614C34.5883 79.5603 34.0067 79.4349 33.47 79.1935C32.9334 78.9521 32.4538 78.6001 32.0626 78.1605C31.6714 77.7209 31.3775 77.2037 31.2 76.6426C31.0225 76.0816 30.9655 75.4894 31.0327 74.9048C31.0384 74.8419 31.0283 74.7786 31.0032 74.7206C30.9781 74.6627 30.9389 74.6119 30.8892 74.573C30.8395 74.5341 30.7808 74.5083 30.7185 74.4979C30.6563 74.4874 30.5924 74.4928 30.5327 74.5134C30.072 74.681 29.5856 74.7668 29.0954 74.7668C28.547 74.7676 28.0039 74.6599 27.4973 74.4501C26.9907 74.2403 26.5306 73.9324 26.1434 73.5441C25.5674 72.9678 25.1724 72.2357 25.007 71.4379C24.8415 70.6401 24.9128 69.8113 25.212 69.0534C25.234 68.9941 25.2406 68.9302 25.2315 68.8677C25.2223 68.8051 25.1976 68.7458 25.1596 68.6953C25.1216 68.6447 25.0715 68.6045 25.0139 68.5783C24.9563 68.5522 24.8931 68.5409 24.83 68.5454C24.0367 68.6167 23.2395 68.4595 22.5326 68.0924C21.8257 67.7252 21.2387 67.1635 20.8407 66.4734C20.4335 65.7678 20.2415 64.9585 20.2883 64.1451C20.3351 63.3317 20.6186 62.5498 21.104 61.8954C21.1407 61.8438 21.1637 61.7837 21.1711 61.7208C21.1785 61.6579 21.1699 61.5942 21.1462 61.5354C21.1225 61.4767 21.0845 61.4248 21.0355 61.3847C20.9865 61.3445 20.9283 61.3172 20.866 61.3054C20.0726 61.1667 19.3361 60.8016 18.7454 60.254C18.1546 59.7065 17.7348 58.9998 17.5363 58.2192C17.3379 57.4385 17.3693 56.6171 17.6269 55.8539C17.8845 55.0907 18.3571 54.4182 18.988 53.9174C19.0368 53.877 19.0746 53.8251 19.098 53.7662C19.1214 53.7074 19.1297 53.6437 19.1221 53.5808C19.1144 53.518 19.0911 53.4581 19.0543 53.4066C19.0175 53.3551 18.9684 53.3137 18.9114 53.2861C18.1812 52.9472 17.5644 52.4046 17.1353 51.7236C16.7062 51.0425 16.483 50.2519 16.4925 49.447C16.502 48.6421 16.7438 47.857 17.1889 47.1863C17.634 46.5155 18.2634 45.9876 19.0014 45.6661C19.2547 45.5561 19.3114 45.2128 19.1 45.0354C18.4884 44.5246 18.0355 43.8495 17.7949 43.0897C17.5543 42.33 17.5359 41.5173 17.742 40.7474C17.9531 39.9605 18.3896 39.2524 18.9978 38.7103C19.606 38.1682 20.3594 37.8157 21.1654 37.6961C21.2277 37.6854 21.2863 37.6592 21.3358 37.62C21.3854 37.5807 21.4243 37.5297 21.449 37.4715C21.4738 37.4134 21.4835 37.3499 21.4774 37.287C21.4713 37.2241 21.4495 37.1638 21.414 37.1114C20.9506 36.4524 20.6876 35.6733 20.6568 34.8682C20.626 34.0631 20.8287 33.2663 21.2405 32.5737C21.6523 31.8812 22.2555 31.3225 22.9776 30.965C23.6996 30.6075 24.5096 30.4664 25.31 30.5588C25.3729 30.5644 25.4362 30.5542 25.4942 30.5292C25.5521 30.5041 25.6029 30.4649 25.6419 30.4153C25.6808 30.3656 25.7067 30.3069 25.7172 30.2447C25.7278 30.1824 25.7225 30.1185 25.702 30.0588C25.4282 29.3107 25.3739 28.5 25.5455 27.7221C25.7171 26.9442 26.1075 26.2315 26.6707 25.6681C27.0579 25.2798 27.518 24.9719 28.0246 24.7621C28.5313 24.5522 29.0744 24.4446 29.6227 24.4454C30.1447 24.4454 30.6674 24.5428 31.1607 24.7374C31.2028 24.7539 31.2475 24.7623 31.2927 24.7621C31.3446 24.7617 31.3959 24.7507 31.4433 24.7297C31.4908 24.7087 31.5334 24.6782 31.5687 24.6401C31.6039 24.602 31.6309 24.5571 31.6481 24.5081C31.6654 24.4592 31.6724 24.4072 31.6687 24.3554C31.6172 23.7783 31.6863 23.1968 31.8716 22.6478C32.0569 22.0988 32.3544 21.5943 32.7451 21.1664C33.1358 20.7386 33.6112 20.3966 34.1411 20.1623C34.6711 19.928 35.244 19.8065 35.8234 19.8054C36.7167 19.8054 37.5947 20.0921 38.318 20.6288C38.3698 20.6651 38.4298 20.6878 38.4926 20.695C38.5554 20.7022 38.619 20.6936 38.6776 20.6699C38.7363 20.6463 38.788 20.6083 38.8283 20.5596C38.8685 20.5109 38.8959 20.4528 38.908 20.3908C39.077 19.4216 39.5825 18.5431 40.3355 17.91C41.0886 17.277 42.0409 16.9299 43.0247 16.9301C44.306 16.9301 45.51 17.5248 46.296 18.5121C46.3694 18.6054 46.476 18.6494 46.584 18.6494C46.6555 18.6502 46.7258 18.6306 46.7865 18.5928C46.8472 18.555 46.8958 18.5006 46.9267 18.4361C47.2618 17.7135 47.7965 17.1018 48.4677 16.673C49.139 16.2442 49.9189 16.0163 50.7154 16.0161" fill="white"/>
<path fill-rule="evenodd" clip-rule="evenodd" d="M65.8779 66.2515C62.1113 66.2515 62.4073 60.9341 65.8779 60.9341C69.3486 60.9341 69.6446 66.2515 65.8779 66.2515ZM34.7539 66.2515C30.9873 66.2515 31.2833 60.9341 34.7539 60.9341C38.2246 60.9341 38.5206 66.2515 34.7539 66.2515ZM77.2573 46.6061H75.9813C74.8958 46.6058 73.8337 46.2914 72.923 45.7009C72.0122 45.1104 71.2918 44.269 70.8486 43.2781C70.4052 44.269 69.6847 45.1104 68.7738 45.7009C67.863 46.2914 66.8008 46.6058 65.7153 46.6061C64.6298 46.6058 63.5677 46.2914 62.657 45.7009C61.7462 45.1104 61.0258 44.269 60.5826 43.2781C60.1393 44.269 59.4188 45.1105 58.5079 45.701C57.597 46.2915 56.5348 46.6058 55.4493 46.6061C54.3638 46.6058 53.3017 46.2914 52.391 45.7009C51.4802 45.1104 50.7598 44.269 50.3166 43.2781C49.8734 44.269 49.153 45.1104 48.2422 45.7009C47.3315 46.2914 46.2694 46.6058 45.1839 46.6061C44.0984 46.6058 43.0362 46.2914 42.1254 45.7009C41.2145 45.1104 40.494 44.269 40.0506 43.2781C39.6074 44.269 38.887 45.1104 37.9762 45.7009C37.0655 46.2914 36.0034 46.6058 34.9179 46.6061C33.8325 46.6058 32.7704 46.2914 31.8596 45.7009C30.9489 45.1104 30.2285 44.269 29.7853 43.2781C29.342 44.269 28.6214 45.1105 27.7106 45.701C26.7997 46.2915 25.7375 46.6058 24.6519 46.6061H23.3906C21.4766 48.6655 22.6906 50.4048 27.4173 50.4048V60.9795C27.4173 70.9175 38.8606 75.8868 50.3039 75.8868C61.7479 75.8868 73.1913 70.9175 73.1913 60.9801V50.4041C77.9219 50.4041 79.1566 48.6641 77.2573 46.6055" fill="black"/>
<path fill-rule="evenodd" clip-rule="evenodd" d="M50.6813 12.5868C49.0053 12.5868 47.4013 13.1115 46.0693 14.0355C44.4604 13.4089 42.6933 13.3129 41.026 13.7615C39.4314 14.1908 38.0062 15.0973 36.9413 16.3595C36.6447 16.3259 36.3465 16.3089 36.048 16.3088C34.6327 16.3088 33.2347 16.6841 32.0047 17.3941C30.5762 18.2214 29.4345 19.4654 28.7327 20.9595C27.0261 21.2163 25.4475 22.0157 24.2307 23.2395C23.0634 24.4092 22.282 25.9081 21.9913 27.5348C20.4134 28.2277 19.0973 29.4053 18.234 30.8968C17.4104 32.3275 17.0438 33.9758 17.1833 35.6208C15.8365 36.6985 14.8694 38.1785 14.4233 39.8448C13.9982 41.4403 14.0708 43.1277 14.6313 44.6808C13.6097 46.0704 13.0589 47.7501 13.0593 49.4748C13.0593 51.1535 13.586 52.7588 14.5113 54.0921C13.884 55.6987 13.7866 57.4636 14.2333 59.1295C14.6631 60.7237 15.5695 62.1486 16.8313 63.2135C16.6414 64.9278 17.0044 66.658 17.8673 68.1515C18.6948 69.5808 19.9392 70.7231 21.434 71.4255C21.6945 73.13 22.4926 74.7069 23.712 75.9261C24.8785 77.0986 26.3782 77.8827 28.0067 78.1715C28.6999 79.7475 29.8779 81.0612 31.3693 81.9215C32.8008 82.7486 34.4512 83.1176 36.0987 82.9788C37.1761 84.3224 38.6543 85.287 40.318 85.7321C41.9153 86.1619 43.606 86.0914 45.162 85.5301C46.5501 86.548 48.2267 87.0966 49.948 87.0961C51.6233 87.0961 53.228 86.5715 54.5593 85.6475C55.4847 86.0088 56.48 86.1988 57.5047 86.1988C58.6822 86.1979 59.8454 85.9402 60.9131 85.4436C61.9808 84.947 62.9273 84.2234 63.6867 83.3235C63.9833 83.3568 64.282 83.3741 64.5813 83.3741C65.9967 83.3741 67.3947 82.9981 68.624 82.2888C70.0524 81.4617 71.194 80.218 71.896 78.7241C73.6025 78.4672 75.1811 77.6678 76.398 76.4441C77.565 75.274 78.3464 73.775 78.6373 72.1481C80.2151 71.4554 81.5312 70.278 82.3947 68.7868C83.2185 67.3559 83.5851 65.7073 83.4453 64.0621C84.7632 63.0074 85.7179 61.5666 86.1756 59.9418C86.6333 58.317 86.5709 56.5897 85.9973 55.0021C87.0187 53.6124 87.5695 51.9328 87.5693 50.2081C87.5693 48.5301 87.0427 46.9241 86.1173 45.5915C86.7444 43.9844 86.8416 42.219 86.3947 40.5528C85.9655 38.9587 85.0592 37.5339 83.7973 36.4695C83.9835 34.7916 83.6398 33.0975 82.8145 31.6247C81.9892 30.152 80.7237 28.9746 79.1953 28.2575C78.9348 26.5529 78.1365 24.9762 76.9167 23.7575C75.7505 22.5845 74.2506 21.8001 72.622 21.5115C71.9418 19.9673 70.7964 18.6741 69.3457 17.8124C67.895 16.9506 66.2114 16.5634 64.53 16.7048C63.4527 15.3614 61.9748 14.3968 60.3113 13.9515C58.714 13.5217 57.0233 13.5922 55.4673 14.1535C54.0791 13.1352 52.4023 12.5864 50.6807 12.5868H50.6813ZM50.682 16.5801C51.4812 16.5802 52.2629 16.8135 52.9314 17.2514C53.5999 17.6893 54.1261 18.3128 54.4453 19.0455C54.4748 19.1124 54.5232 19.1692 54.5846 19.209C54.6459 19.2488 54.7175 19.2698 54.7907 19.2695C54.8432 19.2698 54.8951 19.2585 54.9427 19.2363C54.9903 19.2142 55.0324 19.1818 55.066 19.1415C55.4514 18.6809 55.9329 18.3102 56.4767 18.0555C57.0205 17.8007 57.6135 17.6681 58.214 17.6668C59.1989 17.6667 60.151 18.0206 60.8968 18.6639C61.6426 19.3073 62.1323 20.1972 62.2767 21.1715C62.2868 21.2329 62.3123 21.2908 62.3508 21.3398C62.3893 21.3888 62.4395 21.4273 62.4968 21.4517C62.5541 21.4761 62.6166 21.4856 62.6786 21.4794C62.7406 21.4732 62.8 21.4514 62.8513 21.4161C63.545 20.9304 64.3712 20.6697 65.218 20.6695C65.7962 20.6703 66.3677 20.7932 66.8951 21.0303C67.4225 21.2673 67.8939 21.6131 68.2783 22.045C68.6628 22.4769 68.9516 22.9852 69.126 23.5365C69.3003 24.0878 69.3562 24.6697 69.29 25.2441C69.2845 25.3059 69.2946 25.368 69.3192 25.4249C69.3439 25.4818 69.3824 25.5316 69.4312 25.5699C69.48 25.6081 69.5376 25.6335 69.5988 25.6438C69.6599 25.6541 69.7227 25.6489 69.7813 25.6288C70.2339 25.464 70.7117 25.3796 71.1933 25.3795C71.8624 25.3802 72.5211 25.5443 73.1123 25.8577C73.7035 26.171 74.2091 26.624 74.5852 27.1773C74.9614 27.7307 75.1967 28.3675 75.2706 29.0325C75.3445 29.6974 75.2548 30.3704 75.0093 30.9928C74.9876 31.051 74.9808 31.1138 74.9897 31.1754C74.9986 31.2369 75.0228 31.2952 75.0601 31.3449C75.0974 31.3947 75.1466 31.4342 75.2032 31.4599C75.2598 31.4857 75.322 31.4967 75.384 31.4921C76.1636 31.422 76.9469 31.5764 77.6416 31.9372C78.3362 32.298 78.913 32.85 79.304 33.5281C79.7041 34.2213 79.8929 35.0163 79.8471 35.8153C79.8012 36.6144 79.5228 37.3826 79.046 38.0255C79.0099 38.0762 78.9872 38.1352 78.9799 38.197C78.9725 38.2588 78.9809 38.3215 79.0041 38.3792C79.0274 38.437 79.0647 38.488 79.1128 38.5275C79.1609 38.567 79.2182 38.5938 79.2793 38.6055C80.0589 38.7418 80.7825 39.1006 81.363 39.6386C81.9434 40.1766 82.356 40.871 82.551 41.638C82.746 42.4051 82.7151 43.2121 82.462 43.962C82.209 44.7119 81.7445 45.3727 81.1247 45.8648C81.0768 45.9045 81.0397 45.9555 81.0168 46.0133C80.9938 46.071 80.9857 46.1336 80.9932 46.1953C81.0007 46.257 81.0235 46.3159 81.0597 46.3665C81.0958 46.417 81.1441 46.4577 81.2 46.4848C81.9173 46.8177 82.5232 47.3508 82.9448 48.0198C83.3663 48.6889 83.5857 49.4655 83.5764 50.2562C83.5671 51.047 83.3295 51.8182 82.8924 52.4772C82.4552 53.1362 81.8369 53.6548 81.112 53.9708C80.8633 54.0795 80.8073 54.4175 81.0153 54.5908C81.6232 55.0983 82.0713 55.7708 82.3056 56.5272C82.5398 57.2836 82.5503 58.0917 82.3358 58.8539C82.1212 59.6161 81.6907 60.3 81.0962 60.8231C80.5018 61.3463 79.7687 61.6862 78.9853 61.8021C78.924 61.8124 78.8662 61.838 78.8173 61.8765C78.7684 61.915 78.73 61.9652 78.7057 62.0225C78.6813 62.0797 78.6717 62.1422 78.6778 62.2041C78.684 62.266 78.7056 62.3254 78.7407 62.3768C79.1961 63.0243 79.4546 63.7898 79.4849 64.5809C79.5152 65.3719 79.316 66.1549 78.9114 66.8354C78.5068 67.5159 77.9141 68.0648 77.2046 68.416C76.495 68.7672 75.6991 68.9057 74.9127 68.8148C74.8509 68.8094 74.7887 68.8196 74.7318 68.8444C74.675 68.8691 74.6252 68.9077 74.587 68.9565C74.5488 69.0054 74.5234 69.063 74.5131 69.1242C74.5028 69.1853 74.5079 69.2481 74.528 69.3068C74.797 70.0417 74.8502 70.8381 74.6814 71.6022C74.5126 72.3664 74.1288 73.0663 73.5753 73.6195C73.1951 74.0011 72.7431 74.3038 72.2454 74.5101C71.7477 74.7164 71.2141 74.8222 70.6753 74.8215C70.162 74.8215 69.6487 74.7255 69.164 74.5348C69.1227 74.518 69.0786 74.5094 69.034 74.5095C68.9829 74.5099 68.9325 74.5208 68.8858 74.5414C68.8391 74.5621 68.7971 74.5922 68.7625 74.6297C68.7279 74.6673 68.7013 74.7116 68.6845 74.7598C68.6677 74.808 68.6609 74.8592 68.6647 74.9101C68.7343 75.6896 68.5797 76.4727 68.219 77.1671C67.8582 77.8615 67.3064 78.4383 66.6287 78.8295C66.0069 79.1902 65.3008 79.3802 64.582 79.3801C63.6994 79.3796 62.8403 79.0962 62.1307 78.5715C62.0696 78.526 61.9955 78.5014 61.9193 78.5015C61.8322 78.5012 61.7478 78.5313 61.6806 78.5867C61.6134 78.6421 61.5677 78.7192 61.5513 78.8048C61.4155 79.5848 61.057 80.3088 60.519 80.8896C59.981 81.4704 59.2865 81.8832 58.5192 82.0783C57.752 82.2733 56.9446 82.2423 56.1946 81.9889C55.4445 81.7355 54.7838 81.2705 54.292 80.6501C54.258 80.6078 54.2149 80.5737 54.1658 80.5505C54.1167 80.5273 54.063 80.5155 54.0087 80.5161C53.9385 80.5152 53.8695 80.5344 53.81 80.5715C53.7504 80.6087 53.7028 80.6621 53.6727 80.7255C53.3398 81.443 52.8068 82.049 52.1376 82.4707C51.4685 82.8925 50.6918 83.1119 49.9009 83.1026C49.11 83.0933 48.3386 82.8557 47.6796 82.4183C47.0205 81.981 46.5019 81.3626 46.186 80.6375C46.1565 80.5705 46.1081 80.5137 46.0468 80.4739C45.9854 80.4341 45.9138 80.4131 45.8407 80.4135C45.7882 80.4129 45.7363 80.424 45.6886 80.4461C45.641 80.4681 45.5989 80.5005 45.5653 80.5408C45.1799 81.0013 44.6984 81.3718 44.1546 81.6266C43.6108 81.8813 43.0178 82.0141 42.4173 82.0155C41.4325 82.0156 40.4805 81.6618 39.7347 81.0186C38.989 80.3754 38.4992 79.4856 38.3547 78.5115C38.3447 78.4499 38.3193 78.3919 38.2808 78.3428C38.2424 78.2937 38.1921 78.2552 38.1348 78.2307C38.0774 78.2063 38.0148 78.1968 37.9527 78.2031C37.8907 78.2094 37.8313 78.2313 37.78 78.2668C37.0864 78.7525 36.2601 79.0132 35.4133 79.0135C34.8351 79.0124 34.2637 78.8892 33.7364 78.652C33.2091 78.4148 32.7379 78.0689 32.3535 77.637C31.9691 77.2051 31.6802 76.6969 31.5058 76.1456C31.3314 75.5944 31.2753 75.0125 31.3413 74.4381C31.347 74.3763 31.337 74.3141 31.3124 74.2571C31.2878 74.2001 31.2493 74.1502 31.2004 74.112C31.1516 74.0737 31.0939 74.0483 31.0327 74.0381C30.9714 74.0279 30.9086 74.0331 30.85 74.0535C30.3975 74.2184 29.9196 74.3028 29.438 74.3028C28.3873 74.3028 27.338 73.9028 26.5373 73.1015C25.9713 72.5353 25.5831 71.8161 25.4205 71.0322C25.2579 70.2483 25.3279 69.434 25.622 68.6895C25.6436 68.6312 25.6502 68.5685 25.6412 68.507C25.6323 68.4456 25.6081 68.3873 25.5708 68.3377C25.5335 68.288 25.4844 68.2484 25.4279 68.2227C25.3713 68.1969 25.3093 68.1857 25.2473 68.1901C24.4678 68.2602 23.6844 68.1057 22.9898 67.7449C22.2952 67.3842 21.7183 66.8322 21.3273 66.1541C20.9271 65.4609 20.7383 64.6657 20.7842 63.8666C20.83 63.0674 21.1085 62.2991 21.5853 61.6561C21.6212 61.6054 21.6439 61.5465 21.6511 61.4847C21.6583 61.423 21.65 61.3604 21.6267 61.3028C21.6035 61.2451 21.5662 61.1942 21.5182 61.1548C21.4702 61.1153 21.413 61.0885 21.352 61.0768C20.5725 60.9404 19.8491 60.5816 19.2688 60.0436C18.6885 59.5056 18.276 58.8114 18.0811 58.0444C17.8861 57.2775 17.9169 56.4706 18.1698 55.7208C18.4228 54.971 18.887 54.3103 19.5067 53.8181C19.5545 53.7784 19.5916 53.7274 19.6146 53.6696C19.6375 53.6119 19.6457 53.5493 19.6382 53.4876C19.6307 53.4259 19.6078 53.367 19.5717 53.3165C19.5355 53.2659 19.4873 53.2252 19.4313 53.1981C18.7141 52.865 18.1083 52.3318 17.6868 51.6627C17.2654 50.9935 17.0461 50.2169 17.0555 49.4261C17.0649 48.6354 17.3024 47.8641 17.7396 47.2051C18.1768 46.5462 18.7951 46.0275 19.52 45.7115C19.768 45.6028 19.824 45.2648 19.616 45.0915C19.0084 44.5838 18.5606 43.9113 18.3265 43.155C18.0924 42.3986 18.0819 41.5907 18.2965 40.8286C18.511 40.0665 18.9414 39.3827 19.5356 38.8595C20.1299 38.3364 20.8628 37.9963 21.646 37.8801C21.7073 37.8697 21.7649 37.844 21.8137 37.8054C21.8625 37.7669 21.9008 37.7167 21.9251 37.6596C21.9495 37.6024 21.9591 37.54 21.9531 37.4781C21.947 37.4162 21.9256 37.3569 21.8907 37.3055C21.4352 36.6579 21.1767 35.8925 21.1464 35.1014C21.1161 34.3103 21.3153 33.5273 21.7199 32.8469C22.1245 32.1664 22.7173 31.6175 23.4268 31.2663C24.1363 30.9151 24.9322 30.7766 25.7187 30.8675C25.7805 30.873 25.8427 30.8629 25.8997 30.8382C25.9567 30.8135 26.0065 30.775 26.0448 30.7261C26.083 30.6771 26.1084 30.6194 26.1186 30.5582C26.1289 30.497 26.1236 30.4341 26.1033 30.3755C25.8344 29.6405 25.7811 28.844 25.9498 28.0798C26.1184 27.3156 26.502 26.6156 27.0553 26.0621C27.4358 25.6807 27.888 25.3783 28.3858 25.1722C28.8836 24.9661 29.4172 24.8605 29.956 24.8615C30.4693 24.8615 30.9827 24.9568 31.4673 25.1481C31.51 25.1648 31.554 25.1728 31.5967 25.1728C31.6477 25.1725 31.6982 25.1617 31.7449 25.1411C31.7917 25.1204 31.8337 25.0905 31.8683 25.053C31.903 25.0155 31.9296 24.9713 31.9466 24.9231C31.9635 24.8749 31.9703 24.8237 31.9667 24.7728C31.8966 23.9846 32.0558 23.1929 32.4252 22.4931C32.7946 21.7932 33.3583 21.215 34.0486 20.8281C34.7389 20.4412 35.5263 20.262 36.316 20.3122C37.1058 20.3623 37.8642 20.6397 38.5 21.1108C38.5614 21.156 38.6357 21.1803 38.712 21.1801C38.799 21.1806 38.8835 21.1506 38.9507 21.0953C39.0179 21.04 39.0636 20.9629 39.08 20.8775C39.2163 20.0978 39.5751 19.3742 40.1131 18.7938C40.6512 18.2134 41.3455 17.8008 42.1125 17.6058C42.8796 17.4108 43.6867 17.4417 44.4366 17.6948C45.1865 17.9478 45.8472 18.4123 46.3393 19.0321C46.3731 19.0746 46.4161 19.1088 46.4651 19.1321C46.5141 19.1555 46.5677 19.1673 46.622 19.1668C46.7593 19.1668 46.8953 19.0935 46.9593 18.9561C47.2888 18.2463 47.8142 17.6455 48.4738 17.2244C49.1333 16.8033 49.8995 16.5796 50.682 16.5795" fill="black"/>
</g>
</svg>
