<svg width="100" height="100" viewBox="0 0 100 100" fill="none" xmlns="http://www.w3.org/2000/svg">
<path d="M17 0H71L95 25V87.5C95 90.8152 93.7357 93.9946 91.4853 96.3388C89.2348 98.683 86.1826 100 83 100H17C13.8174 100 10.7652 98.683 8.51472 96.3388C6.26428 93.9946 5 90.8152 5 87.5V12.5C5 9.18479 6.26428 6.00537 8.51472 3.66117C10.7652 1.31696 13.8174 0 17 0V0Z" fill="#339F58"/>
<path d="M95 25H83C79.8174 25 76.7652 23.683 74.5147 21.3388C72.2643 18.9946 71 15.8152 71 12.5V0L95 25Z" fill="#3C683B"/>
<path d="M29 37.5H23V81.25H29V37.5Z" fill="white"/>
<path d="M77 75H23V81.25H77V75Z" fill="white"/>
<path d="M53 37.5H47V81.25H53V37.5Z" fill="white"/>
<path d="M77 50H23V56.25H77V50ZM77 62.5H23V68.75H77V62.5ZM77 37.5H23V43.75H77V37.5Z" fill="white"/>
<path d="M77 37.5H71V81.25H77V37.5Z" fill="white"/>
</svg>
