<?xml version="1.0" encoding="UTF-8"?>
<svg fill="none" viewBox="0 0 100 100" xmlns="http://www.w3.org/2000/svg">
<path d="m76.654 51.058c-11.307 0-20.471 9.1644-20.471 20.469 0 11.306 9.1644 20.472 20.471 20.472 11.305 0 20.469-9.1663 20.469-20.472 0-11.305-9.1643-20.469-20.469-20.469zm-53.184 1e-3c-11.305 1e-3 -20.47 9.1634-20.47 20.469 0 11.305 9.1653 20.47 20.47 20.47 11.306 0 20.471-9.1653 20.471-20.47 0-11.306-9.1654-20.469-20.472-20.469h9e-4zm47.062-25.589c0 11.305-9.1643 20.472-20.469 20.472-11.307 0-20.471-9.1673-20.471-20.472 0-11.305 9.1643-20.47 20.471-20.47 11.305 0 20.468 9.1653 20.468 20.47h1e-3z" fill="url(#a)"/>
<defs>
<radialGradient id="a" cx="0" cy="0" r="1" gradientTransform="translate(50.074 52.602) scale(62.404 57.681)" gradientUnits="userSpaceOnUse">
<stop stop-color="#FFB900" offset="0"/>
<stop stop-color="#F95D8F" offset=".6"/>
<stop stop-color="#F95353" offset=".999"/>
</radialGradient>
</defs>
</svg>