<svg width="100" height="100" viewBox="0 0 100 100" fill="none" xmlns="http://www.w3.org/2000/svg">
<g clip-path="url(#clip0)">
<path d="M6.80677 87.5107H22.7099V48.8981L0.000488281 31.8824V80.7699C0.000488281 84.5002 3.0764 87.5107 6.80677 87.5107Z" fill="#557EBF"/>
<path d="M77.291 87.5107H93.1941C96.99 87.5107 100 84.4348 100 80.7044V31.817L77.291 48.8327V87.5107Z" fill="#36A852"/>
<path d="M77.291 19.317V48.8327L100 31.817V22.7202C100 14.2777 90.38 9.50026 83.6392 14.5395L77.291 19.317Z" fill="#F9BC15"/>
<path d="M22.71 48.8981V19.3824L50.0005 39.8667L77.2911 19.3824V48.8981L50.0005 69.317L22.71 48.8981Z" fill="#EA4535"/>
<path d="M0.000244141 22.7201V31.817L22.7097 48.8327V19.317L16.3615 14.5395C9.62066 9.50024 0.000244141 14.3432 0.000244141 22.7201Z" fill="#C52627"/>
</g>
<defs>
<clipPath id="clip0">
<rect width="100" height="100" fill="white"/>
</clipPath>
</defs>
</svg>
