<svg width="100" height="100" viewBox="0 0 100 100" fill="none" xmlns="http://www.w3.org/2000/svg">
<g clip-path="url(#clip0)">
<path fill-rule="evenodd" clip-rule="evenodd" d="M12.1766 80C10.0007 79.9965 7.86532 79.4105 5.992 78.3029C4.11868 77.1953 2.57558 75.6064 1.52276 73.7009C0.469929 71.7955 -0.0542963 69.6429 0.00444637 67.4664C0.063189 65.2898 0.702761 63.1687 1.85683 61.3229L23.7968 26.2105C25.543 23.5331 28.2695 21.6483 31.39 20.9614C34.5105 20.2745 37.7757 20.8404 40.4836 22.5373C43.1915 24.2342 45.1259 26.9266 45.8707 30.0357C46.6155 33.1448 46.1113 36.4221 44.4665 39.1631L22.5199 74.2721C21.423 76.0263 19.898 77.4722 18.0885 78.4737C16.2789 79.4752 14.2444 79.9993 12.1766 79.9967V80Z" fill="#FF3D57"/>
<path d="M49.988 80C47.8104 80.0001 45.6725 79.4167 43.7963 78.3106C41.9201 77.2044 40.3742 75.6158 39.3189 73.7097C38.2637 71.8036 37.7377 69.6496 37.7956 67.4714C37.8535 65.2931 38.4931 63.1701 39.6481 61.3228L61.6049 26.2104C62.4148 24.7724 63.508 23.5138 64.8181 22.5107C66.1283 21.5077 67.6283 20.7811 69.2272 20.375C70.8261 19.9689 72.4908 19.8917 74.1204 20.148C75.75 20.4043 77.3107 20.9889 78.708 21.8663C80.1054 22.7437 81.3102 23.8958 82.2496 25.2526C83.1891 26.6095 83.8436 28.143 84.1736 29.7604C84.5035 31.3777 84.5021 33.0453 84.1693 34.662C83.8365 36.2788 83.1794 37.8112 82.2376 39.1664L60.3246 74.2755C59.2275 76.0294 57.7025 77.4751 55.893 78.4766C54.0835 79.478 52.0491 80.0023 49.9813 80H49.9846H49.988Z" fill="#FFCB00"/>
<path d="M75.5771 68.0825C75.5771 61.4848 81.0251 56.1682 87.7903 56.1682C94.5522 56.1682 100 61.4814 100 68.0825C100 74.6836 94.5522 79.9968 87.7903 79.9968C81.0251 79.9968 75.5771 74.6836 75.5771 68.0825Z" fill="#00D647"/>
</g>
<defs>
<clipPath id="clip0">
<rect width="100" height="100" fill="white"/>
</clipPath>
</defs>
</svg>
