<svg width="100" height="100" viewBox="0 0 100 100" fill="none" xmlns="http://www.w3.org/2000/svg">
<path d="M17 0H71L95 25V87.5C95 90.8152 93.7357 93.9946 91.4853 96.3388C89.2348 98.683 86.1826 100 83 100H17C13.8174 100 10.7652 98.683 8.51472 96.3388C6.26428 93.9946 5 90.8152 5 87.5V12.5C5 9.18479 6.26428 6.00537 8.51472 3.66117C10.7652 1.31696 13.8174 0 17 0V0Z" fill="#F5BA14"/>
<path d="M95 25H83C79.8174 25 76.7652 23.683 74.5147 21.3388C72.2643 18.9946 71 15.8152 71 12.5V0L95 25Z" fill="#FADC87"/>
<path d="M72.875 37H27.125C24.8562 37 23 38.8563 23 41.125V76.875C23 79.1437 24.8562 81 27.125 81H72.875C75.1437 81 77 79.1437 77 76.875V41.125C77 38.8563 75.1437 37 72.875 37ZM71.5 68.625H28.5V49.375H71.5V68.625Z" fill="white"/>
</svg>
