<svg width="100" height="100" viewBox="0 0 100 100" fill="none" xmlns="http://www.w3.org/2000/svg">
<path d="M31.5974 32.3929H26.5169L40.3678 71.5463L48.122 49.3875L42.1101 32.3929H36.7497V28.6621H60.4874V32.3929H54.9286L68.7794 71.5463L73.7582 57.3182C80.2895 39.0893 68.4052 33.4109 68.4052 29.3427C68.4052 25.2745 71.7032 21.9767 75.7712 21.9767C75.9913 21.9767 76.205 21.9886 76.4144 22.0082C69.5215 15.5012 60.227 11.5109 49.9998 11.5109C36.6362 11.5109 24.865 18.3226 17.9645 28.6621H31.597V32.3929H31.5974Z" fill="#00769D"/>
<path d="M11.5109 50.0002C11.5109 64.7359 19.7932 77.5353 31.9553 84.003L14.5859 34.9034C12.6072 39.5389 11.5109 44.6414 11.5109 50.0002Z" fill="#00769D"/>
<path d="M83.4969 31.0338C84.0475 34.2755 83.8808 37.9189 83.036 41.5765H83.1891L82.6071 43.2395C82.2622 44.4403 81.828 45.6686 81.3348 46.8755L68.0911 83.978C80.2277 77.5025 88.4889 64.7168 88.4889 49.9999C88.4889 43.1037 86.6734 36.632 83.4969 31.0338Z" fill="#00769D"/>
<path d="M38.1296 86.6207C41.8688 87.8319 45.8573 88.4889 50.0001 88.4889C53.9516 88.4889 57.7636 87.8925 61.3521 86.7863L50.0936 54.9611L38.1296 86.6207Z" fill="#00769D"/>
<path d="M82.527 17.473C73.8387 8.78482 62.287 4 49.9999 4C37.7128 4 26.1613 8.78482 17.473 17.473C8.78482 26.1613 4 37.7128 4 50.0001C4 62.2872 8.78482 73.8387 17.473 82.527C26.1613 91.2152 37.713 96 50.0001 96C62.2872 96 73.8387 91.2152 82.5272 82.527C91.2154 73.8387 96.0002 62.287 96.0002 50.0001C96 37.7128 91.2152 26.1613 82.527 17.473ZM49.9999 92.755C26.4247 92.755 7.24496 73.5753 7.24496 50.0001C7.24496 26.4249 26.4247 7.24496 49.9999 7.24496C73.5751 7.24496 92.7548 26.4249 92.7548 50.0001C92.7548 73.5753 73.5753 92.755 49.9999 92.755Z" fill="#00769D"/>
</svg>
