<svg width="100" height="100" viewBox="0 0 100 100" fill="none" xmlns="http://www.w3.org/2000/svg">
<path d="M76.6543 51.0583C65.3474 51.0583 56.183 60.2227 56.183 71.5277C56.183 82.8337 65.3474 92 76.6543 92C87.9592 92 97.1235 82.8337 97.1235 71.5277C97.1235 60.2227 87.9592 51.0583 76.6543 51.0583ZM23.4702 51.0593C12.1653 51.0603 3 60.2227 3 71.5287C3 82.8337 12.1653 91.999 23.4702 91.999C34.7761 91.999 43.9415 82.8337 43.9415 71.5287C43.9415 60.2226 34.7761 51.0593 23.4693 51.0593H23.4702ZM70.5321 25.4703C70.5321 36.7754 61.3678 45.9427 50.0628 45.9427C38.7559 45.9427 29.5916 36.7754 29.5916 25.4703C29.5916 14.1653 38.7559 5 50.0627 5C61.3677 5 70.5311 14.1653 70.5311 25.4703H70.5321Z" fill="url(#paint0_radial)"/>
<defs>
<radialGradient id="paint0_radial" cx="0" cy="0" r="1" gradientUnits="userSpaceOnUse" gradientTransform="translate(50.0745 52.6016) scale(62.4039 57.681)">
<stop stop-color="#FFB900"/>
<stop offset="0.6" stop-color="#F95D8F"/>
<stop offset="0.999" stop-color="#F95353"/>
</radialGradient>
</defs>
</svg>
