<svg width="100" height="100" viewBox="0 0 100 100" fill="none" xmlns="http://www.w3.org/2000/svg">
<path d="M57.5713 49.7255C57.5713 35.7872 67.5705 27.303 80.5998 27.303C92.1141 27.303 99.9923 33.0601 99.9923 41.2413C99.9923 49.1195 93.3261 53.9676 86.054 53.9676C81.8119 53.9676 79.0848 53.3616 76.9638 51.5435C76.3577 51.2405 76.0547 51.2405 76.0547 52.1495C76.0547 55.1796 77.2668 57.3007 79.0848 59.4217C80.5998 60.9367 83.6299 62.1488 86.357 62.1488C89.387 62.1488 91.8111 61.5427 94.2352 60.3307C96.6592 59.1187 98.1742 59.7247 99.3863 61.5427C100.901 63.6638 99.0833 66.3908 97.2652 68.2089C94.2351 71.239 88.478 73.663 81.2058 73.663C66.3585 72.754 57.8743 63.0578 57.5713 49.7255V49.7255ZM27.5736 59.1187C28.7857 59.1187 29.9977 59.7247 30.6037 61.5427L34.8458 68.2089C36.3608 70.6329 37.8759 72.451 40.6029 72.451C43.33 72.451 45.148 71.239 46.6631 67.9059C48.4811 63.9668 50.6022 58.5127 52.1172 51.8465C54.2382 43.9684 55.1473 39.4233 55.1473 35.7872C55.1473 32.1511 53.9352 29.7271 49.6931 28.818C43.936 27.303 35.7548 27 27.5736 27C19.3924 27 11.2113 27.303 5.45412 28.515C1.21203 29.4241 0 31.5451 0 35.4842C0 39.4233 0.909021 43.9684 2.72706 51.5435C4.5451 58.5127 6.36315 63.3608 8.18119 67.6029C9.69622 70.9359 11.2113 72.148 13.9383 72.148C16.6654 72.148 18.1804 70.3299 19.6954 67.9059L23.9375 61.2397C25.1496 60.0277 26.0586 59.1187 27.5736 59.1187V59.1187Z" fill="black"/>
</svg>
