<svg width="100" height="100" viewBox="0 0 100 100" fill="none" xmlns="http://www.w3.org/2000/svg">
<path d="M92.3777 32.108C88.879 23.8521 83.0454 16.8322 75.7052 11.8685C68.3671 6.90483 59.5042 3.99874 50 4C43.6653 3.99964 37.6113 5.29016 32.1083 7.62214C23.8526 11.121 16.8326 16.9542 11.8687 24.2944C6.90501 31.6322 3.99874 40.4953 4 50C3.99964 56.3349 5.29034 62.3891 7.62232 67.892C11.121 76.1479 16.9548 83.1678 24.2948 88.1315C31.6329 93.0952 40.4958 96.0013 50 96C56.3345 96.0004 62.3887 94.7098 67.8917 92.3779C76.1474 88.8792 83.1674 83.0458 88.1313 75.7056C93.0952 68.3677 96.0013 59.5044 96 50C96.0004 43.6649 94.7097 37.6109 92.3777 32.108V32.108ZM86.7305 65.4993C83.7025 72.6475 78.6364 78.7466 72.2699 83.0506C65.9013 87.3547 58.2507 89.8655 50.0002 89.8667C44.4983 89.8664 39.2676 88.7494 34.5012 86.7305C27.3531 83.7027 21.254 78.6366 16.9499 72.2701C12.6455 65.9014 10.1345 58.2507 10.1333 50C10.1336 44.498 11.2508 39.2671 13.2695 34.5007C16.2975 27.3525 21.3636 21.2534 27.7301 16.9494C34.0987 12.6451 41.7495 10.1344 50 10.1331C55.5019 10.1335 60.7326 11.2504 65.4989 13.2694C72.6471 16.2971 78.7462 21.3632 83.0503 27.7297C87.3543 34.0984 89.8653 41.7489 89.8665 50C89.8662 55.502 88.7492 60.7329 86.7305 65.4993V65.4993Z" fill="#218CFF"/>
<path d="M75.5683 40.088C75.5685 38.2286 74.2965 36.7215 72.7276 36.7215C72.1737 36.7215 71.6128 36.9225 71.1517 37.2867C68.1862 39.629 64.7784 40.7976 61.3637 40.7984C57.9494 40.7978 54.5413 39.629 51.5759 37.2867C51.5754 37.2863 51.5745 37.2859 51.5738 37.2853C47.6584 34.1926 43.1441 32.6436 38.6361 32.6444C34.1276 32.6438 29.6125 34.193 25.6964 37.2867L25.6966 37.2872C24.9339 37.8909 24.4314 38.9194 24.4314 40.0878C24.4314 41.9468 25.7034 43.4541 27.2723 43.4541C27.8262 43.4541 28.3873 43.2527 28.8483 42.8886C31.8137 40.5464 35.2216 39.3778 38.636 39.377C42.0503 39.3776 45.4584 40.5464 48.4238 42.8886C52.3397 45.9824 56.8548 47.5318 61.3634 47.531C65.872 47.5316 70.387 45.9822 74.3029 42.8886L74.3028 42.8884C75.0658 42.2849 75.5683 41.2564 75.5683 40.088V40.088Z" fill="#218CFF"/>
<path d="M75.5683 57.9963C75.5685 56.1369 74.2965 54.6298 72.7276 54.6298C72.1737 54.6298 71.6128 54.8308 71.1517 55.1951C68.1862 57.5373 64.7784 58.7059 61.3637 58.7067C57.9494 58.7061 54.5413 57.5373 51.5759 55.1951C51.5754 55.1947 51.5745 55.1943 51.5738 55.1937C47.6584 52.1009 43.1441 50.5519 38.6361 50.5527C34.1276 50.5521 29.6125 52.1013 25.6964 55.1951L25.6966 55.1955C24.9339 55.7992 24.4314 56.8277 24.4314 57.9961C24.4314 59.8552 25.7034 61.3624 27.2723 61.3624C27.8262 61.3624 28.3873 61.161 28.8483 60.797C31.8137 58.4547 35.2216 57.2861 38.636 57.2853C42.0503 57.2859 45.4584 58.4547 48.4238 60.797C52.3397 63.8907 56.8548 65.4401 61.3634 65.4393C65.872 65.4399 70.387 63.8905 74.3029 60.797L74.3028 60.7968C75.0658 60.1932 75.5683 59.1647 75.5683 57.9963V57.9963Z" fill="#218CFF"/>
</svg>
