<svg width="100" height="100" viewBox="0 0 100 100" fill="none" xmlns="http://www.w3.org/2000/svg">
<g clip-path="url(#clip0)">
<path d="M99.9999 10.2364V71.4546L65.4544 75.0909L23.6362 71.4546V10.2364C23.6353 9.67977 23.7442 9.12846 23.9568 8.61405C24.1693 8.09964 24.4813 7.63225 24.8749 7.23867C25.2685 6.8451 25.7359 6.53309 26.2503 6.32053C26.7647 6.10797 27.316 5.99905 27.8726 6.00001H95.7635C96.3201 5.99905 96.8714 6.10797 97.3858 6.32053C97.9002 6.53309 98.3676 6.8451 98.7612 7.23867C99.1548 7.63225 99.4668 8.09964 99.6794 8.61405C99.8919 9.12846 100.001 9.67977 99.9999 10.2364Z" fill="#37C6D0"/>
<path d="M99.9998 45.7454V60.2727L98.7089 62.1091H58.1816L83.7271 36.5636C84.192 36.0968 84.7445 35.7263 85.3529 35.4736C85.9614 35.2208 86.6137 35.0907 87.2726 35.0907C87.9314 35.0907 88.5837 35.2208 89.1922 35.4736C89.8006 35.7263 90.3531 36.0968 90.818 36.5636L99.9998 45.7454Z" fill="#1A9BA1"/>
<path d="M99.9999 60.2728V71.4546L65.4544 75.0909L23.6362 71.4546V71.2L27.7999 67.0364L63.7271 31.1091C64.192 30.6423 64.7446 30.2719 65.353 30.0191C65.9614 29.7663 66.6138 29.6362 67.2726 29.6362C67.9314 29.6362 68.5838 29.7663 69.1922 30.0191C69.8006 30.2719 70.3531 30.6423 70.818 31.1091L80.909 41.2L99.9999 60.2728Z" fill="#038387"/>
<path d="M87.2729 24.1818C90.2854 24.1818 92.7274 21.7397 92.7274 18.7273C92.7274 15.7148 90.2854 13.2727 87.2729 13.2727C84.2604 13.2727 81.8184 15.7148 81.8184 18.7273C81.8184 21.7397 84.2604 24.1818 87.2729 24.1818Z" fill="#86F2F2"/>
<path d="M27.878 93.2728H95.758C96.8829 93.2723 97.9615 92.8252 98.7569 92.0298C99.5523 91.2345 99.9994 90.1558 99.9999 89.031V71.4546H23.6362V89.031C23.6367 90.1558 24.0838 91.2345 24.8792 92.0298C25.6746 92.8252 26.7532 93.2723 27.878 93.2728V93.2728Z" fill="#036C70"/>
<path opacity="0.2" d="M52.7271 28.4181V76.309C52.7309 76.5534 52.7065 76.7975 52.6544 77.0363C52.4889 78.0198 51.9794 78.9125 51.2168 79.5553C50.4542 80.198 49.4881 80.5489 48.4908 80.5454H23.6362V24.1818H48.4908C49.0474 24.1808 49.5987 24.2897 50.1131 24.5023C50.6275 24.7148 51.0949 25.0269 51.4885 25.4204C51.882 25.814 52.1941 26.2814 52.4066 26.7958C52.6192 27.3102 52.7281 27.8615 52.7271 28.4181Z" fill="black"/>
<path opacity="0.1" d="M54.5453 28.4182V72.6727C54.5306 74.2739 53.888 75.8054 52.7557 76.9377C51.6235 78.07 50.092 78.7126 48.4908 78.7273H23.6362V22.3636H48.4908C50.0948 22.3694 51.6314 23.0091 52.7656 24.1433C53.8998 25.2775 54.5396 26.8142 54.5453 28.4182V28.4182Z" fill="black"/>
<path opacity="0.2" d="M52.7271 28.4181V72.6727C52.7281 73.2293 52.6192 73.7806 52.4066 74.295C52.1941 74.8094 51.882 75.2768 51.4885 75.6704C51.0949 76.064 50.6275 76.376 50.1131 76.5885C49.5987 76.8011 49.0474 76.91 48.4908 76.909H23.6362V24.1818H48.4908C49.0474 24.1808 49.5987 24.2897 50.1131 24.5023C50.6275 24.7148 51.0949 25.0269 51.4885 25.4204C51.882 25.814 52.1941 26.2814 52.4066 26.7958C52.6192 27.3102 52.7281 27.8615 52.7271 28.4181Z" fill="black"/>
<path opacity="0.1" d="M50.909 28.4181V72.6727C50.9099 73.2293 50.801 73.7806 50.5884 74.295C50.3759 74.8094 50.0639 75.2768 49.6703 75.6704C49.2767 76.064 48.8093 76.376 48.2949 76.5885C47.7805 76.8011 47.2292 76.91 46.6726 76.909H23.6362V24.1818H46.6726C47.2292 24.1808 47.7805 24.2897 48.2949 24.5023C48.8093 24.7148 49.2767 25.0269 49.6703 25.4204C50.0639 25.814 50.3759 26.2814 50.5884 26.7958C50.801 27.3102 50.9099 27.8615 50.909 28.4181V28.4181Z" fill="black"/>
<path d="M46.6673 24.1818H4.24182C1.89913 24.1818 0 26.0809 0 28.4236V70.849C0 73.1917 1.89913 75.0909 4.24182 75.0909H46.6673C49.01 75.0909 50.9091 73.1917 50.9091 70.849V28.4236C50.9091 26.0809 49.01 24.1818 46.6673 24.1818Z" fill="url(#paint0_linear)"/>
<path d="M18.5802 49.1182C17.5849 48.4576 16.7545 47.5774 16.1529 46.5454C15.5674 45.4691 15.2758 44.2576 15.3075 43.0327C15.2559 41.3759 15.8157 39.7579 16.8802 38.4873C17.998 37.2123 19.4446 36.2689 21.062 35.76C22.9034 35.1528 24.8323 34.8537 26.7711 34.8745C29.3209 34.7807 31.8672 35.1377 34.2929 35.9291V41.2418C33.2387 40.6013 32.0901 40.1313 30.8893 39.8491C29.5877 39.5278 28.2517 39.3672 26.9111 39.3709C25.4978 39.3202 24.0936 39.6173 22.822 40.2363C22.3418 40.4432 21.9324 40.786 21.6443 41.2223C21.3562 41.6587 21.2018 42.1698 21.2002 42.6927C21.194 43.3406 21.4406 43.9654 21.8875 44.4345C22.4182 44.9845 23.0449 45.4331 23.7366 45.7582C24.5123 46.1412 25.6699 46.6515 27.2093 47.2891C27.3802 47.3431 27.5467 47.4099 27.7075 47.4891C29.2251 48.0824 30.6892 48.8045 32.0838 49.6473C33.14 50.2991 34.0267 51.192 34.6711 52.2527C35.3332 53.4541 35.6563 54.8128 35.6057 56.1836C35.6791 57.8827 35.1583 59.5542 34.1329 60.9109C33.1069 62.1683 31.7325 63.0949 30.182 63.5745C28.3677 64.1433 26.4741 64.4183 24.5729 64.3891C22.867 64.3974 21.1637 64.2574 19.482 63.9709C18.0618 63.7448 16.6749 63.3442 15.3529 62.7782V57.1673C16.62 58.0694 18.0353 58.7426 19.5347 59.1563C21.0237 59.6209 22.5716 59.8688 24.1311 59.8927C25.5751 59.985 27.0167 59.6787 28.2984 59.0073C28.736 58.7568 29.0977 58.3924 29.3448 57.9528C29.592 57.5133 29.7154 57.015 29.702 56.5109C29.7047 56.1562 29.6365 55.8045 29.5017 55.4764C29.3668 55.1483 29.1679 54.8503 28.9166 54.6C28.2826 53.9792 27.5495 53.4686 26.7475 53.0891C25.8263 52.6236 24.4632 52.0133 22.6584 51.2582C21.2316 50.6814 19.8655 49.9646 18.5802 49.1182V49.1182Z" fill="white"/>
</g>
<defs>
<linearGradient id="paint0_linear" x1="8.84546" y1="20.8672" x2="42.0636" y2="78.4054" gradientUnits="userSpaceOnUse">
<stop stop-color="#058F92"/>
<stop offset="0.5" stop-color="#038489"/>
<stop offset="1" stop-color="#026D71"/>
</linearGradient>
<clipPath id="clip0">
<rect width="100" height="100" fill="white"/>
</clipPath>
</defs>
</svg>
