<svg width="100" height="100" viewBox="0 0 100 100" fill="none" xmlns="http://www.w3.org/2000/svg">
<path d="M44.6324 9.05508L7.36739 24.4749C5.29507 25.3325 5.31654 28.276 7.40185 29.1025L44.8228 43.9421C48.1109 45.246 51.7725 45.246 55.06 43.9421L92.4815 29.1025C94.5663 28.276 94.5883 25.3325 92.5154 24.4749L55.251 9.05508C51.851 7.64831 48.0318 7.64831 44.6324 9.05508Z" fill="#FFBF00"/>
<path d="M53.2612 52.0457V89.1169C53.2612 90.8802 55.0392 92.0875 56.6782 91.4378L98.3765 75.2525C99.3285 74.8751 99.9528 73.9553 99.9528 72.9316V35.8604C99.9528 34.0971 98.1748 32.8898 96.5358 33.5395L54.8375 49.7248C53.8861 50.1022 53.2612 51.022 53.2612 52.0457Z" fill="#26B5F8"/>
<path d="M43.5245 53.9585L31.1494 59.9337L29.8929 60.541L3.76974 73.058C2.1138 73.8569 0.000244141 72.6501 0.000244141 70.8105V36.0162C0.000244141 35.3506 0.341487 34.7761 0.799114 34.3433C0.990075 34.1518 1.20646 33.9941 1.43132 33.8693C2.05561 33.4947 2.94601 33.3947 3.70307 33.6941L43.3166 49.3896C45.3302 50.1885 45.4884 53.01 43.5245 53.9585Z" fill="#ED3049"/>
<path d="M43.5245 53.9586L31.1494 59.9337L0.799072 34.3433C0.990033 34.1518 1.20642 33.9941 1.43128 33.8693C2.05557 33.4947 2.94596 33.3947 3.70303 33.6941L43.3166 49.3896C45.3301 50.1885 45.4883 53.01 43.5245 53.9586Z" fill="black" fill-opacity="0.25"/>
</svg>
