<svg width="100" height="100" viewBox="0 0 100 100" fill="none" xmlns="http://www.w3.org/2000/svg">
<path d="M56.1711 49.5001L65.3337 59.9271L77.6544 67.7662L79.8027 49.5642L77.6544 31.7687L65.0974 38.6559L56.1711 49.5001Z" fill="#00832D"/>
<path d="M3 66.0764V81.5834C3 85.1286 5.88413 88 9.44498 88H25.0203L28.2428 76.2789L25.0203 66.0764L14.3324 62.8681L3 66.0764Z" fill="#0066DA"/>
<path d="M25.0203 11L3 32.9236L14.3324 36.1319L25.0203 32.9236L28.1891 22.8601L25.0203 11Z" fill="#E94235"/>
<path d="M25.0203 32.9235H3V66.0762H25.0203V32.9235Z" fill="#2684FC"/>
<path d="M91.7259 20.2822L77.6544 31.768V67.7655L91.7903 79.3048C93.9064 80.9518 97 79.4492 97 76.7702V22.7633C97 20.0523 93.8366 18.5658 91.7259 20.2822ZM56.1711 49.4994V66.0758H25.0204V87.9994H71.2094C74.7702 87.9994 77.6544 85.1279 77.6544 81.5827V67.7655L56.1711 49.4994Z" fill="#00AC47"/>
<path d="M71.2094 11H25.0204V32.9236H56.1711V49.5L77.6544 31.7793V17.4167C77.6544 13.8715 74.7702 11 71.2094 11Z" fill="#FFBA00"/>
</svg>
