<svg width="100" height="100" viewBox="0 0 100 100" fill="none" xmlns="http://www.w3.org/2000/svg">
<path d="M7.92079 9.00024C7.49992 8.99479 7.08295 9.08163 6.69918 9.25466C6.31541 9.42769 5.97415 9.68271 5.69935 10.0018C5.42454 10.3209 5.22288 10.6964 5.1085 11.1018C4.99412 11.5072 4.96982 11.9328 5.03728 12.3486L17.2783 86.7239C17.4308 87.634 17.8988 88.4613 18.6002 89.0604C19.3016 89.6595 20.1914 89.9921 21.1135 89.9998H79.8383C80.5294 90.0086 81.2007 89.7686 81.7299 89.3237C82.2591 88.8787 82.6109 88.2583 82.7215 87.5754L94.9628 12.363C95.0302 11.9472 95.0058 11.5217 94.8913 11.1163C94.7769 10.711 94.5752 10.3356 94.3003 10.0166C94.0255 9.69755 93.6842 9.44261 93.3005 9.26964C92.9167 9.09668 92.4998 9.00989 92.079 9.01537L7.92079 9.00024ZM59.4653 62.7543H40.7218L35.6467 36.2165H64.0071L59.4653 62.7543Z" fill="#2684FF"/>
<path d="M90.995 36.1791H63.9543L59.416 62.6958H40.6876L18.5737 88.9673C19.2746 89.5738 20.1682 89.9111 21.0948 89.9187H79.7872C80.4778 89.9277 81.1487 89.688 81.6776 89.2434C82.2064 88.7988 82.5581 88.1789 82.6686 87.4965L90.995 36.1791Z" fill="url(#paint0_linear)"/>
<defs>
<linearGradient id="paint0_linear" x1="97.2471" y1="43.6049" x2="65.9744" y2="87.9698" gradientUnits="userSpaceOnUse">
<stop offset="0.18" stop-color="#0052CC"/>
<stop offset="1" stop-color="#2684FF"/>
</linearGradient>
</defs>
</svg>
