<svg width="100" height="100" viewBox="0 0 100 100" fill="none" xmlns="http://www.w3.org/2000/svg">
<rect x="4" y="3.07819" width="92" height="94.3977" rx="20" fill="#001E36"/>
<path d="M45.2505 85.9172L45.2539 85.9205C46.6053 87.2651 48.3066 87.9383 50.0636 87.9383C51.8198 87.9383 53.5232 87.2656 54.8277 85.9216L54.8279 85.9213L84.2608 55.5C84.261 55.4997 84.2613 55.4994 84.2615 55.4992C86.9139 52.8048 86.9115 48.3612 84.2623 45.6231L54.8295 15.2017C54.8292 15.2014 54.829 15.2012 54.8287 15.2009C52.2175 12.4547 47.9042 12.4573 45.2505 15.2001L45.2505 15.2001L15.8218 45.6215C15.8215 45.6217 15.8213 45.622 15.821 45.6222C13.1686 48.3166 13.171 52.7602 15.8202 55.4984L45.2505 85.9172ZM53.4523 16.5935L53.4523 16.5936L53.4566 16.598L82.8909 47.0209C84.7765 48.9699 84.7765 52.1558 82.8909 54.1047L53.4566 84.5276C51.5755 86.4719 48.5071 86.4719 46.626 84.5276L17.1916 54.1047C15.306 52.1558 15.306 48.9699 17.1916 47.0209L46.626 16.598C47.5892 15.6024 48.8242 15.1282 50.0636 15.1282C51.3045 15.1282 52.5363 15.599 53.4523 16.5935Z" fill="#1D71AE" stroke="#1D71AE" stroke-width="0.5"/>
<path d="M38.4844 53.3873V61.3072H33V37.9643H42.0781C43.8177 37.9643 45.3542 38.2956 46.6875 38.9583C48.0312 39.6103 49.0677 40.5455 49.7969 41.7639C50.5365 42.9717 50.9062 44.3451 50.9062 45.8842C50.9062 48.1608 50.1094 49.9831 48.5156 51.3512C46.9323 52.7086 44.7552 53.3873 41.9844 53.3873H38.4844ZM38.4844 49.0426H42.0781C43.1406 49.0426 43.9479 48.77 44.5 48.2249C45.0625 47.6798 45.3438 46.9103 45.3438 45.9163C45.3438 44.8261 45.0573 43.955 44.4844 43.303C43.9115 42.651 43.1302 42.3197 42.1406 42.309H38.4844V49.0426Z" fill="#31A8FF"/>
<path d="M62.4531 56.4334C62.4531 55.9738 62.2188 55.6051 61.75 55.3272C61.2812 55.0493 60.3906 54.7607 59.0781 54.4614C57.7656 54.1622 56.6823 53.7721 55.8281 53.2911C54.974 52.7994 54.3229 52.2062 53.875 51.5115C53.4271 50.8168 53.2031 50.0205 53.2031 49.1227C53.2031 47.5302 53.8438 46.2209 55.125 45.1948C56.4062 44.1581 58.0833 43.6397 60.1562 43.6397C62.3854 43.6397 64.1771 44.1581 65.5312 45.1948C66.8854 46.2316 67.5625 47.5943 67.5625 49.283H62.2812C62.2812 47.8936 61.5677 47.1989 60.1406 47.1989C59.5885 47.1989 59.125 47.3592 58.75 47.6798C58.375 47.9898 58.1875 48.3799 58.1875 48.8502C58.1875 49.3311 58.4167 49.7213 58.875 50.0205C59.3333 50.3198 60.0625 50.5656 61.0625 50.758C62.0729 50.9504 62.9583 51.1802 63.7188 51.4474C66.2604 52.3452 67.5312 53.9538 67.5312 56.2731C67.5312 57.8549 66.8438 59.1429 65.4688 60.1369C64.1042 61.1309 62.3333 61.6278 60.1562 61.6278C58.7083 61.6278 57.4167 61.3606 56.2812 60.8262C55.1458 60.2918 54.2604 59.565 53.625 58.6459C52.9896 57.7267 52.6719 56.7594 52.6719 55.744H57.5938C57.6146 56.5456 57.875 57.1335 58.375 57.5076C58.875 57.871 59.5156 58.0527 60.2969 58.0527C61.0156 58.0527 61.5521 57.903 61.9062 57.6038C62.2708 57.3045 62.4531 56.9144 62.4531 56.4334Z" fill="#31A8FF"/>
</svg>
