<svg width="100" height="100" viewBox="0 0 100 100" fill="none" xmlns="http://www.w3.org/2000/svg">
<g clip-path="url(#clip0)">
<path d="M4.02693 25.3625L49.1719 47.093C49.6957 47.345 50.3059 47.345 50.8297 47.093L95.9747 25.3622C97.4178 24.6682 97.4178 22.6133 95.9747 21.9191L50.8291 0.189122C50.3057 -0.0628777 49.6954 -0.0628777 49.1717 0.189122L4.02693 21.9193C2.5838 22.6136 2.5838 24.6682 4.02693 25.3625Z" fill="#222A30"/>
<path d="M4.02624 51.721L49.1713 73.4518C49.695 73.7038 50.3052 73.7038 50.829 73.4518L95.974 51.7213C97.4171 51.0273 97.4171 48.9724 95.974 48.2776L86.4494 43.6936L56.1978 58.2541C54.2761 59.1787 52.1327 59.6673 50.0001 59.6673C47.8675 59.6673 45.7247 59.1787 43.7996 58.2527L13.5514 43.6924L4.02595 48.2773C2.5831 48.9724 2.5831 51.027 4.02624 51.721Z" fill="#222A30"/>
<path d="M95.974 74.6366L86.4494 70.0518L56.1978 84.6131C54.2761 85.5377 52.1327 86.0263 50.0001 86.0263C47.8675 86.0263 45.7247 85.5377 43.7996 84.6117L13.5514 70.0518L4.02596 74.6369C2.58282 75.3317 2.58282 77.3857 4.02596 78.0806L49.171 99.8111C49.6947 100.063 50.305 100.063 50.8287 99.8111L95.9737 78.0806C97.4171 77.3854 97.4171 75.3312 95.974 74.6366Z" fill="#222A30"/>
</g>
<defs>
<clipPath id="clip0">
<rect width="100" height="100" fill="white"/>
</clipPath>
</defs>
</svg>
