<svg width="100" height="100" viewBox="0 0 100 100" fill="none" xmlns="http://www.w3.org/2000/svg">
<path d="M19.7094 3.0769H80.6496C89.8889 3.0769 97.359 10.7385 97.359 20.2148V80.298C97.359 89.7743 89.8889 97.4359 80.6496 97.4359H19.7094C10.4701 97.4359 3 89.7743 3 80.298V20.2148C3 10.7385 10.4701 3.0769 19.7094 3.0769Z" fill="#370000"/>
<path d="M33.0768 70.4185C30.9144 70.4588 28.7521 70.2169 26.6683 69.8137C24.9777 69.4911 23.3657 68.9668 21.8324 68.241C21.4786 68.0797 21.3213 67.7168 21.3213 67.1522V59.41C21.3213 59.289 21.3606 59.1277 21.4786 59.047C21.5965 58.9664 21.7538 59.0067 21.8717 59.0874C25.3315 61.2649 29.2632 62.4343 33.3127 62.4746C35.711 62.4746 37.4409 62.1117 38.4632 61.3455C39.4068 60.7407 40.0358 59.6922 40.0358 58.5228C40.0358 57.8373 39.8786 57.1518 39.5247 56.5469C39.0529 55.8614 38.4632 55.2566 37.7555 54.813C36.6546 54.1275 35.4751 53.5226 34.2956 53.079L31.1503 51.708C28.5948 50.5789 26.5503 49.3692 25.0956 48.1191C23.7589 47.0304 22.7367 45.619 22.0683 44.0061C21.5179 42.4737 21.2427 40.9011 21.2427 39.2478C21.164 34.5702 23.8375 30.2555 28.005 28.3602C30.2461 27.2715 33.0375 26.7069 36.3401 26.7069C38.2273 26.7069 40.1144 26.8279 42.0016 27.1102C43.4563 27.2715 44.8717 27.6747 46.2085 28.3199C46.4837 28.4812 46.6803 28.8038 46.6409 29.1667V36.5057C46.6409 36.6267 46.5623 36.7074 46.4837 36.788C46.3657 36.909 46.2478 36.8686 46.0905 36.7477C44.6751 36.0218 43.1811 35.4573 41.6478 35.1347C39.9179 34.7315 38.1093 34.5298 36.3401 34.5702C35.2786 34.5702 34.2563 34.6508 33.2341 34.8928C32.5264 35.0541 31.8187 35.3363 31.1897 35.6992C30.6786 35.9815 30.2854 36.4251 30.0102 36.9493C29.7743 37.4332 29.617 37.9574 29.617 38.4816C29.617 39.1268 29.8136 39.8123 30.1674 40.3365C30.6786 40.9817 31.3469 41.5463 32.0546 41.9495C33.2341 42.635 34.4922 43.2802 35.7503 43.8851L38.1093 44.8125C40.9008 45.982 43.0632 47.232 44.6358 48.5224C46.0512 49.6515 47.1914 51.1435 47.9384 52.7968C48.5674 54.3694 48.9213 56.063 48.882 57.7567C48.9213 60.1761 48.2136 62.5149 46.8768 64.4908C45.4615 66.4667 43.535 67.9991 41.3333 68.9265C39.0529 69.8943 36.2615 70.4185 33.0768 70.4185Z" fill="#FA0F00"/>
<path d="M66.2992 36.8686C69.0906 36.8686 71.4496 37.3122 73.4547 38.159C75.3419 38.9655 77.0325 40.1752 78.4086 41.7076C79.706 43.1592 80.6889 44.8932 81.3573 46.7481C82.0257 48.6433 82.3402 50.6596 82.3402 52.6758C82.4188 55.3775 81.8684 58.0389 80.7282 60.4584C79.706 62.6359 78.212 64.5311 76.3248 66.0231C74.477 67.5151 72.3539 68.6442 70.0735 69.3701C67.7539 70.0959 65.3556 70.4588 62.9573 70.4588C62.8 70.4588 62.6034 70.4588 62.4462 70.4185C62.2496 70.4185 61.8171 70.3782 61.5419 70.3782V81.427C61.5812 81.7093 61.3846 81.9916 61.0701 81.9916H61.0308C60.4017 82.0319 59.8513 82.1125 58.9864 82.1932C58.1214 82.2738 57.2958 82.3545 56.4701 82.4351C55.6445 82.5158 54.9761 82.5964 54.3864 82.6368C54.0325 82.6368 53.6787 82.6771 53.3248 82.7577C53.0889 82.7577 52.9317 82.5964 52.9317 82.2335V44.127C52.9317 43.8044 52.9317 43.4012 52.8923 42.8366C52.853 42.2721 52.853 41.7076 52.8137 41.1833C52.8137 40.7398 52.7744 40.3365 52.7351 39.9333C52.6958 39.7317 52.8137 39.5704 53.0103 39.53C54.0718 39.1268 55.2906 38.7639 56.6274 38.3606C58.0034 37.9574 59.4975 37.6348 61.1094 37.3122C62.8393 36.9896 64.5693 36.8283 66.2992 36.8686ZM65.5522 44.5303C64.8838 44.5303 64.2547 44.5706 63.5864 44.6512C62.9966 44.7319 62.171 44.6512 61.5419 44.8125V62.5552C61.9351 62.6762 62.3282 62.7972 62.7214 62.8778C63.1146 62.8778 63.4684 62.9182 63.7043 62.9182C65.2376 62.9182 66.771 62.5956 68.1864 61.9504C69.6804 61.3052 70.9385 60.2164 71.8034 58.8857C72.7864 57.434 73.2581 55.5791 73.2581 53.2403C73.2581 50.4579 72.5898 48.3208 71.2137 46.8288C69.877 45.2964 67.9898 44.5303 65.5522 44.5303Z" fill="#FA0F00"/>
</svg>
