<svg width="28" height="32" viewBox="0 0 28 32" fill="none" xmlns="http://www.w3.org/2000/svg">
<g clip-path="url(#clip0)">
<path d="M11.9062 4.18115L13.2937 2.79365C13.8812 2.20615 14.8312 2.20615 15.4125 2.79365L27.5625 14.9374C28.15 15.5249 28.15 16.4749 27.5625 17.0562L15.4125 29.2062C14.825 29.7937 13.875 29.7937 13.2937 29.2062L11.9062 27.8187C11.3125 27.2249 11.325 26.2562 11.9312 25.6749L19.4625 18.4999H1.5C0.66875 18.4999 0 17.8312 0 16.9999V14.9999C0 14.1687 0.66875 13.4999 1.5 13.4999H19.4625L11.9312 6.3249C11.3187 5.74365 11.3062 4.7749 11.9062 4.18115Z" fill="black"/>
</g>
<defs>
<clipPath id="clip0">
<rect width="28" height="32" fill="white"/>
</clipPath>
</defs>
</svg>
