<svg width="100" height="100" viewBox="0 0 100 100" fill="none" xmlns="http://www.w3.org/2000/svg">
<path d="M97.55 32.0351L51.81 1.54746C50.71 0.817514 49.28 0.817514 48.19 1.54746L2.46 32.0351C1.55 32.6451 1 33.665 1 34.7549V65.2426C1 66.3325 1.55 67.3524 2.46 67.9624L48.19 98.45C48.74 98.82 49.37 99 50 99C50.63 99 51.26 98.82 51.81 98.45L97.54 67.9624C98.45 67.3524 99 66.3325 99 65.2426V34.7549C99 33.655 98.45 32.6351 97.55 32.0351ZM50 61.3129L33.02 49.9938L50 38.6746L66.98 49.9938L50 61.3129ZM53.27 33.0051V10.3668L89.85 34.7549L72.87 46.0641L53.27 33.0051ZM46.73 33.0051L27.13 46.0741L10.16 34.7449L46.74 10.3568V33.0051H46.73ZM21.25 49.9938L7.53 59.1331V40.8545L21.25 49.9938ZM27.13 53.9234L46.73 66.9924V89.6307L10.16 65.2326L27.13 53.9234ZM53.27 66.9825L72.87 53.9135L89.85 65.2326L53.27 89.6207V66.9825ZM78.76 49.9938L92.47 40.8545V59.1331L78.76 49.9938Z" fill="black"/>
</svg>
