<svg width="100" height="100" viewBox="0 0 100 100" fill="none" xmlns="http://www.w3.org/2000/svg">
<path d="M61.8214 38.1793C71.8237 48.1919 71.6864 64.2447 61.8817 74.1039C61.8633 74.124 61.8415 74.1457 61.8214 74.1658L50.5714 85.4158C40.649 95.3382 24.5058 95.3369 14.5849 85.4158C4.66246 75.4951 4.66246 59.35 14.5849 49.4293L20.7968 43.2173C22.4441 41.57 25.2811 42.6649 25.3661 44.9929C25.4746 47.9597 26.0066 50.9405 26.9883 53.8189C27.3208 54.7936 27.0832 55.8717 26.355 56.6L24.1641 58.7909C19.4723 63.4827 19.3251 71.1223 23.9707 75.86C28.6623 80.6444 36.3735 80.6729 41.101 75.9454L52.351 64.6971C57.0705 59.9776 57.0507 52.3494 52.351 47.6497C51.7314 47.0313 51.1073 46.5508 50.6198 46.2152C50.2749 45.9783 49.9902 45.6642 49.7882 45.2978C49.5863 44.9314 49.4728 44.5228 49.4568 44.1048C49.3905 42.3358 50.0173 40.5128 51.4152 39.1149L54.9398 35.5901C55.8641 34.6658 57.314 34.5523 58.3858 35.3003C59.6132 36.1574 60.7628 37.1208 61.8214 38.1793V38.1793ZM85.4154 14.5841C75.4945 4.66306 59.3513 4.66172 49.4289 14.5841L38.1789 25.8341C38.1588 25.8542 38.137 25.876 38.1186 25.8961C28.314 35.7552 28.1766 51.808 38.1789 61.8206C39.2374 62.8791 40.3869 63.8424 41.6143 64.6994C42.6861 65.4474 44.1362 65.3338 45.0603 64.4097L48.5849 60.8848C49.9828 59.4869 50.6096 57.664 50.5433 55.895C50.5273 55.4769 50.4138 55.0684 50.2119 54.702C50.0099 54.3356 49.7252 54.0214 49.3803 53.7846C48.8928 53.449 48.2687 52.9685 47.6491 52.3501C42.9494 47.6504 42.9296 40.0221 47.6491 35.3027L58.8991 24.0544C63.6266 19.3269 71.3377 19.3553 76.0294 24.1397C80.675 28.8775 80.528 36.5171 75.836 41.2089L73.6451 43.3998C72.9169 44.128 72.6793 45.2062 73.0118 46.1808C73.9935 49.0593 74.5255 52.04 74.634 55.0069C74.7192 57.3349 77.556 58.4298 79.2033 56.7824L85.4152 50.5705C95.3378 40.6499 95.3378 24.5049 85.4154 14.5841V14.5841Z" fill="black"/>
</svg>
