<svg width="100" height="100" viewBox="0 0 100 100" fill="none" xmlns="http://www.w3.org/2000/svg">
<path d="M50 96C75.4051 96 96 75.4051 96 50C96 24.5949 75.4051 4 50 4C24.5949 4 4 24.5949 4 50C4 75.4051 24.5949 96 50 96Z" fill="#20C4CB"/>
<path d="M61.9223 57.6979C60.0448 59.7632 57.4162 60.7959 56.1958 60.7959C54.7876 60.7959 54.0366 59.951 53.8489 58.6367C53.755 58.1673 53.8489 57.604 53.9427 57.1346C54.4121 54.2244 55.4448 52.3469 55.4448 51.8775C55.4448 51.6898 55.3509 51.5959 55.257 51.5959C54.3182 51.5959 51.1264 54.8816 50.657 57.0408L50.2815 58.8244C49.9999 60.0449 48.8733 60.7959 48.0285 60.7959C47.6529 60.7959 47.3713 60.6081 47.2774 60.1387C47.2774 59.951 47.2774 59.7632 47.2774 59.5755L47.4652 58.6367C45.7754 59.951 43.8978 60.7959 43.0529 60.7959C41.8325 60.7959 41.1754 60.1387 40.9876 59.2C40.2366 60.2326 39.204 60.7959 38.0774 60.7959C36.6693 60.7959 35.355 59.8571 34.6978 58.4489C33.7591 59.4816 32.6325 60.5142 31.3182 61.3591C29.3468 62.5795 27.1876 63.6122 24.6529 63.6122C22.306 63.6122 20.2407 62.3918 19.208 61.3591C17.5182 59.8571 16.6733 57.5102 16.3917 55.4449C15.5468 48.8734 19.5835 40.1428 25.8733 36.3877C27.2815 35.5428 28.8774 35.0734 30.3795 35.0734C33.3836 35.0734 35.6366 37.2326 35.9182 39.7673C36.1999 42.1142 35.2611 44.0857 32.7264 45.3061C31.4121 45.9632 30.755 45.9632 30.5672 45.5877C30.4733 45.4 30.4733 45.0244 30.755 44.8367C33.1958 42.8653 33.1958 41.1755 32.9142 38.8285C32.7264 37.3265 31.7876 36.3877 30.6611 36.3877C25.7795 36.3877 19.0203 46.9959 19.9591 54.6938C20.3346 57.6979 22.2121 61.1714 25.9672 61.1714C27.1876 61.1714 28.5958 60.7959 29.7223 60.2326C31.7876 59.2 33.008 58.3551 34.1346 56.9469C33.8529 53.3796 36.9509 48.8734 41.457 48.8734C43.4285 48.8734 45.0244 49.6244 45.2121 51.2204C45.4938 53.1918 43.804 53.5673 43.1468 53.5673C42.5836 53.5673 41.7387 53.3795 41.6448 52.9102C41.5509 52.3469 42.8652 52.6285 42.6774 51.4081C42.5836 50.6571 41.7387 50.3755 40.9876 50.3755C38.1713 50.3755 36.5754 54.3183 36.857 56.7591C36.9509 57.8857 37.608 59.0122 38.5468 59.0122C39.3917 59.0122 40.6121 57.7918 40.9876 56.102C41.2693 54.8816 42.3958 54.1306 43.2407 54.1306C43.7101 54.1306 43.9917 54.3183 43.9917 54.7877C43.9917 54.9755 43.9917 55.1632 43.9917 55.351C43.8978 55.8204 43.5223 57.604 43.5223 57.8857C43.5223 58.1673 43.7101 58.6367 44.2733 58.6367C44.7427 58.6367 46.2448 57.7918 47.7468 56.4775C48.2162 54.1306 48.7795 51.2204 48.7795 51.0326C48.9672 50.0938 49.3427 49.0612 51.2203 49.0612C51.5958 49.0612 51.8774 49.2489 51.9713 49.7183C51.9713 49.9061 51.9713 50.0938 51.9713 50.2816L51.5019 52.8163C53.1917 50.5632 55.8203 48.8734 57.4162 48.8734C58.0733 48.8734 58.6366 49.2489 58.7305 49.9061C58.8244 50.2816 58.6366 50.9387 58.4489 51.6898C57.8856 53.1918 57.2284 55.5387 56.8529 57.5102C56.7591 57.9795 56.9468 58.5428 57.6978 58.5428C58.355 58.5428 60.3264 57.7918 61.9223 55.6326C61.9223 55.351 61.9223 55.0693 61.9223 54.6938C61.9223 53.004 62.0162 51.6898 62.3917 50.6571C62.6733 49.6244 63.9876 48.6857 64.8325 48.6857C65.3019 48.6857 65.5836 48.9673 65.5836 49.4367C65.5836 49.6244 65.5836 49.8122 65.4897 50C64.9264 51.7836 64.5509 53.3795 64.5509 54.9755C64.5509 55.9142 64.7387 57.3224 64.9264 58.0734C64.9264 58.2612 65.0203 58.3551 65.208 58.3551C65.4897 58.3551 67.3672 56.5714 68.6815 54.3183C67.4611 53.5673 66.804 52.1591 66.804 50.4693C66.804 47.653 68.4938 46.151 70.1836 46.151C71.4978 46.151 72.6244 47.0898 72.6244 48.9673C72.6244 50.1877 72.155 51.502 71.4978 52.8163C71.4978 52.8163 71.7795 52.8163 71.8734 52.8163C72.906 52.8163 73.657 52.3469 74.1264 51.7836C74.3142 51.5959 74.5019 51.4081 74.6897 51.3142C76.004 49.7183 77.9754 48.5918 80.2284 48.5918C82.1999 48.5918 83.7958 49.3428 83.9836 50.9387C84.2652 52.9102 82.4815 53.3795 81.9182 53.3795C81.355 53.3795 80.4162 53.1918 80.4162 52.7224C80.3223 52.253 81.6366 52.4408 81.5427 51.2204C81.4489 50.4693 80.604 50.0938 79.8529 50.0938C77.2244 50.0938 75.4407 53.5673 75.7223 56.4775C75.8162 57.604 76.3795 58.7306 77.4121 58.7306C78.257 58.7306 79.4774 57.5102 79.9468 55.8204C80.2285 54.6938 81.355 53.8489 82.1999 53.8489C82.5754 53.8489 82.9509 54.0367 82.9509 54.5061C82.9509 54.7877 82.857 55.2571 82.4815 57.1346C82.2938 57.8857 82.2938 58.6367 82.2938 59.1061C82.4815 60.2326 82.9509 60.9836 83.4203 61.453C83.608 61.6408 83.7019 61.8285 83.7019 61.9224C83.7019 62.204 83.5142 62.4857 83.1387 62.4857C83.0448 62.4857 82.857 62.4857 82.7631 62.3918C80.6978 61.5469 79.8529 60.1387 79.6652 58.9183C78.9142 59.951 77.8815 60.4204 76.755 60.4204C74.9713 60.4204 73.1876 58.8244 72.906 56.7591C72.8121 55.9142 72.906 54.9755 73.1876 54.1306C72.4366 54.6 71.6856 54.8816 70.9346 54.8816C70.6529 54.8816 70.4652 54.8816 70.2774 54.8816C68.4938 57.4163 66.6162 59.2 65.208 60.0449C64.6448 60.3265 64.0815 60.5142 63.706 60.5142C63.4244 60.5142 63.0489 60.4204 62.8611 60.1387C62.2978 59.7632 62.0162 58.8244 61.9223 57.6979ZM68.306 49.2489C68.306 50.3755 68.8693 51.502 69.5264 52.253C69.808 51.502 69.9958 50.751 69.9958 50C69.9958 48.5918 69.4325 47.9347 69.057 47.9347C68.4938 47.9347 68.306 48.6857 68.306 49.2489Z" fill="white"/>
</svg>
