<svg width="75" height="33" viewBox="0 0 75 33" fill="none" xmlns="http://www.w3.org/2000/svg">
  <path d="M12.864 4.16C14.9547 4.16 16.6187 4.84267 17.856 6.208C19.1147 7.552 19.744 9.408 19.744 11.776V22.208H14.304V12.512C14.304 11.3173 13.9947 10.3893 13.376 9.728C12.7573 9.06667 11.9253 8.736 10.88 8.736C9.83468 8.736 9.00268 9.06667 8.38401 9.728C7.76534 10.3893 7.45601 11.3173 7.45601 12.512V22.208H1.98401V4.352H7.45601V6.72C8.01068 5.93067 8.75734 5.312 9.69601 4.864C10.6347 4.39467 11.6907 4.16 12.864 4.16Z" fill="black"/>
  <path d="M31.6745 22.464C29.9252 22.464 28.3465 22.0907 26.9385 21.344C25.5518 20.5973 24.4532 19.5307 23.6425 18.144C22.8532 16.7573 22.4585 15.136 22.4585 13.28C22.4585 11.4453 22.8638 9.83467 23.6745 8.448C24.4852 7.04 25.5945 5.96267 27.0025 5.216C28.4105 4.46933 29.9892 4.096 31.7385 4.096C33.4878 4.096 35.0665 4.46933 36.4745 5.216C37.8825 5.96267 38.9918 7.04 39.8025 8.448C40.6132 9.83467 41.0185 11.4453 41.0185 13.28C41.0185 15.1147 40.6025 16.736 39.7705 18.144C38.9598 19.5307 37.8398 20.5973 36.4105 21.344C35.0025 22.0907 33.4238 22.464 31.6745 22.464ZM31.6745 17.728C32.7198 17.728 33.6052 17.344 34.3305 16.576C35.0772 15.808 35.4505 14.7093 35.4505 13.28C35.4505 11.8507 35.0878 10.752 34.3625 9.984C33.6585 9.216 32.7838 8.832 31.7385 8.832C30.6718 8.832 29.7865 9.216 29.0825 9.984C28.3785 10.7307 28.0265 11.8293 28.0265 13.28C28.0265 14.7093 28.3678 15.808 29.0505 16.576C29.7545 17.344 30.6292 17.728 31.6745 17.728Z" fill="black"/>
  <path d="M53.8735 17.568V22.208H51.0895C49.1055 22.208 47.5588 21.728 46.4495 20.768C45.3402 19.7867 44.7855 18.1973 44.7855 16V8.896H42.6095V4.352H44.7855V0H50.2575V4.352H53.8415V8.896H50.2575V16.064C50.2575 16.5973 50.3855 16.9813 50.6415 17.216C50.8975 17.4507 51.3242 17.568 51.9215 17.568H53.8735Z" fill="black"/>
  <path d="M73.7535 12.992C73.7535 13.504 73.7215 14.0373 73.6575 14.592H61.2735C61.3588 15.7013 61.7108 16.5547 62.3295 17.152C62.9695 17.728 63.7482 18.016 64.6655 18.016C66.0308 18.016 66.9802 17.44 67.5135 16.288H73.3375C73.0388 17.4613 72.4948 18.5173 71.7055 19.456C70.9375 20.3947 69.9668 21.1307 68.7935 21.664C67.6202 22.1973 66.3082 22.464 64.8575 22.464C63.1082 22.464 61.5508 22.0907 60.1855 21.344C58.8202 20.5973 57.7535 19.5307 56.9855 18.144C56.2175 16.7573 55.8335 15.136 55.8335 13.28C55.8335 11.424 56.2068 9.80267 56.9535 8.416C57.7215 7.02933 58.7882 5.96267 60.1535 5.216C61.5188 4.46933 63.0868 4.096 64.8575 4.096C66.5855 4.096 68.1215 4.45867 69.4655 5.184C70.8095 5.90933 71.8548 6.944 72.6015 8.288C73.3695 9.632 73.7535 11.2 73.7535 12.992ZM68.1535 11.552C68.1535 10.6133 67.8335 9.86667 67.1935 9.312C66.5535 8.75733 65.7535 8.48 64.7935 8.48C63.8762 8.48 63.0975 8.74667 62.4575 9.28C61.8388 9.81333 61.4548 10.5707 61.3055 11.552H68.1535Z" fill="black"/>
  <rect y="29.208" width="75" height="3" fill="#999999"/>
</svg>
