<svg width="180" height="36" viewBox="0 0 180 36" fill="none" xmlns="http://www.w3.org/2000/svg">
  <rect width="180" height="36" rx="4" fill="white"/>
  <rect x="0.5" y="0.5" width="179" height="35" rx="3.5" stroke="black" stroke-opacity="0.15"/>
  <path d="M44.932 14.848C46.18 14.848 47.17 15.226 47.902 15.982C48.646 16.738 49.018 17.788 49.018 19.132V25H45.958V19.546C45.958 18.898 45.784 18.4 45.436 18.052C45.1 17.692 44.632 17.512 44.032 17.512C43.432 17.512 42.958 17.692 42.61 18.052C42.274 18.4 42.106 18.898 42.106 19.546V25H39.046V19.546C39.046 18.898 38.872 18.4 38.524 18.052C38.188 17.692 37.72 17.512 37.12 17.512C36.52 17.512 36.046 17.692 35.698 18.052C35.362 18.4 35.194 18.898 35.194 19.546V25H32.116V14.956H35.194V16.216C35.506 15.796 35.914 15.466 36.418 15.226C36.922 14.974 37.492 14.848 38.128 14.848C38.884 14.848 39.556 15.01 40.144 15.334C40.744 15.658 41.212 16.12 41.548 16.72C41.896 16.168 42.37 15.718 42.97 15.37C43.57 15.022 44.224 14.848 44.932 14.848ZM61.4307 14.956L55.1307 29.77H51.8187L54.1227 24.658L50.0367 14.956H53.4747L55.7967 21.238L58.1007 14.956H61.4307ZM63.9837 25.144C63.4437 25.144 62.9997 24.988 62.6517 24.676C62.3157 24.352 62.1477 23.956 62.1477 23.488C62.1477 23.008 62.3157 22.606 62.6517 22.282C62.9997 21.958 63.4437 21.796 63.9837 21.796C64.5117 21.796 64.9437 21.958 65.2797 22.282C65.6277 22.606 65.8017 23.008 65.8017 23.488C65.8017 23.956 65.6277 24.352 65.2797 24.676C64.9437 24.988 64.5117 25.144 63.9837 25.144ZM73.7438 14.848C74.9198 14.848 75.8558 15.232 76.5518 16C77.2598 16.756 77.6138 17.8 77.6138 19.132V25H74.5538V19.546C74.5538 18.874 74.3798 18.352 74.0318 17.98C73.6838 17.608 73.2158 17.422 72.6278 17.422C72.0398 17.422 71.5718 17.608 71.2238 17.98C70.8758 18.352 70.7018 18.874 70.7018 19.546V25H67.6238V14.956H70.7018V16.288C71.0138 15.844 71.4338 15.496 71.9618 15.244C72.4898 14.98 73.0838 14.848 73.7438 14.848ZM89.2207 19.816C89.2207 20.104 89.2027 20.404 89.1667 20.716H82.2007C82.2487 21.34 82.4467 21.82 82.7947 22.156C83.1547 22.48 83.5927 22.642 84.1087 22.642C84.8767 22.642 85.4107 22.318 85.7107 21.67H88.9867C88.8187 22.33 88.5127 22.924 88.0687 23.452C87.6367 23.98 87.0907 24.394 86.4307 24.694C85.7707 24.994 85.0327 25.144 84.2167 25.144C83.2327 25.144 82.3567 24.934 81.5887 24.514C80.8207 24.094 80.2207 23.494 79.7887 22.714C79.3567 21.934 79.1407 21.022 79.1407 19.978C79.1407 18.934 79.3507 18.022 79.7707 17.242C80.2027 16.462 80.8027 15.862 81.5707 15.442C82.3387 15.022 83.2207 14.812 84.2167 14.812C85.1887 14.812 86.0527 15.016 86.8087 15.424C87.5647 15.832 88.1527 16.414 88.5727 17.17C89.0047 17.926 89.2207 18.808 89.2207 19.816ZM86.0707 19.006C86.0707 18.478 85.8907 18.058 85.5307 17.746C85.1707 17.434 84.7207 17.278 84.1807 17.278C83.6647 17.278 83.2267 17.428 82.8667 17.728C82.5187 18.028 82.3027 18.454 82.2187 19.006H86.0707ZM105.263 14.956L102.545 25H99.1425L97.5585 18.484L95.9205 25H92.5365L89.8005 14.956H92.8785L94.3005 22.138L95.9925 14.956H99.2505L100.961 22.102L102.365 14.956H105.263ZM113.294 7.9L108.47 28.366H105.5L110.324 7.9H113.294Z" fill="#999999"/>
  <path d="M120.713 14.848C121.889 14.848 122.825 15.232 123.521 16C124.229 16.756 124.583 17.8 124.583 19.132V25H121.523V19.546C121.523 18.874 121.349 18.352 121.001 17.98C120.653 17.608 120.185 17.422 119.597 17.422C119.009 17.422 118.541 17.608 118.193 17.98C117.845 18.352 117.671 18.874 117.671 19.546V25H114.593V14.956H117.671V16.288C117.983 15.844 118.403 15.496 118.931 15.244C119.459 14.98 120.053 14.848 120.713 14.848ZM131.293 25.144C130.309 25.144 129.421 24.934 128.629 24.514C127.849 24.094 127.231 23.494 126.775 22.714C126.331 21.934 126.109 21.022 126.109 19.978C126.109 18.946 126.337 18.04 126.793 17.26C127.249 16.468 127.873 15.862 128.665 15.442C129.457 15.022 130.345 14.812 131.329 14.812C132.313 14.812 133.201 15.022 133.993 15.442C134.785 15.862 135.409 16.468 135.865 17.26C136.321 18.04 136.549 18.946 136.549 19.978C136.549 21.01 136.315 21.922 135.847 22.714C135.391 23.494 134.761 24.094 133.957 24.514C133.165 24.934 132.277 25.144 131.293 25.144ZM131.293 22.48C131.881 22.48 132.379 22.264 132.787 21.832C133.207 21.4 133.417 20.782 133.417 19.978C133.417 19.174 133.213 18.556 132.805 18.124C132.409 17.692 131.917 17.476 131.329 17.476C130.729 17.476 130.231 17.692 129.835 18.124C129.439 18.544 129.241 19.162 129.241 19.978C129.241 20.782 129.433 21.4 129.817 21.832C130.213 22.264 130.705 22.48 131.293 22.48ZM143.78 22.39V25H142.214C141.098 25 140.228 24.73 139.604 24.19C138.98 23.638 138.668 22.744 138.668 21.508V17.512H137.444V14.956H138.668V12.508H141.746V14.956H143.762V17.512H141.746V21.544C141.746 21.844 141.818 22.06 141.962 22.192C142.106 22.324 142.346 22.39 142.682 22.39H143.78ZM154.963 19.816C154.963 20.104 154.945 20.404 154.909 20.716H147.943C147.991 21.34 148.189 21.82 148.537 22.156C148.897 22.48 149.335 22.642 149.851 22.642C150.619 22.642 151.153 22.318 151.453 21.67H154.729C154.561 22.33 154.255 22.924 153.811 23.452C153.379 23.98 152.833 24.394 152.173 24.694C151.513 24.994 150.775 25.144 149.959 25.144C148.975 25.144 148.099 24.934 147.331 24.514C146.563 24.094 145.963 23.494 145.531 22.714C145.099 21.934 144.883 21.022 144.883 19.978C144.883 18.934 145.093 18.022 145.513 17.242C145.945 16.462 146.545 15.862 147.313 15.442C148.081 15.022 148.963 14.812 149.959 14.812C150.931 14.812 151.795 15.016 152.551 15.424C153.307 15.832 153.895 16.414 154.315 17.17C154.747 17.926 154.963 18.808 154.963 19.816ZM151.813 19.006C151.813 18.478 151.633 18.058 151.273 17.746C150.913 17.434 150.463 17.278 149.923 17.278C149.407 17.278 148.969 17.428 148.609 17.728C148.261 18.028 148.045 18.454 147.961 19.006H151.813Z" fill="black"/>
  <path d="M21.7143 17.125H21.0714V15.1562C21.0714 12.8648 19.2446 11 17 11C14.7554 11 12.9286 12.8648 12.9286 15.1562V17.125H12.2857C11.5759 17.125 11 17.7129 11 18.4375V23.6875C11 24.4121 11.5759 25 12.2857 25H21.7143C22.4241 25 23 24.4121 23 23.6875V18.4375C23 17.7129 22.4241 17.125 21.7143 17.125ZM18.9286 17.125H15.0714V15.1562C15.0714 14.0707 15.9366 13.1875 17 13.1875C18.0634 13.1875 18.9286 14.0707 18.9286 15.1562V17.125Z" fill="#999999"/>
  <rect x="156" y="7" width="3" height="23" fill="black"/>
</svg>
