<svg width="32" height="32" viewBox="0 0 32 32" fill="none" xmlns="http://www.w3.org/2000/svg">
<path fill-rule="evenodd" clip-rule="evenodd" d="M6 0C2.68629 0 0 2.68629 0 6V26C0 29.3137 2.68629 32 6 32H26C29.3137 32 32 29.3137 32 26V6C32 2.68629 29.3137 0 26 0H6ZM17.6802 7H24.1785C24.9478 7 25.5714 7.62359 25.5714 8.39286V14.8916C25.5714 16.1363 24.0658 16.7487 23.1936 15.8766L21.3372 14.0199L9.98969 25.3674C9.71773 25.6394 9.27676 25.6394 9.00476 25.3674L7.20396 23.5666C6.93201 23.2946 6.93201 22.8537 7.20396 22.5817L18.5515 11.2342L16.6953 9.37778C15.8184 8.50086 16.4433 7 17.6802 7Z" fill="#0066FF"/>
</svg>
